SplineFontDB: 3.0
FontName: Nosifer-Regular
FullName: Nosifer
FamilyName: Nosifer
Weight: Regular
Copyright: Copyright (c) 2011, Typomondo, with Reserved Font Name "Nosifer"
Version: 001.002
ItalicAngle: 0
UnderlinePosition: -103
UnderlineWidth: 102
Ascent: 1638
Descent: 410
sfntRevision: 0x00010000
LayerCount: 2
Layer: 0 0 "Back"  1
Layer: 1 0 "Fore"  0
NeedsXUIDChange: 1
XUID: [1021 14 500265001 5086544]
FSType: 0
OS2Version: 3
OS2_WeightWidthSlopeOnly: 0
OS2_UseTypoMetrics: 1
CreationTime: 1318863780
ModificationTime: 1319228190
PfmFamily: 17
TTFWeight: 400
TTFWidth: 5
LineGap: 0
VLineGap: 0
Panose: 2 0 0 0 0 0 0 0 0 0
OS2TypoAscent: 2236
OS2TypoAOffset: 0
OS2TypoDescent: -1328
OS2TypoDOffset: 0
OS2TypoLinegap: 0
OS2WinAscent: 2236
OS2WinAOffset: 0
OS2WinDescent: 1328
OS2WinDOffset: 0
HheadAscent: 2236
HheadAOffset: 0
HheadDescent: -1328
HheadDOffset: 0
OS2SubXSize: 1331
OS2SubYSize: 1228
OS2SubXOff: 0
OS2SubYOff: 153
OS2SupXSize: 1331
OS2SupYSize: 1228
OS2SupXOff: 0
OS2SupYOff: 716
OS2StrikeYSize: 102
OS2StrikeYPos: 1047
OS2Vendor: 'newt'
OS2CodePages: 20000081.00000000
OS2UnicodeRanges: 00000003.00000000.00000000.00000000
Lookup: 4 0 1 "'liga' Standard Ligatures in Latin lookup 0"  {"'liga'"  } ['liga' ('DFLT' <'dflt' > 'latn' <'dflt' > ) ]
Lookup: 258 0 0 "'kern' Horizontal Kerning in Latin lookup 0"  {"'kern'" [367,0,2] } ['kern' ('DFLT' <'dflt' > 'latn' <'dflt' > ) ]
MarkAttachClasses: 1
DEI: 91125
KernClass2: 3 6 "'kern'" 
 3 T t
 3 A a
 11 C G O c g o
 3 Q q
 7 V W v w
 3 T t
 3 A a
 0 {} 0 {} 0 {} 0 {} 0 {} 0 {} 0 {} -52 {} 0 {} 0 {} 0 {} -205 {} 0 {} 0 {} 0 {} -191 {} -183 {} 0 {}
LangName: 1033 "" "" "" "" "" "" "" "" "" "" "" "" "" "This Font Software is licensed under the SIL Open Font License, Version 1.1. This license is available with a FAQ at: http://scripts.sil.org/OFL" "http://scripts.sil.org/OFL" 
Encoding: UnicodeBmp
Compacted: 1
UnicodeInterp: none
NameList: Adobe Glyph List
DisplaySize: -48
AntiAlias: 1
FitToEm: 1
WidthSeparation: 367

StartChar: acute
Encoding: 180 180 3
Width: 880
VWidth: 1658
Flags: HW
LayerCount: 2
Fore
SplineSet
723 1207 m 2
 262 1095 l 2
 201 1080 183 1066 178 1066 c 1
 178 1066 164.206054688 1111.58886719 138 1164 c 1
 107 1222 87 1236 87 1240 c 0
 87 1245 111 1242 170 1276 c 2
 599 1526 l 2
 655 1558 670 1581 674 1581 c 0
 678 1581 673 1555 698 1492 c 2
 773 1300 l 2
 792 1253 803 1234 803 1225 c 0
 803 1211 779 1221 723 1207 c 2
EndSplineSet
EndChar

StartChar: circumflex
Encoding: 710 710 5
Width: 1121
VWidth: 1658
Flags: HW
LayerCount: 2
Fore
SplineSet
783 1453 m 2
 954 1193 l 2
 976 1159 1003 1133 1039 1114 c 1
 1029 1098 l 1
 993 1118 957 1125 917 1125 c 2
 738 1125 l 2
 698 1125 670 1115 648 1082 c 1
 621 1101 l 1
 643 1135 642 1164 628 1201 c 2
 591 1294 l 2
 577 1331 570 1370 570 1410 c 1
 555 1410 l 1
 555 1370 548 1331 534 1294 c 2
 497 1201 l 2
 483 1164 482 1135 504 1101 c 1
 476 1082 l 1
 454 1115 427 1125 387 1125 c 2
 208 1125 l 2
 168 1125 132 1118 96 1098 c 1
 86 1114 l 1
 122 1133 149 1159 171 1193 c 2
 342 1453 l 2
 364 1487 372 1512 352 1548 c 1
 383 1564 l 1
 402 1528 428 1520 468 1520 c 2
 657 1520 l 2
 697 1520 723 1528 742 1564 c 1
 773 1548 l 1
 753 1512 761 1487 783 1453 c 2
EndSplineSet
EndChar

StartChar: dieresis
Encoding: 168 168 7
Width: 1297
VWidth: 1658
Flags: HW
LayerCount: 2
Fore
SplineSet
365 1069 m 2
 255 1069 l 2
 144 1069 132 1066 132 1127 c 2
 132 1320 l 2
 132 1381 144 1378 255 1378 c 2
 365 1378 l 2
 476 1378 488 1381 488 1320 c 2
 488 1127 l 2
 488 1066 476 1069 365 1069 c 2
1053 1069 m 2
 941 1069 l 2
 830 1069 819 1066 819 1127 c 2
 819 1320 l 2
 819 1381 830 1378 941 1378 c 2
 1053 1378 l 2
 1164 1378 1175 1381 1175 1320 c 2
 1175 1127 l 2
 1175 1066 1164 1069 1053 1069 c 2
EndSplineSet
EndChar

StartChar: grave
Encoding: 96 96 9
Width: 858
VWidth: 1658
Flags: HW
LayerCount: 2
Fore
SplineSet
147 1207 m 1
 77 1222 54 1215 54 1220 c 0
 54 1224 76 1242 98 1300 c 2
 173 1492 l 2
 198 1557 193 1583 197 1583 c 0
 201 1583 214 1559 272 1526 c 2
 702 1276 l 2
 756 1244 773 1236 773 1231 c 0
 773 1220 719 1217 719 1104 c 0
 719 1058 730 1008 730 968 c 0
 730 946 716 933 702 933 c 0
 689 933 677 944 677 965 c 0
 677 994 682 1035 682 1067 c 0
 682 1084 641 1092 147 1207 c 1
EndSplineSet
EndChar

StartChar: B
Encoding: 66 66 10
Width: 1979
VWidth: 1658
Flags: HW
LayerCount: 2
Fore
SplineSet
144 -402 m 0
 144 -300 176 -199 176 -97 c 2
 177 1251 l 2
 177 1287 165 1325 138 1351 c 1
 158 1372 l 1
 185 1346 222 1332 258 1332 c 2
 1104 1332 l 2
 1330 1332 1804 1358 1804 1027 c 0
 1804 919 1747 788 1625 778 c 1
 1627 758 l 1
 1793 773 1887 555 1887 417 c 0
 1887 74 1512 0 1240 0 c 2
 305 0 l 1
 305 -62 327 -122 327 -183 c 0
 327 -212 320 -244 284 -244 c 0
 249 -244 242 -213 242 -184 c 0
 242 -128 266 -74 266 -19 c 0
 266 -6 264 38 242 38 c 0
 212 38 205 -26 205 -46 c 0
 205 -166 234 -287 234 -408 c 0
 234 -437 225 -466 191 -466 c 0
 154 -466 144 -434 144 -402 c 0
691 419 m 0
 691 381 679 344 652 317 c 1
 672 296 l 1
 698 322 736 336 772 336 c 2
 1165 336 l 2
 1233 336 1327 321 1327 419 c 0
 1327 480 1264 503 1212 503 c 2
 772 500 l 2
 736 500 698 513 672 539 c 1
 652 519 l 1
 678 493 691 455 691 419 c 0
1133 995 m 2
 772 994 l 2
 736 994 702 1008 677 1032 c 1
 658 1012 l 1
 683 987 697 953 697 918 c 0
 697 882 683 846 658 820 c 1
 677 801 l 1
 719 842 794 844 849 844 c 0
 926 844 1006 834 1083 834 c 0
 1150 834 1252 840 1252 929 c 0
 1252 982 1173 995 1133 995 c 2
327 -844 m 0
 301 -844 294 -816 294 -795 c 0
 294 -734 314 -675 328 -616 c 1
 341 -676 362 -735 362 -797 c 0
 362 -819 353 -844 327 -844 c 0
EndSplineSet
EndChar

StartChar: C
Encoding: 67 67 11
Width: 1951
VWidth: 1658
Flags: HW
LayerCount: 2
Fore
SplineSet
712 -24 m 1
 312 32 78 265 78 679 c 0
 78 1222 527 1375 993 1375 c 0
 1308 1375 1750 1318 1826 947 c 0
 1834 907 1847 878 1879 852 c 1
 1862 830 l 1
 1832 852 1795 864 1758 861 c 2
 1373 837 l 2
 1335 834 1303 825 1286 788 c 1
 1253 804 l 1
 1259 817 1263 828 1263 842 c 0
 1263 989 1048 1027 941 1027 c 0
 736 1027 628 867 628 676 c 0
 628 453 754 302 984 302 c 0
 1087 302 1274 391 1274 511 c 0
 1274 525 1269 538 1263 551 c 1
 1296 568 l 1
 1315 532 1344 521 1383 518 c 0
 1518 509 1660 491 1795 491 c 0
 1829 491 1860 502 1887 522 c 1
 1903 501 l 1
 1870 476 1859 446 1849 407 c 0
 1779 113 1434 10 1171 -27 c 1
 1171 -211 1219 -390 1219 -572 c 0
 1219 -606 1202 -649 1162 -649 c 0
 1122 -649 1104 -606 1104 -572 c 0
 1104 -421 1137 -270 1137 -119 c 0
 1137 -23 1097 -27 1015 -27 c 0
 993 -27 892 -32 892 -64 c 0
 892 -155 916 -245 916 -336 c 0
 916 -359 910 -401 878 -401 c 0
 848 -401 840 -360 840 -338 c 0
 840 -244 867 -156 867 -62 c 0
 867 -47 859 -30 841 -30 c 0
 825 -30 755 -34 755 -61 c 0
 755 -205 766 -350 766 -494 c 0
 766 -515 751 -538 728 -538 c 0
 706 -538 693 -519 693 -499 c 0
 693 -341 709 -182 712 -24 c 1
EndSplineSet
EndChar

StartChar: A
Encoding: 65 65 12
Width: 1768
VWidth: 1658
Flags: W
HStem: -42 21G<524.5 562 1746 1775> 152 277<651.548 1055.45>
VStem: -9 90<-319.777 -3.71939> 1149 81<-461.987 -226.234> 1174 36<-341.656 -46.6784> 1407 55<-366.99 -165.683 -63.921 -0.514896>
LayerCount: 2
Fore
SplineSet
1460 -31 m 0xec
 1460 -53 1447 -64 1433 -64 c 0
 1418 -64 1402 -52 1402 -29 c 0
 1402 -20 1402 -10 1404 0 c 1
 1283 0 l 2
 1251 0 1210 0 1210 -223 c 0xec
 1210 -292 1230 -361 1230 -406 c 0
 1230 -445 1210 -462 1190 -462 c 0
 1169 -462 1149 -444 1149 -410 c 0xf4
 1149 -354 1174 -273 1174 -204 c 2
 1174 77 l 1
 1168 93 1164 108 1164 122 c 0
 1164 140 1169 157 1182 176 c 1
 1156 195 l 1
 1133 162 1106 152 1066 152 c 2
 655 152 l 2
 615 152 588 162 565 194 c 1
 539 176 l 1
 553 156 558 138 558 119 c 0
 558 105 555 92 551 77 c 1
 551 76 l 1
 547 61 542 46 542 33 c 0
 542 13 548 -3 562 -23 c 1
 536 -42 l 1
 513 -10 486 0 446 0 c 2
 84 0 l 1
 81 -19 81 -41 81 -64 c 0
 81 -115 84 -173 84 -223 c 0
 84 -291 59 -320 33 -320 c 0
 4 -320 -9 -286 -9 -230 c 0
 -9 -122 31 39 46 76 c 2
 526 1257 l 2
 533 1275 536 1291 536 1306 c 0
 536 1323 532 1339 519 1357 c 1
 547 1375 l 1
 569 1342 597 1332 637 1332 c 2
 1097 1332 l 2
 1137 1332 1164 1342 1186 1375 c 1
 1215 1357 l 1
 1202 1339 1198 1323 1198 1307 c 0
 1198 1292 1203 1276 1210 1258 c 2
 1704 75 l 2
 1719 38 1742 9 1775 -13 c 1
 1763 -32 l 1
 1729 -10 1694 0 1654 0 c 2
 1458 0 l 1
 1459 -11 1460 -21 1460 -31 c 0xec
758 429 m 2
 949 429 l 2
 989 429 1024 419 1057 397 c 1
 1070 416 l 1
 1037 439 1016 468 1002 505 c 2
 875 830 l 2
 861 867 853 906 852 946 c 1
 839 946 l 1
 838 906 833 868 819 830 c 2
 704 506 l 2
 690 468 670 439 637 416 c 1
 650 396 l 1
 683 419 718 429 758 429 c 2
1462 -334 m 0
 1462 -356 1448 -367 1434 -367 c 0
 1420 -367 1407 -354 1407 -331 c 0
 1407 -278 1420 -210 1433 -158 c 1
 1446 -212 1462 -280 1462 -334 c 0
EndSplineSet
EndChar

StartChar: Ccedilla
Encoding: 199 199 13
Width: 1951
VWidth: 1658
Flags: HW
LayerCount: 2
Back
SplineSet
78 679 m 0
 78 1222 527 1375 993 1375 c 0
 1308 1375 1750 1318 1826 947 c 0
 1834 907 1847 878 1879 852 c 1
 1862 830 l 1
 1835.05173952 849.762057683 1802.45518882 861.455129336 1769.28406778 861.455129336 c 0
 1765.52762416 861.455129336 1761.76381208 861.305173952 1758 861 c 2
 1373 837 l 2
 1335 834 1303 825 1286 788 c 1
 1253 804 l 1
 1259 817 1263 828 1263 842 c 0
 1263 989 1048 1027 941 1027 c 0
 736 1027 628 867 628 676 c 0
 628 453 754 302 984 302 c 0
 1087 302 1274 391 1274 511 c 0
 1274 525 1269 538 1263 551 c 1
 1296 568 l 1
 1315 532 1344 521 1383 518 c 0
 1518 509 1660 491 1795 491 c 0
 1829 491 1860 502 1887 522 c 1
 1903 501 l 1
 1870 476 1859 446 1849 407 c 0
 1768.75724738 69.9804389821 1314.84004581 -52.7142630486 959.170011632 -52.7142630486 c 0
 430.173091773 -52.7142630486 78 182.083420657 78 679 c 0
864.899414062 -177 m 1
 864.899414062 -27 l 1
 1048.89941406 -27 l 1
 1022.89941406 -93 l 1
 1184.89941406 -118 1287.89941406 -182 1287.89941406 -312 c 0
 1287.89941406 -479 1167.89941406 -530 1034.89941406 -530 c 0
 951.899414062 -530 861.899414062 -511 792.899414062 -489 c 1
 813.899414062 -358 l 1
 813.899414062 -358 905.899414062 -391 962.899414062 -391 c 0
 1060.89941406 -391 1076.89941406 -329 1076.89941406 -293 c 0
 1076.89941406 -261 1051.89941406 -176 903.899414062 -176 c 0
 890.899414062 -176 878.899414062 -176 864.899414062 -177 c 1
EndSplineSet
Fore
SplineSet
78 679 m 4
 78 1222 527 1375 993 1375 c 4
 1308 1375 1750 1318 1826 947 c 4
 1834 907 1847 878 1879 852 c 5
 1862 830 l 5
 1835.05173952 849.762057683 1802.45518882 861.455129336 1769.28406778 861.455129336 c 4
 1765.52762416 861.455129336 1761.76381208 861.305173952 1758 861 c 6
 1373 837 l 6
 1335 834 1303 825 1286 788 c 5
 1253 804 l 5
 1259 817 1263 828 1263 842 c 4
 1263 989 1048 1027 941 1027 c 4
 736 1027 628 867 628 676 c 4
 628 453 754 302 984 302 c 4
 1087 302 1274 391 1274 511 c 4
 1274 525 1269 538 1263 551 c 5
 1296 568 l 5
 1315 532 1344 521 1383 518 c 4
 1518 509 1660 491 1795 491 c 4
 1829 491 1860 502 1887 522 c 5
 1903 501 l 5
 1870 476 1859 446 1849 407 c 4
 1774.69719229 94.9282075999 1379.99459934 -33.3749621829 1039.57876022 -50.6601213039 c 5
 1022.89941406 -93 l 5
 1184.89941406 -118 1287.89941406 -182 1287.89941406 -312 c 4
 1287.89941406 -479 1167.89941406 -530 1034.89941406 -530 c 4
 951.899414062 -530 861.899414062 -511 792.899414062 -489 c 5
 813.899414062 -358 l 5
 813.899414062 -358 905.899414062 -391 962.899414062 -391 c 4
 1060.89941406 -391 1076.89941406 -329 1076.89941406 -293 c 4
 1076.89941406 -261 1051.89941406 -176 903.899414062 -176 c 4
 890.899414062 -176 878.899414062 -176 864.899414062 -177 c 5
 864.899414062 -50.1165471947 l 5
 388.745575067 -23.2658142911 78 212.224687367 78 679 c 4
EndSplineSet
EndChar

StartChar: cedilla
Encoding: 184 184 14
Width: 644
VWidth: 1658
Flags: HW
LayerCount: 2
Fore
SplineSet
159 -150 m 1
 159 0 l 1
 343 0 l 1
 317 -66 l 1
 479 -91 582 -155 582 -285 c 0
 582 -452 462 -503 329 -503 c 0
 246 -503 156 -484 87 -462 c 1
 108 -331 l 1
 108 -331 200 -364 257 -364 c 0
 355 -364 371 -302 371 -266 c 0
 371 -234 346 -149 198 -149 c 0
 185 -149 173 -149 159 -150 c 1
EndSplineSet
EndChar

StartChar: D
Encoding: 68 68 15
Width: 1968
VWidth: 1658
Flags: HW
LayerCount: 2
Fore
SplineSet
709 -105 m 0
 709 28 514 42 395 42 c 0
 324 42 299 15 299 -76 c 0
 299 -180 335 -289 335 -392 c 0
 335 -424 325 -454 288 -454 c 0
 254 -454 245 -425 245 -396 c 0
 245 -275 273 -155 273 -35 c 0
 273 -15 266 50 236 50 c 0
 214 50 212 6 212 -7 c 0
 212 -62 236 -117 236 -173 c 0
 236 -202 229 -232 194 -232 c 0
 158 -232 151 -201 151 -172 c 0
 151 -111 174 -50 174 12 c 0
 174 39 173 138 173 178 c 2
 173 1251 l 2
 173 1289 162 1324 134 1351 c 1
 154 1372 l 1
 182 1345 216 1332 254 1332 c 2
 1080 1332 l 2
 1508 1332 1862 1171 1862 693 c 0
 1862 28 1464 0 958 0 c 2
 813 0 l 2
 729 0 729 -103 729 -120 c 0
 729 -164 745 -204 745 -248 c 0
 745 -266 741 -286 719 -286 c 0
 696 -286 688 -267 688 -247 c 0
 688 -199 709 -153 709 -105 c 0
1326 698 m 0
 1326 1132 787 921 670 1036 c 1
 650 1016 l 1
 678 989 688 954 688 916 c 2
 688 686 l 2
 688 571 688 456 690 342 c 1
 917 342 l 2
 1191 342 1326 395 1326 698 c 0
719 -647 m 0
 693 -647 685 -622 685 -600 c 0
 685 -538 705 -478 718 -418 c 1
 732 -477 752 -537 752 -598 c 0
 752 -619 745 -647 719 -647 c 0
EndSplineSet
EndChar

StartChar: E
Encoding: 69 69 16
Width: 1792
VWidth: 1658
Flags: W
HStem: 2 130<668.004 720.996> 60 277<1401.03 1572.62> 486 360<671.917 1279.44> 508 315<875.562 1465.42> 985 345<672.346 1388.22> 1008 322<906.781 1606.26>
VStem: 104 158<-798.518 -426.245> 165 1442<1037.71 1327.68> 165 522<169.875 514.296 816.273 1014.77> 170 46<-424.307 -70.4373> 1314 98<-550.598 -175.893> 1332 39<-306.611 -40.4629> 1589 89<-416.981 -120.293> 1605 36<-174.104 -11.801>
LayerCount: 2
Fore
SplineSet
762 338 m 2xa080
 1578 337 l 2
 1615 337 1651 349 1677 376 c 1
 1697 356 l 1
 1646 262 1641 93 1641 -17 c 0x4084
 1641 -103 1678 -255 1678 -347 c 0
 1678 -392 1656 -417 1634 -417 c 0
 1612 -417 1589 -391 1589 -338 c 0x4008
 1589 -273 1605 -187 1605 -117 c 0
 1605 5 1557 60 1490 60 c 0
 1397 60 1371 -18 1371 -119 c 0x4014
 1371 -245 1412 -404 1412 -486 c 0
 1412 -529 1387 -551 1362 -551 c 0
 1338 -551 1314 -530 1314 -490 c 0x4020
 1314 -404 1332 -275 1332 -171 c 0
 1332 -73 1316 4 1257 4 c 0
 1235 4 1211 2 1181 2 c 2
 395 2 l 2
 238 2 216 -61 216 -258 c 0x8050
 216 -407 262 -552 262 -700 c 0
 262 -751 247 -807 186 -807 c 0
 121 -807 104 -751 104 -697 c 0x82
 104 -546 170 -403 170 -252 c 0x8040
 170 -140 165 -29 165 83 c 2x8080
 165 1249 l 2
 165 1286 154 1322 127 1348 c 1
 147 1369 l 1
 174 1343 210 1330 247 1330 c 2
 1531 1330 l 2
 1568 1330 1604 1342 1631 1369 c 1
 1651 1348 l 1
 1603 1300 1607 1199 1607 1131 c 0
 1607 1078 1611 1014 1651 976 c 1
 1631 957 l 1
 1582 1007 1461 1008 1396 1008 c 0x85
 1230 1008 1065 985 899 985 c 0
 834 985 714 986 665 1036 c 1
 644 1016 l 1
 671 990 683 954 683 917 c 0
 683 879 672 842 644 815 c 1
 665 796 l 1
 711 844 806 846 867 846 c 0x29
 1007 846 1146 823 1286 823 c 0
 1349 823 1443 825 1491 873 c 1
 1512 853 l 1
 1472 813 1468 733 1468 669 c 0
 1468 608 1464 529 1512 479 c 1
 1491 458 l 1
 1445 506 1349 508 1288 508 c 0x11
 1148 508 1009 486 869 486 c 0
 807 486 712 489 665 536 c 1
 645 516 l 1
 680 480 687 422 687 366 c 0
 687 338 685 311 685 288 c 0
 685 248 668 208 668 168 c 0
 668 149 673 132 695 132 c 0
 715 132 721 148 721 166 c 0
 721 207 705 249 705 290 c 2
 705 301 l 1
 717 322 737 338 762 338 c 2xa080
EndSplineSet
EndChar

StartChar: F
Encoding: 70 70 21
Width: 1765
VWidth: 1658
Flags: HW
LayerCount: 2
Fore
SplineSet
716 -120 m 0
 716 -62 669 0 608 0 c 0
 513 0 508 -164 508 -243 c 0
 508 -358 538 -471 538 -586 c 0
 538 -616 524 -652 489 -652 c 0
 453 -652 437 -614 437 -583 c 0
 437 -475 472 -371 472 -263 c 0
 472 -171 452 21 324 21 c 0
 250 21 191 -48 191 -119 c 0
 191 -164 219 -204 219 -249 c 0
 219 -269 211 -293 187 -293 c 0
 161 -293 154 -271 154 -249 c 0
 154 -195 178 -143 178 -89 c 2
 177 1184 l 2
 177 1255 153 1328 105 1381 c 1
 125 1401 l 1
 179 1353 251 1330 322 1330 c 2
 1476 1330 l 2
 1547 1330 1619 1353 1673 1401 c 1
 1693 1381 l 1
 1645 1327 1622 1255 1622 1184 c 0
 1622 1090 1628 1014 1693 940 c 1
 1673 920 l 1
 1642 962 1593 991 1541 991 c 2
 782 991 l 2
 746 991 712 1004 686 1029 c 1
 667 1010 l 1
 692 984 705 950 705 914 c 0
 705 878 692 842 667 816 c 1
 686 797 l 1
 736 845 812 847 876 847 c 0
 1003 847 1129 826 1256 826 c 0
 1356 826 1467 835 1543 907 c 1
 1563 887 l 1
 1501 819 1488 728 1488 640 c 0
 1488 569 1507 495 1557 443 c 1
 1536 423 l 1
 1457 493 1344 504 1242 504 c 0
 1117 504 993 483 868 483 c 0
 805 483 729 485 681 533 c 1
 662 513 l 1
 688 486 699 449 699 413 c 0
 699 345 691 277 691 209 c 0
 691 99 744 -6 744 -116 c 0
 744 -211 778 -303 778 -398 c 0
 778 -430 768 -463 730 -463 c 0
 692 -463 681 -431 681 -399 c 0
 681 -305 716 -214 716 -120 c 0
EndSplineSet
EndChar

StartChar: G
Encoding: 71 71 22
Width: 1991
VWidth: 1658
Flags: HW
LayerCount: 2
Fore
SplineSet
1132 -44 m 1
 1132 -140 l 2
 1132 -179 1148 -212 1148 -251 c 0
 1148 -285 1131 -301 1115 -301 c 0
 1100 -301 1083 -286 1083 -255 c 0
 1083 -250 1099 -181 1099 -142 c 0
 1099 -55 1096 -44 1090 -44 c 0
 966 -44 806 -33 678 -17 c 0
 673 -16 669 -71 669 -175 c 0
 669 -292 706 -410 706 -527 c 0
 706 -563 692 -607 649 -607 c 0
 612 -607 583 -574 583 -538 c 0
 583 -405 649 -300 649 -166 c 2
 649 -10 l 1
 257 78 78 323 78 679 c 0
 78 1189 467 1375 926 1375 c 0
 1510 1375 1770 1153 1827 962 c 0
 1839 922 1858 893 1891 870 c 1
 1876 850 l 1
 1843 874 1809 880 1768 880 c 1
 1346 866 l 2
 1304 864 1279 854 1261 818 c 1
 1228 834 l 1
 1234 847 1236 858 1236 870 c 0
 1236 890 1226 909 1210 931 c 0
 1156 1002 1092 1033 934 1033 c 0
 712 1033 626 869 626 685 c 0
 626 443 773 292 1019 292 c 0
 1141 292 1217 303 1261 314 c 0
 1269 316 1277 318 1284 318 c 0
 1300 318 1316 311 1338 294 c 1
 1350 310 l 1
 1318 335 1312 353 1312 380 c 2
 1312 388 l 2
 1312 415 1319 435 1348 464 c 1
 1334 477 l 1
 1305 448 1286 441 1259 441 c 2
 1162 441 l 2
 1122 441 1091 431 1062 402 c 1
 1041 423 l 1
 1070 452 1081 482 1081 522 c 2
 1081 670 l 2
 1081 710 1070 741 1041 770 c 1
 1062 790 l 1
 1091 761 1122 752 1162 752 c 2
 1776 752 l 2
 1816 752 1847 761 1876 790 c 1
 1895 770 l 1
 1866 741 1857 710 1857 670 c 2
 1857 251 l 2
 1857 212 1864 189 1900 169 c 1
 1884 140 l 1
 1870 147 1858 149 1845 149 c 0
 1827 149 1812 143 1792 130 c 0
 1617 13 1379 -33 1132 -44 c 1
EndSplineSet
EndChar

StartChar: H
Encoding: 72 72 23
Width: 1960
VWidth: 1658
Flags: W
HStem: -39 21G<1226 1260 1785 1819> 39 1293<224.658 517.433> 498 341<671.317 1278.68>
VStem: 103 123<-518.274 -222.941> 168 529<824.425 1197.52> 168 514<974.429 1330.76> 168 19<-171.313 -43.8092> 586 112<-788.15 -253.115> 626 26<-354.143 -111.542> 1257 523<0.215393 514.684 824.521 1198.62> 1273 507<977.429 1331.06>
LayerCount: 2
Fore
SplineSet
1699 0 m 2xc040
 1346 0 l 2
 1308 0 1274 -11 1246 -39 c 1
 1226 -19 l 1
 1254 9 1264 43 1264 81 c 2
 1262 417 l 2
 1262 455 1273 488 1300 516 c 1
 1280 536 l 1
 1252 508 1218 498 1180 498 c 2
 770 498 l 2
 732 498 698 509 670 536 c 1
 650 516 l 1
 653 481 652 388 652 274 c 2
 652 -177 l 2xa0c0
 652 -358 698 -512 698 -693 c 0
 698 -759 671 -790 642 -790 c 0
 614 -790 586 -759 586 -697 c 0xa1
 586 -671 626 -361 626 -180 c 0
 626 -35 479 39 359 39 c 0
 267 39 187 -5 187 -91 c 0xc280
 187 -208 226 -326 226 -443 c 0xd0
 226 -479 211 -522 168 -522 c 0xc2
 131 -522 103 -490 103 -454 c 0xd0
 103 -321 168 -215 168 -81 c 2xc2
 168 1251 l 2
 168 1289 158 1324 130 1351 c 1
 149 1372 l 1
 177 1345 211 1332 249 1332 c 2
 608 1332 l 2
 646 1332 679 1344 707 1372 c 1
 728 1351 l 1
 692 1315 682 1262 682 1201 c 0xc4
 682 1127 697 1044 697 971 c 0
 697 910 686 857 650 821 c 1
 670 800 l 1
 698 828 732 839 770 839 c 2
 1184 839 l 2
 1222 839 1256 828 1283 800 c 1
 1304 821 l 1
 1268 858 1257 913 1257 974 c 0xa840
 1257 1047 1273 1130 1273 1202 c 0
 1273 1263 1262 1315 1226 1351 c 1
 1246 1372 l 1
 1274 1345 1308 1332 1346 1332 c 2
 1699 1332 l 2
 1737 1332 1771 1344 1799 1372 c 1
 1819 1351 l 1
 1791 1323 1780 1289 1780 1251 c 2xc020
 1780 81 l 2
 1780 43 1792 9 1819 -19 c 1
 1799 -39 l 1
 1771 -11 1737 0 1699 0 c 2xc040
EndSplineSet
EndChar

StartChar: I
Encoding: 73 73 24
Width: 882
VWidth: 1658
Flags: W
HStem: 50 1282<302.797 576.477>
VStem: 139 102<-496.565 -201.606> 170 41<-331.441 -93.5184> 177 524<51.7026 1330.64> 638 81<-634.295 -298.988> 649 34<-295 -85.0665>
LayerCount: 2
Fore
SplineSet
649 -273 m 0x84
 649 -107 643 50 434 50 c 0
 296 50 211 -68 211 -198 c 0xa4
 211 -275 241 -348 241 -425 c 0
 241 -459 232 -497 191 -497 c 0
 150 -497 139 -462 139 -427 c 0xc0
 139 -348 170 -271 170 -192 c 0xa0
 170 -103 177 -13 177 76 c 2
 177 1251 l 2
 177 1288 165 1325 138 1351 c 1
 158 1372 l 1
 185 1346 221 1332 258 1332 c 2
 620 1332 l 2
 657 1332 693 1345 720 1372 c 1
 740 1351 l 1
 713 1324 701 1288 701 1251 c 2
 701 81 l 2x90
 701 -44 676 -169 683 -295 c 1x84
 682 -295 l 1
 701 -380 719 -470 719 -556 c 0
 719 -578 718 -635 686 -635 c 0
 638 -635 638 -573 638 -539 c 0x88
 638 -450 649 -362 649 -273 c 0x84
EndSplineSet
EndChar

StartChar: J
Encoding: 74 74 29
Width: 1650
VWidth: 1658
Flags: HW
LayerCount: 2
Fore
SplineSet
1196 22 m 1
 1195 22 l 1
 1195 -195 l 2
 1195 -264 1228 -331 1228 -400 c 0
 1228 -429 1217 -454 1185 -454 c 0
 1154 -454 1148 -428 1148 -403 c 0
 1148 -340 1174 -279 1174 -216 c 0
 1174 -95 1026 -29 922 -29 c 0
 872 -29 850 -72 850 -117 c 0
 850 -211 886 -298 886 -392 c 0
 886 -415 876 -457 846 -457 c 0
 813 -457 804 -410 804 -385 c 0
 804 -288 828 -192 828 -95 c 0
 828 -48 774 -21 734 -21 c 0
 694 -21 690 -101 690 -130 c 0
 690 -183 710 -235 710 -288 c 0
 710 -308 703 -364 674 -364 c 0
 646 -364 644 -307 644 -290 c 0
 644 -228 672 -169 672 -107 c 0
 672 -62 654 -42 608 -36 c 0
 -100 68 136 490 22 587 c 1
 31 597 l 1
 45 584 63 570 83 570 c 0
 205 570 352 606 474 622 c 0
 512 626 545 643 569 673 c 1
 591 656 l 1
 570 630 559 599 559 566 c 0
 559 436 609 297 760 297 c 0
 908 297 983 390 983 532 c 2
 984 1251 l 2
 984 1289 974 1324 946 1351 c 1
 966 1372 l 1
 994 1344 1028 1332 1066 1332 c 2
 1414 1332 l 2
 1452 1332 1487 1344 1514 1372 c 1
 1534 1351 l 1
 1506 1324 1495 1289 1495 1251 c 2
 1495 473 l 2
 1495 259 1394 104 1196 22 c 1
1192 -814 m 0
 1172 -814 1167 -794 1167 -778 c 0
 1167 -717 1178 -647 1192 -587 c 1
 1206 -646 1217 -716 1217 -777 c 0
 1217 -792 1212 -814 1192 -814 c 0
EndSplineSet
EndChar

StartChar: K
Encoding: 75 75 30
Width: 1978
VWidth: 1658
Flags: HW
LayerCount: 2
Fore
SplineSet
754 915 m 2
 1131 1276 l 2
 1160 1304 1170 1326 1156 1364 c 1
 1191 1377 l 1
 1206 1340 1230 1332 1270 1332 c 2
 1772 1332 l 2
 1812 1332 1850 1340 1888 1354 c 1
 1893 1340 l 1
 1855 1326 1822 1306 1792 1279 c 2
 1386 926 l 2
 1356 899 1327 888 1287 893 c 1
 1283 862 l 1
 1323 858 1349 839 1371 806 c 2
 1889 67 l 2
 1911 34 1939 8 1975 -11 c 1
 1966 -27 l 1
 1930 -8 1894 0 1854 0 c 2
 1371 0 l 2
 1331 0 1306 -9 1287 -45 c 1
 1255 -28 l 1
 1275 8 1267 34 1245 68 c 2
 959 490 l 2
 937 524 928 556 933 596 c 1
 906 599 l 1
 901 559 883 532 851 506 c 1
 759 427 l 1
 727 401 704 392 667 409 c 1
 651 376 l 1
 687 358 696 334 696 294 c 2
 696 81 l 2
 696 41 706 10 735 -19 c 1
 715 -39 l 1
 686 -10 655 0 615 0 c 2
 268 0 l 2
 228 0 197 -10 168 -39 c 1
 148 -19 l 1
 177 10 187 41 187 81 c 2
 187 1251 l 2
 187 1291 177 1322 148 1351 c 1
 168 1372 l 1
 197 1343 228 1332 268 1332 c 2
 615 1332 l 2
 655 1332 686 1343 715 1372 c 1
 735 1351 l 1
 706 1322 696 1291 696 1251 c 2
 696 940 l 2
 696 900 688 862 672 825 c 1
 687 819 l 1
 703 856 725 887 754 915 c 2
EndSplineSet
EndChar

StartChar: L
Encoding: 76 76 31
Width: 1672
VWidth: 1658
Flags: W
HStem: -39 21G<1578.5 1613> 0 357<680.822 1147 1201 1363.13> 0 333<902.87 1147 1201 1567.85>
VStem: 118 123<-694.577 -305.04> 172 519<328.316 1330.76> 172 21<-310.531 -124.094> 1140 68<-484.98 -265.541 -92.9825 0>
LayerCount: 2
Fore
SplineSet
673 306 m 1xaa
 712 345 795 357 896 357 c 0xca
 1042 357 1224 333 1370 333 c 0
 1471 333 1552 344 1592 384 c 1
 1613 364 l 1
 1585 337 1573 302 1573 264 c 0
 1573 228 1569 181 1569 134 c 0
 1569 76 1577 17 1613 -19 c 1
 1592 -39 l 1
 1565 -11 1530 0 1492 0 c 2xaa
 1201 0 l 1
 1202 -14 1202 -25 1202 -37 c 0
 1202 -72 1196 -93 1174 -93 c 0
 1151 -93 1146 -69 1146 -30 c 0
 1146 -21 1146 -11 1147 0 c 1xca
 252 0 l 2
 215 0 193 -187 193 -209 c 0xa6
 193 -345 241 -478 241 -614 c 0
 241 -654 231 -697 182 -697 c 0
 130 -697 118 -655 118 -611 c 0xb2
 118 -471 172 -334 172 -194 c 2xa6
 171 1251 l 2
 171 1289 159 1324 131 1351 c 1
 152 1372 l 1
 180 1345 214 1332 252 1332 c 2
 610 1332 l 2
 648 1332 683 1344 710 1372 c 1
 731 1351 l 1
 703 1324 691 1289 691 1251 c 2
 691 426 l 2
 691 388 680 355 652 327 c 1
 673 306 l 1xaa
1174 -485 m 0
 1147 -485 1140 -458 1140 -436 c 0
 1140 -383 1161 -315 1174 -263 c 1
 1187 -317 1208 -384 1208 -438 c 0
 1208 -460 1201 -485 1174 -485 c 0
EndSplineSet
EndChar

StartChar: M
Encoding: 77 77 32
Width: 2417
VWidth: 1658
Flags: HW
LayerCount: 2
Fore
SplineSet
1033 -52 m 0
 1033 -88 1045 -125 1045 -161 c 0
 1045 -179 1041 -198 1020 -198 c 0
 997 -198 991 -178 991 -158 c 0
 991 -96 1009 -35 1009 29 c 0
 1009 188 732 724 687 976 c 1
 632 976 l 1
 662 936 674 896 674 856 c 2
 674 -132 l 2
 674 -177 694 -250 694 -300 c 0
 694 -332 686 -353 657 -353 c 0
 629 -353 622 -333 622 -302 c 0
 622 -255 644 -183 644 -138 c 0
 644 -70 625 -46 374 -46 c 0
 288 -46 212 -47 212 -48 c 0
 212 -63 217 -165 217 -180 c 0
 217 -196 206 -203 194 -203 c 0
 182 -203 171 -196 171 -182 c 0
 171 -164 177 -58 177 -43 c 2
 177 1186 l 2
 177 1262 155 1328 105 1383 c 1
 126 1404 l 1
 182 1355 247 1332 323 1332 c 2
 834 1332 l 2
 910 1332 982 1355 1022 1408 c 1
 1048 1389 l 1
 1017 1344 997 1296 997 1238 c 0
 997 1092 1201 861 1202 670 c 1
 1216 670 l 1
 1217 863 1419 1090 1419 1237 c 0
 1419 1295 1400 1344 1369 1389 c 1
 1395 1408 l 1
 1435 1355 1507 1332 1583 1332 c 2
 2095 1332 l 2
 2171 1332 2236 1354 2292 1404 c 1
 2312 1383 l 1
 2262 1327 2241 1262 2241 1186 c 2
 2241 81 l 2
 2241 44 2240 8 2239 -19 c 1
 2219 -39 l 1
 2205 -12 2181 0 2160 0 c 2
 1823 0 l 2
 1791 0 1765 -49 1765 -77 c 0
 1765 -119 1782 -159 1782 -201 c 0
 1782 -218 1775 -237 1755 -237 c 0
 1732 -237 1730 -212 1730 -194 c 0
 1730 -157 1744 -121 1744 -83 c 2
 1742 81 l 1
 1742 856 l 2
 1742 896 1756 937 1786 977 c 1
 1731 977 l 1
 1683 737 1408 180 1408 29 c 1
 1410 -191 l 2
 1411 -264 1443 -334 1443 -407 c 0
 1443 -436 1435 -464 1400 -464 c 0
 1365 -464 1355 -436 1355 -406 c 0
 1355 -330 1391 -257 1391 -181 c 0
 1391 -7 1286 56 1191 56 c 0
 1108 56 1033 10 1033 -52 c 0
EndSplineSet
EndChar

StartChar: N
Encoding: 78 78 33
Width: 2009
VWidth: 1658
Flags: HW
LayerCount: 2
Fore
SplineSet
1741 0 m 2
 1346 0 l 2
 1268 0 1262 -95 1262 -153 c 0
 1262 -278 1309 -394 1309 -516 c 0
 1309 -559 1297 -603 1245 -603 c 0
 1193 -603 1179 -559 1179 -515 c 0
 1179 -405 1228 -302 1231 -191 c 1
 1233 -58 l 2
 1234 -28 1233 39 1214 63 c 2
 735 670 l 2
 718 692 701 746 693 774 c 1
 632 772 l 1
 663 740 684 697 684 652 c 2
 684 81 l 2
 684 -87 703 -257 703 -425 c 0
 703 -445 690 -464 668 -464 c 0
 645 -464 629 -442 629 -420 c 0
 629 -292 641 -164 641 -36 c 0
 641 -20 628 -4 611 -4 c 0
 593 -4 585 -22 585 -37 c 0
 585 -131 612 -219 612 -313 c 0
 612 -335 604 -376 575 -376 c 0
 544 -376 537 -333 537 -310 c 0
 537 -219 561 -130 561 -39 c 0
 561 30 432 47 381 47 c 0
 323 47 205 32 205 -45 c 0
 205 -145 251 -237 251 -337 c 0
 251 -371 234 -413 194 -413 c 0
 154 -413 136 -371 136 -337 c 0
 136 -236 185 -141 185 -40 c 2
 184 1186 l 2
 184 1259 162 1328 112 1383 c 1
 133 1404 l 1
 188 1355 257 1332 330 1332 c 2
 629 1332 l 2
 700 1332 770 1341 809 1409 c 1
 842 1393 l 1
 827 1357 816 1316 816 1276 c 0
 816 1185 1251 783 1316 602 c 1
 1376 602 l 1
 1336 661 1327 736 1327 805 c 0
 1327 927 1357 1048 1357 1170 c 0
 1357 1256 1338 1343 1253 1383 c 1
 1274 1404 l 1
 1329 1355 1398 1332 1471 1332 c 2
 1676 1332 l 2
 1749 1332 1818 1355 1873 1404 c 1
 1893 1383 l 1
 1844 1328 1822 1259 1822 1186 c 2
 1820 -35 l 2
 1820 -121 1860 -206 1860 -292 c 0
 1860 -326 1851 -356 1811 -356 c 0
 1771 -356 1762 -326 1762 -292 c 0
 1762 -208 1800 -129 1800 -45 c 0
 1800 -18 1764 0 1741 0 c 2
EndSplineSet
EndChar

StartChar: tilde
Encoding: 732 732 35
Width: 1355
VWidth: 1658
Flags: HW
LayerCount: 2
Fore
SplineSet
434 1554 m 0
 628 1554 782 1438 858 1438 c 0
 893 1438 912 1460 912 1528 c 1
 1259 1526 l 1
 1260 1501 1261 1476 1261 1454 c 0
 1261 1156 1143 1073 985 1073 c 0
 730 1073 585 1195 518 1195 c 0
 488 1195 474 1170 474 1094 c 1
 127 1097 l 1
 124 1126 124 1153 124 1180 c 0
 124 1471 261 1554 434 1554 c 0
EndSplineSet
EndChar

StartChar: O
Encoding: 79 79 36
Width: 1986
VWidth: 1658
Flags: HW
LayerCount: 2
Fore
SplineSet
552 12 m 1
 233 113 76 347 76 677 c 0
 76 1217 515 1375 981 1375 c 0
 1447 1375 1885 1218 1885 677 c 0
 1885 236 1617 17 1199 -34 c 1
 1196 -39 1195 -47 1195 -56 c 0
 1195 -75 1200 -97 1200 -111 c 0
 1200 -127 1194 -162 1171 -162 c 0
 1149 -162 1144 -138 1144 -113 c 0
 1144 -91 1147 -69 1147 -57 c 0
 1147 -35 1122 -27 1104 -27 c 1
 1100 -36 1100 -47 1100 -61 c 0
 1100 -93 1105 -136 1105 -158 c 0
 1105 -187 1096 -244 1057 -244 c 0
 1019 -244 1011 -205 1011 -162 c 0
 1011 -125 1018 -85 1018 -66 c 0
 1018 -29 973 -14 943 -14 c 0
 909 -14 870 -32 870 -72 c 2
 870 -302 l 2
 870 -403 912 -495 912 -596 c 0
 912 -635 890 -683 845 -683 c 0
 798 -683 781 -631 781 -592 c 0
 781 -480 827 -374 827 -254 c 0
 827 -181 823 -7 735 -7 c 0
 720 -7 611 -7 611 3 c 2
 611 1 l 2
 611 -136 672 -267 672 -403 c 0
 672 -456 651 -526 586 -526 c 0
 525 -526 494 -463 494 -410 c 0
 494 -268 552 -132 552 12 c 1
633 676 m 0
 633 442 740 310 981 310 c 0
 1222 310 1329 442 1329 676 c 0
 1329 900 1204 1022 981 1022 c 0
 758 1022 633 900 633 676 c 0
EndSplineSet
EndChar

StartChar: OE
Encoding: 338 338 37
Width: 2748
VWidth: 1658
Flags: HW
LayerCount: 2
Fore
SplineSet
82 677 m 0
 82 1156 465 1334 986 1333 c 2
 2482 1332 l 2
 2522 1332 2552 1342 2581 1371 c 1
 2602 1350 l 1
 2573 1321 2563 1291 2563 1251 c 2
 2563 1076 l 2
 2563 1036 2573 1005 2602 976 c 1
 2581 957 l 1
 2552 986 2522 995 2482 995 c 2
 1835 995 l 2
 1795 995 1765 1005 1736 1034 c 1
 1715 1014 l 1
 1744 985 1754 956 1754 916 c 2
 1754 914 l 2
 1754 874 1744 844 1715 815 c 1
 1736 796 l 1
 1765 825 1795 834 1835 834 c 2
 2343 834 l 2
 2383 834 2414 844 2443 873 c 1
 2462 853 l 1
 2433 824 2424 793 2424 753 c 2
 2424 579 l 2
 2424 539 2433 508 2462 479 c 1
 2443 458 l 1
 2414 487 2383 498 2343 498 c 2
 1833 498 l 2
 1794 498 1765 507 1736 536 c 1
 1716 516 l 1
 1745 487 1754 458 1754 418 c 0
 1754 379 1744 349 1715 320 c 1
 1736 301 l 1
 1765 330 1793 338 1833 338 c 2
 2528 337 l 2
 2568 337 2599 347 2628 376 c 1
 2648 356 l 1
 2619 327 2609 296 2609 256 c 2
 2609 83 l 2
 2609 43 2619 12 2648 -17 c 1
 2628 -37 l 1
 2599 -8 2568 2 2528 2 c 2
 986 -1 l 2
 604 -1 82 91 82 677 c 0
1155 1022 m 0
 1106 1023 1043 1022 986 1022 c 0
 777 1022 638 915 638 676 c 0
 638 442 742 310 986 310 c 0
 1045 310 1107 311 1155 311 c 1
 1195 312 1226 303 1255 274 c 1
 1276 294 l 1
 1247 323 1237 353 1237 393 c 2
 1237 940 l 2
 1237 980 1247 1011 1276 1040 c 1
 1255 1060 l 1
 1226 1031 1195 1022 1155 1022 c 0
EndSplineSet
EndChar

StartChar: P
Encoding: 80 80 43
Width: 1901
VWidth: 1658
Flags: HW
LayerCount: 2
Fore
SplineSet
1328 480 m 2
 777 480 l 2
 737 480 706 489 677 518 c 1
 656 499 l 1
 685 470 696 439 696 399 c 2
 696 81 l 2
 696 5 695 -52 694 -108 c 1
 649 -112 l 1
 640 -33 629 0 615 0 c 2
 257 0 l 2
 250 0 230 -41 230 -144 c 0
 230 -229 268 -357 268 -443 c 0
 268 -497 253 -535 203 -535 c 0
 151 -535 134 -497 134 -441 c 0
 134 -350 178 -214 178 -122 c 0
 178 -62 176 -2 176 81 c 2
 176 1255 l 2
 176 1295 167 1325 138 1354 c 1
 158 1374 l 1
 187 1345 217 1336 257 1336 c 2
 1120 1336 l 2
 1415 1336 1812 1327 1812 931 c 0
 1812 672 1697 480 1328 480 c 2
696 921 m 2
 696 862 l 2
 696 822 685 792 656 763 c 1
 677 742 l 1
 706 771 737 781 777 781 c 2
 1101 781 l 2
 1202 781 1280 784 1280 895 c 0
 1280 1001 1163 1002 1105 1002 c 2
 777 1002 l 2
 737 1002 706 1011 677 1040 c 1
 656 1021 l 1
 685 992 696 961 696 921 c 2
429 81 m 1
 474 28 l 1
 470 28 456 0 456 -68 c 0
 456 -136 482 -237 482 -305 c 0
 482 -341 471 -366 439 -366 c 0
 404 -366 393 -341 393 -304 c 0
 393 -232 430 -125 430 -52 c 0
 430 -12 429 27 429 81 c 1
EndSplineSet
EndChar

StartChar: Q
Encoding: 81 81 44
Width: 2032
VWidth: 1658
Flags: HW
LayerCount: 2
Fore
SplineSet
83 701 m 0
 83 1209 466 1400 987 1400 c 0
 1508 1400 1892 1209 1892 701 c 0
 1892 507 1842 372 1748 270 c 0
 1720 240 1692 223 1652 219 c 1
 1655 193 l 1
 1695 197 1727 188 1760 166 c 2
 1887 80 l 2
 1921 58 1954 47 1994 50 c 1
 1996 25 l 1
 1956 22 1924 8 1894 -19 c 2
 1710 -177 l 2
 1680 -204 1665 -230 1668 -270 c 1
 1636 -272 l 1
 1632 -232 1615 -209 1581 -187 c 2
 1327 -22 l 2
 1293 0 1277 18 1285 58 c 1
 1248 67 l 1
 1239 27 1217 17 1177 12 c 1
 1112 2 1049 -4 987 -4 c 0
 605 -4 83 94 83 701 c 0
636 706 m 0
 636 473 745 342 989 342 c 0
 1233 342 1341 473 1341 706 c 0
 1341 946 1198 1053 989 1053 c 0
 780 1053 636 946 636 706 c 0
EndSplineSet
EndChar

StartChar: R
Encoding: 82 82 45
Width: 2066
VWidth: 1658
Flags: HW
LayerCount: 2
Fore
SplineSet
1790 -121 m 0
 1790 173 1291 215 1291 -24 c 0
 1291 -114 1286 -202 1286 -292 c 0
 1286 -402 1320 -509 1320 -619 c 0
 1320 -657 1315 -716 1264 -716 c 0
 1214 -716 1210 -659 1210 -622 c 0
 1210 -505 1244 -391 1248 -274 c 0
 1252 -186 1251 -100 1251 -12 c 0
 1251 105 1127 253 1005 505 c 1
 975 522 l 1
 956 487 927 478 890 478 c 0
 863 478 835 475 806 475 c 0
 759 475 713 482 677 517 c 1
 656 497 l 1
 659 460 659 403 659 339 c 0
 659 262 658 172 658 94 c 0
 658 29 659 -29 662 -68 c 1
 662 -108 681 -173 681 -215 c 0
 681 -238 674 -256 652 -256 c 0
 631 -256 625 -240 625 -218 c 0
 625 -183 641 -130 641 -94 c 0
 641 -33 600 4 548 4 c 0
 495 4 438 -39 438 -145 c 0
 438 -237 482 -350 482 -441 c 0
 482 -497 465 -535 413 -535 c 0
 363 -535 348 -497 348 -443 c 0
 348 -357 387 -229 387 -144 c 0
 387 -24 337 21 288 21 c 0
 245 21 203 -16 203 -68 c 0
 203 -136 230 -237 230 -305 c 0
 230 -341 218 -366 186 -366 c 0
 151 -366 140 -341 140 -304 c 0
 140 -232 178 -125 178 -52 c 1
 176 11 176 44 176 1255 c 0
 176 1293 166 1327 138 1354 c 1
 158 1374 l 1
 186 1347 219 1336 257 1336 c 2
 1153 1336 l 2
 1449 1336 1845 1326 1845 931 c 0
 1845 740 1777 549 1504 549 c 1
 1496 526 l 1
 1526 514 1566 487 1580 457 c 0
 1636 335 1685 221 1789 130 c 0
 1849 78 1912 64 1976 25 c 0
 1981 21 1986 18 1986 11 c 0
 1986 -180 2040 -322 2040 -474 c 0
 2040 -503 2031 -572 1990 -572 c 0
 1948 -572 1940 -502 1940 -473 c 0
 1940 -348 1966 -225 1966 -100 c 0
 1966 -44 1955 25 1885 25 c 0
 1836 25 1806 12 1806 -40 c 0
 1806 -138 1842 -232 1842 -326 c 0
 1842 -351 1834 -377 1804 -377 c 0
 1775 -377 1768 -351 1768 -328 c 0
 1768 -259 1790 -190 1790 -121 c 0
696 921 m 2
 696 854 l 2
 696 816 684 782 656 754 c 1
 677 734 l 1
 712 770 778 778 855 778 c 0
 935 778 1028 769 1108 769 c 0
 1226 769 1320 790 1320 893 c 0
 1320 987 1223 1004 1102 1004 c 0
 1026 1004 942 997 866 997 c 0
 784 997 713 1005 677 1040 c 1
 656 1021 l 1
 684 994 696 959 696 921 c 2
EndSplineSet
EndChar

StartChar: S
Encoding: 83 83 46
Width: 1887
VWidth: 1658
Flags: HW
LayerCount: 2
Fore
SplineSet
1786 482 m 0
 1786 114 1394 3 1066 3 c 0
 1042 3 1018 2 995 4 c 1
 936 4 941 -71 941 -103 c 0
 941 -157 968 -209 968 -261 c 0
 968 -283 959 -314 931 -314 c 0
 904 -314 891 -286 891 -263 c 0
 891 -205 916 -148 916 -89 c 0
 916 -33 916 10 861 10 c 0
 801 10 794 -46 794 -98 c 0
 794 -140 800 -169 800 -262 c 0
 800 -298 797 -328 783 -328 c 0
 764 -328 762 -306 762 -292 c 0
 762 -258 772 -225 772 -191 c 2
 772 -4 l 1
 494 9 200 65 115 338 c 0
 102 381 81 413 48 436 c 1
 63 457 l 1
 93 437 126 427 165 427 c 0
 274 427 491 442 631 448 c 0
 681 451 709 460 722 499 c 1
 767 484 l 1
 764 476 764 469 764 463 c 0
 764 436 782 416 814 392 c 0
 866 352 937 346 1018 346 c 0
 1053 346 1174 354 1174 415 c 0
 1174 451 1146 472 1113 482 c 0
 833 567 104 491 104 939 c 0
 104 1327 544 1410 896 1410 c 0
 1165 1410 1583 1388 1703 1097 c 1
 1723 1055 1749 1023 1769 1002 c 1
 1756 979 l 1
 1727 999 1695 1008 1659 1008 c 2
 1646 1008 l 1
 1506 1002 1364 993 1224 986 c 0
 1175 983 1150 975 1139 936 c 1
 1095 948 l 1
 1097 954 1098 962 1098 967 c 0
 1098 1025 988 1070 876 1070 c 0
 831 1070 708 1071 708 1004 c 0
 708 922 1046 914 1204 891 c 0
 1446 855 1786 813 1786 482 c 0
EndSplineSet
EndChar

StartChar: caron
Encoding: 711 711 48
Width: 1007
VWidth: 1658
Flags: HW
LayerCount: 2
Fore
SplineSet
900 1453 m 2
 729 1193 l 2
 707 1159 699 1134 719 1098 c 1
 688 1082 l 1
 669 1118 643 1125 603 1125 c 2
 414 1125 l 2
 374 1125 348 1118 329 1082 c 1
 298 1098 l 1
 318 1134 310 1159 288 1193 c 2
 117 1453 l 2
 95 1487 68 1512 32 1531 c 1
 41 1548 l 1
 77 1528 114 1520 154 1520 c 2
 333 1520 l 2
 373 1520 401 1530 423 1563 c 1
 450 1544 l 1
 428 1510 429 1482 443 1445 c 2
 479 1351 l 2
 493 1314 501 1275 501 1235 c 1
 516 1235 l 1
 516 1275 523 1314 537 1351 c 2
 574 1445 l 2
 588 1482 589 1510 567 1544 c 1
 594 1563 l 1
 616 1530 644 1520 684 1520 c 2
 863 1520 l 2
 903 1520 939 1528 975 1548 c 1
 985 1531 l 1
 949 1512 922 1487 900 1453 c 2
EndSplineSet
EndChar

StartChar: T
Encoding: 84 84 49
Width: 1667
VWidth: 1658
Flags: W
HStem: 999 335<97.9579 582.347 1069.7 1562.45>
VStem: 532 79<-428.927 -193.952> 564 20<-243.771 -143.558> 921 82<-350.965 -95.1363> 928 50<-727.985 -508.078> 957 23<-164.726 -49.9844> 1041 82<-613.951 -122.776> 1068 18<-113.103 -32.2595>
LayerCount: 2
Fore
SplineSet
173 1334 m 2xa0
 1486 1334 l 2
 1524 1334 1558 1345 1586 1373 c 1
 1606 1353 l 1
 1578 1325 1568 1291 1568 1253 c 0
 1568 1217 1563 1171 1563 1125 c 0
 1563 1067 1570 1010 1606 974 c 1
 1586 953 l 1
 1551 989 1499 999 1440 999 c 0
 1371 999 1290 985 1219 985 c 0
 1158 985 1104 995 1068 1031 c 1
 1047 1011 l 1
 1075 984 1086 949 1086 911 c 2
 1086 81 l 2xa1
 1086 -127 1123 -331 1123 -540 c 0
 1123 -562 1114 -614 1082 -614 c 0
 1046 -614 1041 -546 1041 -522 c 0x82
 1041 -382 1068 -245 1068 -105 c 0
 1068 -80 1065 4 1025 4 c 0
 993 4 980 -45 980 -70 c 0x85
 980 -140 1003 -209 1003 -279 c 0
 1003 -303 995 -351 962 -351 c 0
 931 -351 921 -309 921 -286 c 0x90
 921 -220 957 -159 957 -92 c 0
 957 -25 895 -4 838 -4 c 0
 735 -4 584 -71 584 -191 c 0xa4
 584 -254 611 -315 611 -378 c 0
 611 -404 605 -429 574 -429 c 0
 541 -429 532 -404 532 -375 c 0xc0
 532 -306 564 -239 564 -170 c 2
 564 90 l 1
 565 364 566 637 566 911 c 0
 566 949 576 984 604 1011 c 1
 584 1031 l 1
 549 995 497 986 438 986 c 0
 370 986 291 999 223 999 c 0
 163 999 110 989 74 953 c 1
 54 974 l 1
 82 1002 92 1035 92 1073 c 0
 92 1107 97 1154 97 1201 c 0
 97 1259 90 1318 54 1353 c 1
 74 1373 l 1
 102 1346 135 1334 173 1334 c 2xa0
953 -728 m 0
 933 -728 928 -708 928 -692 c 0
 928 -652 945 -541 954 -502 c 1
 963 -542 978 -653 978 -693 c 0x88
 978 -710 973 -728 953 -728 c 0
EndSplineSet
EndChar

StartChar: U
Encoding: 85 85 50
Width: 1887
VWidth: 1658
Flags: HW
LayerCount: 2
Fore
SplineSet
1150 -37 m 1
 1150 -224 l 2
 1150 -258 1160 -293 1160 -327 c 0
 1160 -341 1158 -361 1139 -361 c 0
 1125 -361 1122 -331 1122 -295 c 0
 1122 -202 1128 -174 1128 -132 c 0
 1128 -81 1121 -24 1061 -24 c 0
 1018 -24 1009 -65 1009 -109 c 0
 1009 -141 1014 -175 1014 -196 c 0
 1014 -255 1039 -312 1039 -370 c 0
 1039 -392 1027 -421 1000 -421 c 0
 972 -421 962 -390 962 -368 c 0
 962 -316 989 -264 989 -210 c 0
 989 -168 994 -70 935 -70 c 0
 852 -70 861 -207 861 -262 c 0
 861 -336 897 -405 897 -476 c 0
 897 -507 885 -549 847 -549 c 0
 811 -549 793 -513 793 -481 c 0
 793 -401 826 -323 826 -242 c 2
 826 -43 l 1
 443 -27 153 63 145 496 c 0
 143 589 143 680 143 773 c 0
 143 927 145 1081 145 1235 c 0
 145 1273 133 1306 106 1334 c 1
 127 1354 l 1
 154 1326 188 1316 226 1316 c 2
 580 1316 l 2
 618 1316 651 1326 679 1354 c 1
 700 1334 l 1
 673 1306 662 1273 662 1235 c 2
 664 721 l 2
 664 509 668 300 939 300 c 0
 1209 300 1215 509 1215 721 c 2
 1217 1235 l 2
 1217 1273 1207 1306 1180 1334 c 1
 1199 1354 l 1
 1227 1326 1261 1316 1299 1316 c 2
 1653 1316 l 2
 1691 1316 1726 1326 1753 1354 c 1
 1773 1334 l 1
 1739 1299 1732 1214 1732 1130 c 0
 1732 910 1741 781 1741 619 c 0
 1741 269 1679 9 1150 -37 c 1
1140 -602 m 0
 1116 -602 1108 -581 1108 -553 c 0
 1108 -505 1133 -438 1141 -438 c 0
 1145 -438 1174 -505 1174 -554 c 0
 1174 -581 1165 -602 1140 -602 c 0
EndSplineSet
EndChar

StartChar: V
Encoding: 86 86 55
Width: 1760
VWidth: 1658
Flags: HW
LayerCount: 2
Fore
SplineSet
623 32 m 2
 606 32 607 -32 607 -42 c 0
 607 -116 622 -189 622 -262 c 0
 622 -280 611 -295 592 -295 c 0
 572 -295 559 -278 559 -259 c 0
 559 -173 587 -90 587 -4 c 0
 587 51 576 105 554 155 c 2
 58 1296 l 2
 43 1332 19 1361 -13 1383 c 1
 0 1402 l 1
 32 1381 69 1371 108 1371 c 2
 457 1371 l 2
 495 1371 524 1380 545 1413 c 1
 574 1395 l 1
 563 1381 557 1363 557 1345 c 0
 557 1299 829 675 874 569 c 1
 919 675 1191 1299 1191 1345 c 0
 1191 1363 1186 1381 1175 1395 c 1
 1203 1413 l 1
 1224 1380 1253 1371 1291 1371 c 2
 1641 1371 l 2
 1680 1371 1718 1381 1750 1402 c 1
 1762 1383 l 1
 1730 1361 1706 1332 1691 1296 c 2
 1188 106 l 2
 1174 74 1175 -39 1175 -76 c 0
 1175 -225 1222 -360 1222 -499 c 0
 1222 -547 1210 -596 1152 -596 c 0
 1096 -596 1083 -547 1083 -500 c 0
 1083 -370 1133 -246 1133 -113 c 0
 1133 -94 1134 32 1107 32 c 2
 623 32 l 2
EndSplineSet
EndChar

StartChar: W
Encoding: 87 87 56
Width: 2587
VWidth: 1658
Flags: HW
LayerCount: 2
Fore
SplineSet
1761 607 m 1
 1774 607 l 1
 1774 833 1970 1143 1970 1318 c 0
 1970 1339 1964 1359 1951 1376 c 1
 1977 1396 l 1
 2000 1364 2031 1354 2069 1354 c 2
 2436 1354 l 2
 2475 1354 2511 1365 2543 1387 c 1
 2556 1367 l 1
 2524 1345 2504 1313 2491 1276 c 0
 2441 1133 2077 128 2077 51 c 0
 2077 31 2084 12 2096 -4 c 1
 2069 -24 l 1
 2047 8 2017 19 1978 19 c 2
 1607 20 l 2
 1568 20 1538 10 1516 -22 c 1
 1489 -4 l 1
 1501 12 1507 31 1507 51 c 0
 1507 215 1290 523 1290 733 c 1
 1278 733 l 1
 1278 523 1060 211 1060 51 c 0
 1060 31 1066 12 1079 -4 c 1
 1052 -22 l 1
 1030 10 1000 20 961 20 c 2
 591 19 l 2
 569 19 532 13 532 -16 c 0
 532 -98 549 -179 549 -261 c 0
 549 -289 535 -328 502 -328 c 0
 470 -328 462 -285 462 -261 c 0
 462 -160 490 -61 490 40 c 0
 490 59 489 77 484 95 c 1
 78 1276 l 2
 65 1312 44 1345 12 1367 c 1
 26 1387 l 1
 58 1365 94 1354 133 1354 c 2
 500 1354 l 2
 538 1354 569 1364 592 1396 c 1
 618 1376 l 1
 605 1359 597 1339 597 1318 c 0
 597 1146 794 832 794 607 c 1
 807 607 l 1
 807 819 1044 1159 1044 1324 c 0
 1044 1344 1037 1361 1026 1377 c 1
 1052 1397 l 1
 1074 1365 1104 1354 1143 1354 c 2
 1426 1354 l 2
 1465 1354 1494 1365 1516 1397 c 1
 1543 1377 l 1
 1531 1361 1524 1344 1524 1324 c 0
 1524 1165 1757 825 1761 607 c 1
EndSplineSet
EndChar

StartChar: X
Encoding: 88 88 57
Width: 1832
VWidth: 1658
Flags: HW
LayerCount: 2
Fore
SplineSet
865 306 m 2
 702 80 l 2
 688 60 679 44 679 24 c 0
 679 12 683 1 690 -13 c 1
 657 -30 l 1
 638 6 613 14 573 14 c 2
 101 14 l 2
 61 14 24 6 -13 -11 c 1
 -21 4 l 1
 15 22 46 45 72 77 c 2
 555 660 l 2
 582 692 607 706 648 706 c 1
 648 737 l 1
 607 737 583 753 558 786 c 2
 166 1288 l 2
 141 1320 112 1344 76 1362 c 1
 84 1378 l 1
 120 1360 157 1352 197 1352 c 2
 643 1350 l 2
 683 1350 708 1359 726 1395 c 1
 758 1379 l 1
 752 1365 748 1354 748 1342 c 0
 747 1322 757 1305 773 1285 c 2
 889 1135 l 2
 914 1103 925 1070 925 1030 c 1
 950 1030 l 1
 950 1070 962 1103 987 1135 c 2
 1103 1285 l 2
 1118 1305 1127 1322 1127 1342 c 0
 1127 1354 1124 1365 1118 1379 c 1
 1150 1395 l 1
 1168 1359 1193 1350 1233 1350 c 2
 1668 1352 l 2
 1708 1352 1745 1360 1782 1377 c 1
 1789 1362 l 1
 1752 1344 1723 1320 1698 1289 c 2
 1287 785 l 2
 1261 753 1236 738 1195 738 c 1
 1195 706 l 1
 1235 706 1261 691 1286 659 c 2
 1745 77 l 2
 1770 45 1800 22 1836 4 c 1
 1828 -12 l 1
 1792 6 1755 14 1715 14 c 2
 1253 14 l 2
 1204 14 1159 -5 1159 -127 c 0
 1159 -266 1201 -492 1201 -640 c 0
 1201 -708 1161 -742 1122 -742 c 0
 1086 -742 1050 -712 1050 -652 c 0
 1050 -503 1119 -259 1119 -110 c 0
 1119 -34 1120 80 1120 80 c 1
 961 306 l 2
 938 340 925 370 925 412 c 1
 900 412 l 1
 900 371 888 338 865 306 c 2
EndSplineSet
EndChar

StartChar: Y
Encoding: 89 89 58
Width: 1780
VWidth: 1658
Flags: HW
LayerCount: 2
Fore
SplineSet
689 10 m 0
 642 10 647 -96 647 -125 c 0
 647 -212 686 -295 686 -382 c 0
 686 -418 676 -450 635 -450 c 0
 595 -450 585 -417 585 -382 c 0
 585 -291 627 -205 627 -114 c 2
 625 294 l 2
 625 330 630 356 669 367 c 1
 659 405 l 1
 652 403 643 401 636 401 c 0
 610 401 596 424 583 444 c 2
 76 1270 l 2
 56 1303 28 1330 -6 1350 c 1
 3 1367 l 1
 37 1348 77 1339 116 1339 c 2
 519 1341 l 2
 557 1341 584 1349 604 1384 c 1
 635 1367 l 1
 628 1354 622 1340 622 1325 c 0
 622 1205 881 973 881 802 c 1
 902 802 l 1
 902 810 l 2
 902 958 1162 1221 1162 1325 c 0
 1162 1340 1155 1354 1148 1367 c 1
 1179 1384 l 1
 1199 1349 1227 1341 1265 1341 c 2
 1644 1339 l 2
 1683 1339 1722 1348 1756 1367 c 1
 1765 1350 l 1
 1731 1330 1702 1303 1682 1270 c 2
 1170 444 l 2
 1153 416 1141 401 1117 401 c 0
 1110 401 1103 402 1094 405 c 1
 1082 368 l 1
 1121 356 1130 318 1130 268 c 0
 1130 226 1124 177 1124 129 c 0
 1124 77 1132 25 1166 -9 c 1
 1145 -29 l 1
 1117 -1 1084 10 1046 10 c 2
 812 10 l 2
 753 10 748 -106 748 -171 c 0
 748 -235 763 -295 763 -357 c 0
 763 -371 761 -392 742 -392 c 0
 722 -392 720 -370 720 -354 c 0
 720 -288 731 -226 731 -158 c 0
 731 -97 728 10 689 10 c 0
EndSplineSet
EndChar

StartChar: Z
Encoding: 90 90 60
Width: 1881
VWidth: 1658
Flags: HW
LayerCount: 2
Fore
SplineSet
1624 0 m 2
 210 0 l 2
 170 0 139 -10 110 -39 c 1
 89 -19 l 1
 118 10 129 41 129 81 c 2
 129 211 l 2
 129 251 121 275 84 292 c 1
 99 326 l 1
 135 309 159 318 190 344 c 2
 890 946 l 2
 921 972 954 992 992 1006 c 1
 987 1020 l 1
 949 1006 910 999 870 999 c 2
 277 999 l 2
 237 999 207 988 178 959 c 1
 158 980 l 1
 187 1009 196 1040 196 1080 c 2
 196 1251 l 2
 196 1291 187 1322 158 1351 c 1
 178 1372 l 1
 207 1343 237 1332 277 1332 c 2
 1654 1332 l 2
 1694 1332 1725 1343 1754 1372 c 1
 1774 1351 l 1
 1745 1322 1735 1291 1735 1251 c 2
 1735 1096 l 2
 1735 1056 1744 1032 1780 1014 c 1
 1765 981 l 1
 1728 998 1705 989 1673 963 c 2
 996 395 l 2
 964 369 932 351 894 337 c 1
 899 323 l 1
 937 337 975 344 1015 344 c 2
 1624 344 l 2
 1664 344 1695 353 1724 382 c 1
 1744 362 l 1
 1715 333 1706 303 1706 263 c 2
 1706 81 l 2
 1706 41 1715 10 1744 -19 c 1
 1724 -39 l 1
 1695 -10 1664 0 1624 0 c 2
EndSplineSet
EndChar

StartChar: a
Encoding: 97 97 62
Width: 1768
VWidth: 1658
Flags: HW
LayerCount: 2
Fore
SplineSet
1460 -31 m 0
 1460 -53 1447 -64 1433 -64 c 0
 1418 -64 1402 -52 1402 -29 c 0
 1402 -20 1402 -10 1404 0 c 1
 1283 0 l 2
 1251 0 1210 0 1210 -223 c 0
 1210 -292 1230 -361 1230 -406 c 0
 1230 -445 1210 -462 1190 -462 c 0
 1169 -462 1149 -444 1149 -410 c 0
 1149 -354 1174 -273 1174 -204 c 2
 1174 77 l 1
 1168 93 1164 108 1164 122 c 0
 1164 140 1169 157 1182 176 c 1
 1156 195 l 1
 1133 162 1106 152 1066 152 c 2
 655 152 l 2
 615 152 588 162 565 194 c 1
 539 176 l 1
 553 156 558 138 558 119 c 0
 558 105 555 92 551 77 c 1
 551 76 l 1
 547 61 542 46 542 33 c 0
 542 13 548 -3 562 -23 c 1
 536 -42 l 1
 513 -10 486 0 446 0 c 2
 84 0 l 1
 81 -19 81 -41 81 -64 c 0
 81 -115 84 -173 84 -223 c 0
 84 -291 59 -320 33 -320 c 0
 4 -320 -9 -286 -9 -230 c 0
 -9 -122 31 39 46 76 c 2
 526 1257 l 2
 533 1275 536 1291 536 1306 c 0
 536 1323 532 1339 519 1357 c 1
 547 1375 l 1
 569 1342 597 1332 637 1332 c 2
 1097 1332 l 2
 1137 1332 1164 1342 1186 1375 c 1
 1215 1357 l 1
 1202 1339 1198 1323 1198 1307 c 0
 1198 1292 1203 1276 1210 1258 c 2
 1704 75 l 2
 1719 38 1742 9 1775 -13 c 1
 1763 -32 l 1
 1729 -10 1694 0 1654 0 c 2
 1458 0 l 1
 1459 -11 1460 -21 1460 -31 c 0
758 429 m 2
 949 429 l 2
 989 429 1024 419 1057 397 c 1
 1070 416 l 1
 1037 439 1016 468 1002 505 c 2
 875 830 l 2
 861 867 853 906 852 946 c 1
 839 946 l 1
 838 906 833 868 819 830 c 2
 704 506 l 2
 690 468 670 439 637 416 c 1
 650 396 l 1
 683 419 718 429 758 429 c 2
1462 -334 m 0
 1462 -356 1448 -367 1434 -367 c 0
 1420 -367 1407 -354 1407 -331 c 0
 1407 -278 1420 -210 1433 -158 c 1
 1446 -212 1462 -280 1462 -334 c 0
EndSplineSet
EndChar

StartChar: ampersand
Encoding: 38 38 67
Width: 1862
VWidth: 1658
Flags: HW
LayerCount: 2
Fore
SplineSet
561 805 m 1
 479.889648438 834.8828125 431 911.713867188 431 1022 c 0
 431 1285 777 1330 984 1330 c 0
 1240 1330 1505 1236 1505 994 c 0
 1505 848 1381 766 1232 710 c 0
 1196 696 1162 693 1123 703 c 1
 1117 682 l 1
 1157 672 1186 655 1213 626 c 0
 1232 605 1251 583 1269 563 c 0
 1297 534 1309 505 1305 465 c 1
 1336 462 l 1
 1340 502 1358 528 1391 551 c 0
 1437 583 1498 628 1549 672 c 0
 1580 698 1596 725 1600 765 c 1
 1628 763 l 1
 1624 723 1637 693 1663 662 c 2
 1728 587 l 2
 1755 556 1782 540 1822 536 c 1
 1820 507 l 1
 1780 511 1750 499 1719 472 c 0
 1669 430 1608 383 1563 349 c 0
 1531 326 1499 315 1459 319 c 1
 1457 292 l 1
 1497 288 1526 272 1555 243 c 1
 1730 58 l 1
 1759 29 1789 7 1826 -9 c 1
 1820 -23 l 1
 1783 -7 1745 0 1705 0 c 2
 1305 0 l 2
 1269 0 1249 -7 1232 -44 c 1
 1203 -30 l 1
 1219.57714844 5.10546875 1212.6953125 24.99609375 1191 51 c 0
 1168 78 1160 101 1167 141 c 1
 1140 147 l 1
 1132 107 1113 88 1081 72 c 0
 1000 32 838 -29 594 -29 c 0
 372 -29 62 95 62 382 c 0
 62 594 239 728 447 787 c 0
 483 798 516 797 554 783 c 1
 561 805 l 1
794 254 m 0
 866.059570312 254 927.834960938 295.549804688 1003 273 c 1
 1008 295 l 1
 969 307 939 326 911 358 c 2
 735 556 l 2
 709 585 698 612 704 652 c 1
 673 657 l 1
 668 617 649 594 616 574 c 0
 578 552 543 513 543 451 c 0
 543 309 672 254 794 254 c 0
1026 1082 m 0
 966 1082 909 1049 909 987 c 0
 909 973 923 949 937 926 c 0
 959 891 968 860 956 821 c 1
 987 812 l 1
 999 851 1021 873 1059 891 c 1
 1104 911 1150 944 1150 984 c 0
 1150 1047 1087 1082 1026 1082 c 0
EndSplineSet
EndChar

StartChar: b
Encoding: 98 98 68
Width: 1979
VWidth: 1658
Flags: HW
LayerCount: 2
Fore
SplineSet
144 -402 m 0
 144 -300 176 -199 176 -97 c 2
 177 1251 l 2
 177 1287 165 1325 138 1351 c 1
 158 1372 l 1
 185 1346 222 1332 258 1332 c 2
 1104 1332 l 2
 1330 1332 1804 1358 1804 1027 c 0
 1804 919 1747 788 1625 778 c 1
 1627 758 l 1
 1793 773 1887 555 1887 417 c 0
 1887 74 1512 0 1240 0 c 2
 305 0 l 1
 305 -62 327 -122 327 -183 c 0
 327 -212 320 -244 284 -244 c 0
 249 -244 242 -213 242 -184 c 0
 242 -128 266 -74 266 -19 c 0
 266 -6 264 38 242 38 c 0
 212 38 205 -26 205 -46 c 0
 205 -166 234 -287 234 -408 c 0
 234 -437 225 -466 191 -466 c 0
 154 -466 144 -434 144 -402 c 0
691 419 m 0
 691 381 679 344 652 317 c 1
 672 296 l 1
 698 322 736 336 772 336 c 2
 1165 336 l 2
 1233 336 1327 321 1327 419 c 0
 1327 480 1264 503 1212 503 c 2
 772 500 l 2
 736 500 698 513 672 539 c 1
 652 519 l 1
 678 493 691 455 691 419 c 0
1133 995 m 2
 772 994 l 2
 736 994 702 1008 677 1032 c 1
 658 1012 l 1
 683 987 697 953 697 918 c 0
 697 882 683 846 658 820 c 1
 677 801 l 1
 719 842 794 844 849 844 c 0
 926 844 1006 834 1083 834 c 0
 1150 834 1252 840 1252 929 c 0
 1252 982 1173 995 1133 995 c 2
327 -844 m 0
 301 -844 294 -816 294 -795 c 0
 294 -734 314 -675 328 -616 c 1
 341 -676 362 -735 362 -797 c 0
 362 -819 353 -844 327 -844 c 0
EndSplineSet
EndChar

StartChar: c
Encoding: 99 99 69
Width: 1951
VWidth: 1658
Flags: HW
LayerCount: 2
Fore
SplineSet
712 -24 m 1
 312 32 78 265 78 679 c 0
 78 1222 527 1375 993 1375 c 0
 1308 1375 1750 1318 1826 947 c 0
 1834 907 1847 878 1879 852 c 1
 1862 830 l 1
 1832 852 1795 864 1758 861 c 2
 1373 837 l 2
 1335 834 1303 825 1286 788 c 1
 1253 804 l 1
 1259 817 1263 828 1263 842 c 0
 1263 989 1048 1027 941 1027 c 0
 736 1027 628 867 628 676 c 0
 628 453 754 302 984 302 c 0
 1087 302 1274 391 1274 511 c 0
 1274 525 1269 538 1263 551 c 1
 1296 568 l 1
 1315 532 1344 521 1383 518 c 0
 1518 509 1660 491 1795 491 c 0
 1829 491 1860 502 1887 522 c 1
 1903 501 l 1
 1870 476 1859 446 1849 407 c 0
 1779 113 1434 10 1171 -27 c 1
 1171 -211 1219 -390 1219 -572 c 0
 1219 -606 1202 -649 1162 -649 c 0
 1122 -649 1104 -606 1104 -572 c 0
 1104 -421 1137 -270 1137 -119 c 0
 1137 -23 1097 -27 1015 -27 c 0
 993 -27 892 -32 892 -64 c 0
 892 -155 916 -245 916 -336 c 0
 916 -359 910 -401 878 -401 c 0
 848 -401 840 -360 840 -338 c 0
 840 -244 867 -156 867 -62 c 0
 867 -47 859 -30 841 -30 c 0
 825 -30 755 -34 755 -61 c 0
 755 -205 766 -350 766 -494 c 0
 766 -515 751 -538 728 -538 c 0
 706 -538 693 -519 693 -499 c 0
 693 -341 709 -182 712 -24 c 1
EndSplineSet
EndChar

StartChar: d
Encoding: 100 100 71
Width: 1982
VWidth: 1658
Flags: HW
LayerCount: 2
Fore
SplineSet
685 0 m 2
 265 0 l 2
 227 0 194 -12 166 -39 c 1
 146 -19 l 1
 174 9 184 43 184 81 c 2
 184 1251 l 2
 184 1289 174 1324 146 1351 c 1
 166 1372 l 1
 194 1345 227 1332 265 1332 c 2
 1092 1332 l 2
 1520 1332 1874 1171 1874 693 c 0
 1874 -34 1356 0 782 0 c 0
 755 0 741 -103 741 -120 c 0
 741 -164 758 -204 758 -248 c 0
 758 -266 753 -286 731 -286 c 0
 708 -286 701 -267 701 -247 c 0
 701 -199 721 -153 721 -105 c 0
 721 -88 711 0 685 0 c 2
1337 698 m 0
 1337 1132 799 921 682 1036 c 1
 662 1016 l 1
 690 989 701 954 701 916 c 0
 701 725 700 533 703 342 c 1
 930 342 l 2
 1204 342 1337 395 1337 698 c 0
EndSplineSet
EndChar

StartChar: dollar
Encoding: 36 36 72
Width: 1816
VWidth: 1658
Flags: HW
LayerCount: 2
Fore
SplineSet
844 1418 m 2
 975 1418 l 2
 1000 1418 1019 1425 1048 1454 c 1
 1060 1440 l 1
 1031 1411 1025 1392 1025 1367 c 2
 1025 1310 l 1
 1077 1310 l 1
 1303 1288 1596 1234 1657 987 c 0
 1667 947 1686 917 1718 893 c 1
 1702 872 l 1
 1670 897 1636 907 1595 907 c 2
 1259 907 l 2
 1219 907 1197 899 1181 862 c 1
 1147 878 l 1
 1182 963 1110 1033 1031 1033 c 1
 1031 819 l 1
 1594 808 1738 589 1738 400 c 0
 1738 54 1285 -14 1018 -6 c 1
 1020 -45 1022 -66 1022 -93 c 2
 1022 -94 l 2
 1022 -134 1031 -162 1060 -191 c 1
 1041 -212 l 1
 1012 -183 983 -173 943 -173 c 2
 867 -173 l 2
 827 -173 797 -183 768 -212 c 1
 748 -191 l 1
 777 -162 787 -134 787 -94 c 2
 787 -93 l 2
 787 -66 783 -46 787 -6 c 1
 400 7 149 143 102 339 c 0
 92 379 76 410 44 435 c 1
 59 454 l 1
 91 429 125 419 166 419 c 2
 489 419 l 2
 539 419 568 429 584 466 c 1
 625 448 l 1
 609 411 617 379 657 344 c 0
 692 314 790 288 790 288 c 1
 790 288 789 338 789 367 c 2
 789 554 l 1
 538 590 119 603 119 918 c 0
 119 1242 483 1300 744 1315 c 0
 757 1315 777 1315 793 1314 c 1
 793 1369 l 2
 793 1393 787 1412 758 1441 c 1
 771 1454 l 1
 800 1425 819 1418 844 1418 c 2
1186 417 m 0
 1186 502 1097 524 1022 532 c 1
 1022 361 l 2
 1022 334 1022 312 1021 291 c 1
 1056 289 1074 298 1102 304 c 1
 1149 320 1186 356 1186 417 c 0
791 1017 m 1
 743 1017 644 1001 644 921 c 0
 644 842 736 847 791 825 c 1
 791 1017 l 1
EndSplineSet
EndChar

StartChar: dotlessi
Encoding: 305 305 73
Width: 824
VWidth: 1658
Flags: HW
LayerCount: 2
Fore
SplineSet
559 0 m 2
 268 0 l 2
 228 0 197 -10 168 -39 c 1
 148 -19 l 1
 177 10 187 41 187 81 c 2
 187 1253 l 6
 187 1293 177 1324 148 1353 c 5
 168 1372 l 5
 197 1343 228 1334 268 1334 c 6
 559 1334 l 6
 599 1334 630 1343 659 1372 c 5
 679 1353 l 5
 650 1324 640 1293 640 1253 c 6
 640 81 l 2
 640 41 650 10 679 -19 c 1
 659 -39 l 1
 630 -10 599 0 559 0 c 2
EndSplineSet
EndChar

StartChar: e
Encoding: 101 101 74
Width: 1789
VWidth: 1658
Flags: HW
LayerCount: 2
Fore
SplineSet
762 338 m 2
 1578 337 l 2
 1615 337 1651 349 1677 376 c 1
 1697 356 l 1
 1647 306 1653 198 1653 130 c 0
 1653 79 1660 22 1697 -17 c 1
 1677 -37 l 1
 1650 -10 1615 2 1578 2 c 2
 395 2 l 2
 238 2 216 -61 216 -258 c 0
 216 -407 262 -552 262 -700 c 0
 262 -751 247 -807 186 -807 c 0
 121 -807 104 -751 104 -697 c 0
 104 -546 170 -403 170 -252 c 0
 170 -140 165 -29 165 83 c 2
 165 1249 l 2
 165 1286 154 1322 127 1348 c 1
 147 1369 l 1
 174 1343 210 1330 247 1330 c 2
 1531 1330 l 2
 1568 1330 1604 1342 1631 1369 c 1
 1651 1348 l 1
 1601 1298 1607 1193 1607 1126 c 0
 1607 1075 1612 1014 1651 976 c 1
 1631 957 l 1
 1582 1007 1461 1008 1396 1008 c 0
 1230 1008 1065 985 899 985 c 0
 834 985 714 986 665 1036 c 1
 644 1016 l 1
 671 990 683 954 683 917 c 0
 683 879 672 842 644 815 c 1
 665 796 l 1
 711 844 806 846 867 846 c 0
 1007 846 1146 823 1286 823 c 0
 1349 823 1443 825 1491 873 c 1
 1512 853 l 1
 1462 803 1468 695 1468 628 c 0
 1468 576 1475 518 1512 479 c 1
 1491 458 l 1
 1445 506 1349 508 1288 508 c 0
 1148 508 1009 486 869 486 c 0
 807 486 712 489 665 536 c 1
 645 516 l 1
 697 464 685 358 685 288 c 0
 685 248 668 208 668 168 c 0
 668 149 673 132 695 132 c 0
 715 132 721 148 721 166 c 0
 721 207 705 249 705 290 c 2
 705 301 l 1
 717 322 737 338 762 338 c 2
EndSplineSet
EndChar

StartChar: eight
Encoding: 56 56 79
Width: 1826
VWidth: 1658
Flags: HW
LayerCount: 2
Fore
SplineSet
1175 -22 m 1
 1175 -188 1202 -355 1202 -522 c 0
 1202 -544 1194 -596 1162 -596 c 0
 1126 -596 1120 -528 1120 -504 c 0
 1120 -364 1140 -226 1140 -86 c 0
 1140 -61 1137 22 1097 22 c 0
 1065 22 1051 -27 1051 -52 c 0
 1051 -122 1075 -191 1075 -261 c 0
 1075 -285 1066 -332 1033 -332 c 0
 1002 -332 993 -290 993 -267 c 0
 993 -201 1029 -140 1029 -73 c 0
 1029 -6 967 15 910 15 c 0
 807 15 656 -53 656 -173 c 0
 656 -236 683 -297 683 -360 c 0
 683 -386 676 -410 645 -410 c 0
 612 -410 603 -385 603 -356 c 0
 603 -287 635 -220 635 -151 c 1
 651 -29 l 1
 262 20 98 208 98 389 c 0
 98 517 174 607 283 669 c 1
 190 727 130 811 130 936 c 0
 130 1316 631 1375 967 1375 c 0
 1469 1375 1677 1155 1677 945 c 0
 1677 832 1622 749 1539 688 c 1
 1660 630 1742 540 1742 398 c 0
 1742 123 1463 16 1175 -22 c 1
899 306 m 0
 1111 306 1233 338 1233 417 c 0
 1233 500 1138 543 972 543 c 0
 850 543 700 553 573 581 c 1
 570 565 570 549 570 535 c 0
 570 357 724 306 899 306 c 0
925 1028 m 0
 742 1028 640 997 640 918 c 0
 640 791 802 794 883 789 c 0
 993 781 1114 780 1227 761 c 1
 1229 775 1229 790 1229 803 c 0
 1229 971 1083 1028 925 1028 c 0
644 -730 m 0
 624 -730 620 -709 620 -693 c 0
 620 -653 637 -543 645 -504 c 1
 653 -544 669 -655 669 -695 c 0
 669 -712 664 -730 644 -730 c 0
EndSplineSet
EndChar

StartChar: f
Encoding: 102 102 80
Width: 1765
VWidth: 1658
Flags: W
HStem: 483 364<693.199 1236.14> 504 322<881.952 1479.75> 991 339<687.225 1620.64>
VStem: 154 65<-292.983 -121.106> 177 1445<1032.25 1328.64> 178 513<21.2999 511.727 817.226 1008.78> 178 13<-141.652 -79.7151> 437 101<-651.326 -268.06> 472 36<-423 -116.327> 681 97<-462.786 -124.404> 716 28<-237.817 -66.4673>
LayerCount: 2
Fore
SplineSet
716 -120 m 0xa020
 716 -62 669 0 608 0 c 0
 513 0 508 -164 508 -243 c 0xa0a0
 508 -358 538 -471 538 -586 c 0
 538 -616 524 -652 489 -652 c 0
 453 -652 437 -614 437 -583 c 0xa1
 437 -475 472 -371 472 -263 c 0
 472 -171 452 21 324 21 c 0
 250 21 191 -48 191 -119 c 0xa280
 191 -164 219 -204 219 -249 c 0
 219 -269 211 -293 187 -293 c 0
 161 -293 154 -271 154 -249 c 0xb0
 154 -195 178 -143 178 -89 c 2xa2
 177 1184 l 2
 177 1255 153 1328 105 1381 c 1
 125 1401 l 1
 179 1353 251 1330 322 1330 c 2
 1476 1330 l 2
 1547 1330 1619 1353 1673 1401 c 1
 1693 1381 l 1
 1645 1327 1622 1255 1622 1184 c 0
 1622 1090 1628 1014 1693 940 c 1
 1673 920 l 1
 1642 962 1593 991 1541 991 c 2
 782 991 l 2
 746 991 712 1004 686 1029 c 1
 667 1010 l 1
 692 984 705 950 705 914 c 0
 705 878 692 842 667 816 c 1
 686 797 l 1
 736 845 812 847 876 847 c 0xa8
 1003 847 1129 826 1256 826 c 0
 1356 826 1467 835 1543 907 c 1
 1563 887 l 1
 1501 819 1488 728 1488 640 c 0
 1488 569 1507 495 1557 443 c 1
 1536 423 l 1
 1457 493 1344 504 1242 504 c 0x68
 1117 504 993 483 868 483 c 0
 805 483 729 485 681 533 c 1xa040
 662 513 l 1
 688 486 699 449 699 413 c 0
 699 345 691 277 691 209 c 0
 691 99 744 -6 744 -116 c 0xa420
 744 -211 778 -303 778 -398 c 0
 778 -430 768 -463 730 -463 c 0
 692 -463 681 -431 681 -399 c 0xa040
 681 -305 716 -214 716 -120 c 0xa020
EndSplineSet
EndChar

StartChar: five
Encoding: 53 53 81
Width: 1871
VWidth: 1658
Flags: HW
LayerCount: 2
Fore
SplineSet
603 952 m 1
 650.978515625 892.950195312 629.157226562 839.157226562 583 793 c 1
 595 781 l 1
 624 810 644 822 672 827 c 0
 765 845 858 851 997 851 c 0
 1243 851 1749 812 1749 411 c 0
 1749 6 1293 -58 987 -58 c 0
 703 -58 181 -38 105 347 c 0
 97 387 82 418 51 445 c 1
 68 464 l 1
 99 437 131 426 172 425 c 2
 487 413 l 2
 539 411 569 419 584 456 c 1
 630 438 l 1
 616 400 632 375 672 341 c 0
 740 284 857 266 942 269 c 0
 1032 273 1187 304 1187 418 c 0
 1187 548 968 557 874 557 c 0
 825 557 776 553 726 540 c 0
 676 526 652 516 656 476 c 1
 605 471 l 1
 601 511 574 516 523 518 c 2
 268 527 l 2
 228 529 197 520 165 494 c 1
 148 515 l 1
 179 541 193 571 198 611 c 2
 277 1164 l 2
 282 1204 277 1234 250 1264 c 1
 274 1284 l 1
 300 1253 329 1244 369 1244 c 2
 1583 1243 l 2
 1623 1243 1653 1253 1682 1282 c 1
 1703 1261 l 1
 1674 1232 1664 1202 1664 1162 c 2
 1664 1008 l 2
 1664 968 1674 938 1703 909 c 1
 1682 888 l 1
 1653 917 1623 927 1583 927 c 2
 693 927 l 2
 664 927 645 935 619 966 c 1
 603 952 l 1
EndSplineSet
EndChar

StartChar: four
Encoding: 52 52 82
Width: 1848
VWidth: 1658
Flags: HW
LayerCount: 2
Fore
SplineSet
1656 189 m 2
 1580 189 l 2
 1540 189 1510 199 1481 228 c 1
 1460 207 l 1
 1489 178 1499 148 1499 108 c 2
 1499 58 l 2
 1499 18 1509 -13 1538 -42 c 1
 1518 -62 l 1
 1489 -33 1458 -23 1418 -23 c 2
 1112 -23 l 2
 1072 -23 1042 -33 1013 -62 c 1
 992 -42 l 1
 1021 -13 1031 18 1031 58 c 2
 1031 108 l 2
 1031 148 1041 178 1070 207 c 1
 1050 228 l 1
 1021 199 990 189 950 189 c 2
 183 191 l 2
 143 191 112 181 83 152 c 1
 63 173 l 1
 92 202 102 232 102 272 c 2
 104 450 l 2
 104 490 96 514 59 529 c 1
 73 563 l 1
 110 547 131 559 160 588 c 2
 770 1202 l 2
 799 1231 810 1254 794 1291 c 1
 828 1305 l 1
 843 1268 868 1260 908 1260 c 2
 1427 1260 l 2
 1467 1260 1497 1271 1526 1300 c 1
 1546 1279 l 1
 1517 1250 1508 1219 1508 1179 c 2
 1508 632 l 2
 1508 592 1497 561 1468 532 c 1
 1489 512 l 1
 1518 541 1549 551 1589 551 c 2
 1656 551 l 2
 1696 551 1727 561 1756 590 c 1
 1776 570 l 1
 1747 541 1737 510 1737 470 c 2
 1737 270 l 2
 1737 230 1747 199 1776 170 c 1
 1756 149 l 1
 1727 178 1696 189 1656 189 c 2
974 905 m 2
 686 609 l 2
 657 580 626 558 589 543 c 1
 595 528 l 1
 632 543 670 551 710 551 c 2
 950 551 l 2
 990 551 1021 541 1050 512 c 1
 1070 532 l 1
 1041 561 1031 592 1031 632 c 2
 1031 883 l 2
 1031 923 1039 961 1054 999 c 1
 1039 1004 l 1
 1024 967 1003 934 974 905 c 2
EndSplineSet
EndChar

StartChar: g
Encoding: 103 103 83
Width: 1991
VWidth: 1658
Flags: HW
LayerCount: 2
Fore
SplineSet
1132 -44 m 1
 1132 -140 l 2
 1132 -179 1148 -212 1148 -251 c 0
 1148 -285 1131 -301 1115 -301 c 0
 1100 -301 1083 -286 1083 -255 c 0
 1083 -250 1099 -181 1099 -142 c 0
 1099 -55 1096 -44 1090 -44 c 0
 966 -44 806 -33 678 -17 c 0
 673 -16 669 -71 669 -175 c 0
 669 -292 706 -410 706 -527 c 0
 706 -563 692 -607 649 -607 c 0
 612 -607 583 -574 583 -538 c 0
 583 -405 649 -300 649 -166 c 2
 649 -10 l 1
 257 78 78 323 78 679 c 0
 78 1189 467 1375 926 1375 c 0
 1510 1375 1770 1153 1827 962 c 0
 1839 922 1858 893 1891 870 c 1
 1876 850 l 1
 1843 874 1809 880 1768 880 c 1
 1346 866 l 2
 1304 864 1279 854 1261 818 c 1
 1228 834 l 1
 1234 847 1236 858 1236 870 c 0
 1236 890 1226 909 1210 931 c 0
 1156 1002 1092 1033 934 1033 c 0
 712 1033 626 869 626 685 c 0
 626 443 773 292 1019 292 c 0
 1141 292 1217 303 1261 314 c 0
 1269 316 1277 318 1284 318 c 0
 1300 318 1316 311 1338 294 c 1
 1350 310 l 1
 1318 335 1312 353 1312 380 c 2
 1312 388 l 2
 1312 415 1319 435 1348 464 c 1
 1334 477 l 1
 1305 448 1286 441 1259 441 c 2
 1162 441 l 2
 1122 441 1091 431 1062 402 c 1
 1041 423 l 1
 1070 452 1081 482 1081 522 c 2
 1081 670 l 2
 1081 710 1070 741 1041 770 c 1
 1062 790 l 1
 1091 761 1122 752 1162 752 c 2
 1776 752 l 2
 1816 752 1847 761 1876 790 c 1
 1895 770 l 1
 1866 741 1857 710 1857 670 c 2
 1857 251 l 2
 1857 212 1864 189 1900 169 c 1
 1884 140 l 1
 1870 147 1858 149 1845 149 c 0
 1827 149 1812 143 1792 130 c 0
 1617 13 1379 -33 1132 -44 c 1
EndSplineSet
EndChar

StartChar: h
Encoding: 104 104 84
Width: 1960
VWidth: 1658
Flags: HW
LayerCount: 2
Fore
SplineSet
1699 0 m 2
 1346 0 l 2
 1308 0 1274 -11 1246 -39 c 1
 1226 -19 l 1
 1254 9 1264 43 1264 81 c 2
 1262 417 l 2
 1262 455 1273 488 1300 516 c 1
 1280 536 l 1
 1252 508 1218 498 1180 498 c 2
 770 498 l 2
 732 498 698 509 670 536 c 1
 650 516 l 1
 653 481 652 388 652 274 c 2
 652 -177 l 2
 652 -358 698 -512 698 -693 c 0
 698 -759 671 -790 642 -790 c 0
 614 -790 586 -759 586 -697 c 0
 586 -671 626 -361 626 -180 c 0
 626 -35 479 39 359 39 c 0
 267 39 187 -5 187 -91 c 0
 187 -208 226 -326 226 -443 c 0
 226 -479 211 -522 168 -522 c 0
 131 -522 103 -490 103 -454 c 0
 103 -321 168 -215 168 -81 c 2
 168 1251 l 2
 168 1289 158 1324 130 1351 c 1
 149 1372 l 1
 177 1345 211 1332 249 1332 c 2
 608 1332 l 2
 646 1332 679 1344 707 1372 c 1
 728 1351 l 1
 692 1315 682 1262 682 1201 c 0
 682 1127 697 1044 697 971 c 0
 697 910 686 857 650 821 c 1
 670 800 l 1
 698 828 732 839 770 839 c 2
 1184 839 l 2
 1222 839 1256 828 1283 800 c 1
 1304 821 l 1
 1268 858 1257 913 1257 974 c 0
 1257 1047 1273 1130 1273 1202 c 0
 1273 1263 1262 1315 1226 1351 c 1
 1246 1372 l 1
 1274 1345 1308 1332 1346 1332 c 2
 1699 1332 l 2
 1737 1332 1771 1344 1799 1372 c 1
 1819 1351 l 1
 1791 1323 1780 1289 1780 1251 c 2
 1780 81 l 2
 1780 43 1792 9 1819 -19 c 1
 1799 -39 l 1
 1771 -11 1737 0 1699 0 c 2
EndSplineSet
EndChar

StartChar: i
Encoding: 105 105 85
Width: 882
VWidth: 1658
Flags: HW
LayerCount: 2
Fore
SplineSet
649 -273 m 0
 649 -107 643 50 434 50 c 0
 296 50 211 -68 211 -198 c 0
 211 -275 241 -348 241 -425 c 0
 241 -459 232 -497 191 -497 c 0
 150 -497 139 -462 139 -427 c 0
 139 -348 170 -271 170 -192 c 0
 170 -103 177 -13 177 76 c 2
 177 1251 l 2
 177 1288 165 1325 138 1351 c 1
 158 1372 l 1
 185 1346 221 1332 258 1332 c 2
 620 1332 l 2
 657 1332 693 1345 720 1372 c 1
 740 1351 l 1
 713 1324 701 1288 701 1251 c 2
 701 81 l 2
 701 -44 676 -169 683 -295 c 1
 682 -295 l 1
 701 -380 719 -470 719 -556 c 0
 719 -578 718 -635 686 -635 c 0
 638 -635 638 -573 638 -539 c 0
 638 -450 649 -362 649 -273 c 0
EndSplineSet
EndChar

StartChar: j
Encoding: 106 106 90
Width: 1650
VWidth: 1658
Flags: HW
LayerCount: 2
Fore
SplineSet
1196 22 m 1
 1195 22 l 1
 1195 -195 l 2
 1195 -264 1228 -331 1228 -400 c 0
 1228 -429 1217 -454 1185 -454 c 0
 1154 -454 1148 -428 1148 -403 c 0
 1148 -340 1174 -279 1174 -216 c 0
 1174 -95 1026 -29 922 -29 c 0
 872 -29 850 -72 850 -117 c 0
 850 -211 886 -298 886 -392 c 0
 886 -415 876 -457 846 -457 c 0
 813 -457 804 -410 804 -385 c 0
 804 -288 828 -192 828 -95 c 0
 828 -48 774 -21 734 -21 c 0
 694 -21 690 -101 690 -130 c 0
 690 -183 710 -235 710 -288 c 0
 710 -308 703 -364 674 -364 c 0
 646 -364 644 -307 644 -290 c 0
 644 -228 672 -169 672 -107 c 0
 672 -62 654 -42 608 -36 c 0
 -100 68 136 490 22 587 c 1
 31 597 l 1
 45 584 63 570 83 570 c 0
 205 570 352 606 474 622 c 0
 512 626 545 643 569 673 c 1
 591 656 l 1
 570 630 559 599 559 566 c 0
 559 436 609 297 760 297 c 0
 908 297 983 390 983 532 c 2
 984 1251 l 2
 984 1289 974 1324 946 1351 c 1
 966 1372 l 1
 994 1344 1028 1332 1066 1332 c 2
 1414 1332 l 2
 1452 1332 1487 1344 1514 1372 c 1
 1534 1351 l 1
 1506 1324 1495 1289 1495 1251 c 2
 1495 473 l 2
 1495 259 1394 104 1196 22 c 1
1192 -814 m 0
 1172 -814 1167 -794 1167 -778 c 0
 1167 -717 1178 -647 1192 -587 c 1
 1206 -646 1217 -716 1217 -777 c 0
 1217 -792 1212 -814 1192 -814 c 0
EndSplineSet
EndChar

StartChar: k
Encoding: 107 107 91
Width: 1978
VWidth: 1658
Flags: HW
LayerCount: 2
Fore
SplineSet
754 915 m 2
 1131 1276 l 2
 1160 1304 1170 1326 1156 1364 c 1
 1191 1377 l 1
 1206 1340 1230 1332 1270 1332 c 2
 1772 1332 l 2
 1812 1332 1850 1340 1888 1354 c 1
 1893 1340 l 1
 1855 1326 1822 1306 1792 1279 c 2
 1386 926 l 2
 1356 899 1327 888 1287 893 c 1
 1283 862 l 1
 1323 858 1349 839 1371 806 c 2
 1889 67 l 2
 1911 34 1939 8 1975 -11 c 1
 1966 -27 l 1
 1930 -8 1894 0 1854 0 c 2
 1371 0 l 2
 1331 0 1306 -9 1287 -45 c 1
 1255 -28 l 1
 1275 8 1267 34 1245 68 c 2
 959 490 l 2
 937 524 928 556 933 596 c 1
 906 599 l 1
 901 559 883 532 851 506 c 1
 759 427 l 1
 727 401 704 392 667 409 c 1
 651 376 l 1
 687 358 696 334 696 294 c 2
 696 81 l 2
 696 41 706 10 735 -19 c 1
 715 -39 l 1
 686 -10 655 0 615 0 c 2
 268 0 l 2
 228 0 197 -10 168 -39 c 1
 148 -19 l 1
 177 10 187 41 187 81 c 2
 187 1251 l 2
 187 1291 177 1322 148 1351 c 1
 168 1372 l 1
 197 1343 228 1332 268 1332 c 2
 615 1332 l 2
 655 1332 686 1343 715 1372 c 1
 735 1351 l 1
 706 1322 696 1291 696 1251 c 2
 696 940 l 2
 696 900 688 862 672 825 c 1
 687 819 l 1
 703 856 725 887 754 915 c 2
EndSplineSet
EndChar

StartChar: l
Encoding: 108 108 92
Width: 1672
VWidth: 1658
Flags: W
HStem: -39 21G<1578.5 1613> 0 357<680.822 1147 1201 1363.13> 0 333<902.87 1147 1201 1567.85>
VStem: 118 123<-694.577 -305.04> 172 519<328.316 1330.76> 172 21<-310.531 -124.094> 1140 68<-484.98 -265.541 -92.9825 0>
LayerCount: 2
Fore
SplineSet
673 306 m 1xaa
 712 345 795 357 896 357 c 0xca
 1042 357 1224 333 1370 333 c 0
 1471 333 1552 344 1592 384 c 1
 1613 364 l 1
 1585 337 1573 302 1573 264 c 0
 1573 228 1569 181 1569 134 c 0
 1569 76 1577 17 1613 -19 c 1
 1592 -39 l 1
 1565 -11 1530 0 1492 0 c 2xaa
 1201 0 l 1
 1202 -14 1202 -25 1202 -37 c 0
 1202 -72 1196 -93 1174 -93 c 0
 1151 -93 1146 -69 1146 -30 c 0
 1146 -21 1146 -11 1147 0 c 1xca
 252 0 l 2
 215 0 193 -187 193 -209 c 0xa6
 193 -345 241 -478 241 -614 c 0
 241 -654 231 -697 182 -697 c 0
 130 -697 118 -655 118 -611 c 0xb2
 118 -471 172 -334 172 -194 c 2xa6
 171 1251 l 2
 171 1289 159 1324 131 1351 c 1
 152 1372 l 1
 180 1345 214 1332 252 1332 c 2
 610 1332 l 2
 648 1332 683 1344 710 1372 c 1
 731 1351 l 1
 703 1324 691 1289 691 1251 c 2
 691 426 l 2
 691 388 680 355 652 327 c 1
 673 306 l 1xaa
1174 -485 m 0
 1147 -485 1140 -458 1140 -436 c 0
 1140 -383 1161 -315 1174 -263 c 1
 1187 -317 1208 -384 1208 -438 c 0
 1208 -460 1201 -485 1174 -485 c 0
EndSplineSet
EndChar

StartChar: m
Encoding: 109 109 93
Width: 2407
VWidth: 1658
Flags: W
HStem: -46 1378<209.938 597.55>
VStem: 167 45<-202.995 -47.0094> 173 820<1133.92 1331.05> 567 134<-529.672 -109.376> 599 71<-432.633 -59.875> 987 54<-197.985 -53.6882> 1004 25<-94.2545 -11.4292> 1349 106<-652.977 -238.455> 1377 31<-329.625 -53.2496> 1416 820<1133.5 1330.64> 1711 88<-481.938 -210.327> 1736 34<-322.181 -40.9131> 1739 497<0 977>
LayerCount: 2
Fore
SplineSet
1029 -52 m 0x8280
 1029 -88 1041 -125 1041 -161 c 0
 1041 -179 1036 -198 1015 -198 c 0
 992 -198 987 -178 987 -158 c 0x84
 987 -96 1004 -35 1004 29 c 0
 1004 188 713 725 666 977 c 1
 660 976 l 1
 667 936 670 896 670 856 c 2
 670 -132 l 2x8a
 670 -177 701 -345 701 -437 c 0
 701 -502 666 -536 632 -536 c 0
 600 -536 567 -504 567 -442 c 0x90
 567 -356 598 -223 598 -138 c 0
 598 -127 599 -117 599 -109 c 0
 599 -62 583 -46 371 -46 c 0
 285 -46 209 -47 209 -48 c 0
 209 -63 212 -165 212 -180 c 0
 212 -196 201 -203 189 -203 c 0
 177 -203 167 -196 167 -182 c 0xc8
 167 -164 173 -58 173 -43 c 2
 173 1251 l 2
 173 1288 161 1325 134 1351 c 1
 154 1372 l 1
 181 1346 217 1332 254 1332 c 2
 895 1332 l 2
 931 1332 964 1344 985 1375 c 1
 1011 1356 l 1
 999 1341 993 1322 993 1302 c 0
 993 1136 1197 880 1198 670 c 1
 1212 670 l 1
 1213 882 1416 1135 1416 1301 c 0
 1416 1321 1409 1340 1397 1356 c 1
 1424 1375 l 1
 1445 1344 1478 1332 1514 1332 c 2
 2155 1332 l 2
 2192 1332 2228 1345 2255 1372 c 1
 2275 1351 l 1
 2248 1324 2236 1288 2236 1251 c 2xa040
 2236 81 l 2x8008
 2236 44 2236 8 2235 -19 c 1
 2215 -39 l 1
 2201 -12 2176 0 2155 0 c 2
 1820 0 l 2
 1788 0 1770 -73 1770 -207 c 0x8010
 1770 -278 1799 -347 1799 -417 c 0
 1799 -461 1778 -482 1756 -482 c 0
 1734 -482 1711 -459 1711 -418 c 0x8020
 1711 -354 1735 -281 1736 -216 c 2x8010
 1739 81 l 1
 1739 856 l 2
 1739 896 1742 936 1749 976 c 1
 1742 977 l 1
 1692 737 1404 180 1404 29 c 1
 1408 -198 l 2x8088
 1411 -322 1455 -439 1455 -563 c 0
 1455 -621 1427 -655 1399 -655 c 0
 1374 -655 1349 -628 1349 -562 c 0x81
 1349 -433 1377 -310 1377 -181 c 0
 1377 49 1282 56 1187 56 c 0
 1104 56 1029 10 1029 -52 c 0x8280
EndSplineSet
EndChar

StartChar: n
Encoding: 110 110 94
Width: 2009
VWidth: 1658
Flags: HW
LayerCount: 2
Fore
SplineSet
1741 0 m 2
 1346 0 l 2
 1268 0 1262 -95 1262 -153 c 0
 1262 -278 1309 -394 1309 -516 c 0
 1309 -559 1297 -603 1245 -603 c 0
 1193 -603 1179 -559 1179 -515 c 0
 1179 -405 1228 -302 1231 -191 c 1
 1233 -58 l 2
 1234 -28 1233 39 1214 63 c 2
 735 670 l 2
 718 692 701 746 693 774 c 1
 632 772 l 1
 663 740 684 697 684 652 c 2
 684 81 l 2
 684 -87 703 -257 703 -425 c 0
 703 -445 690 -464 668 -464 c 0
 645 -464 629 -442 629 -420 c 0
 629 -292 641 -164 641 -36 c 0
 641 -20 628 -4 611 -4 c 0
 593 -4 585 -22 585 -37 c 0
 585 -131 612 -219 612 -313 c 0
 612 -335 604 -376 575 -376 c 0
 544 -376 537 -333 537 -310 c 0
 537 -219 561 -130 561 -39 c 0
 561 30 432 47 381 47 c 0
 323 47 205 32 205 -45 c 0
 205 -145 251 -237 251 -337 c 0
 251 -371 234 -413 194 -413 c 0
 154 -413 136 -371 136 -337 c 0
 136 -236 185 -141 185 -40 c 2
 184 1186 l 2
 184 1259 162 1328 112 1383 c 1
 133 1404 l 1
 188 1355 257 1332 330 1332 c 2
 629 1332 l 2
 700 1332 770 1341 809 1409 c 1
 842 1393 l 1
 827 1357 816 1316 816 1276 c 0
 816 1185 1251 783 1316 602 c 1
 1376 602 l 1
 1336 661 1327 736 1327 805 c 0
 1327 927 1357 1048 1357 1170 c 0
 1357 1256 1338 1343 1253 1383 c 1
 1274 1404 l 1
 1329 1355 1398 1332 1471 1332 c 2
 1676 1332 l 2
 1749 1332 1818 1355 1873 1404 c 1
 1893 1383 l 1
 1844 1328 1822 1259 1822 1186 c 2
 1820 -35 l 2
 1820 -121 1860 -206 1860 -292 c 0
 1860 -326 1851 -356 1811 -356 c 0
 1771 -356 1762 -326 1762 -292 c 0
 1762 -208 1800 -129 1800 -45 c 0
 1800 -18 1764 0 1741 0 c 2
EndSplineSet
EndChar

StartChar: nine
Encoding: 57 57 95
Width: 1948
VWidth: 1658
Flags: HW
LayerCount: 2
Fore
SplineSet
110 918 m 0
 110 924 109 931 109 936 c 0
 109 1316 610 1375 946 1375 c 0
 1412 1375 1861 1222 1861 679 c 0
 1861 265 1627 32 1227 -24 c 1
 1230 -182 1246 -341 1246 -499 c 0
 1246 -519 1233 -538 1211 -538 c 0
 1188 -538 1173 -515 1173 -494 c 0
 1173 -350 1184 -205 1184 -61 c 0
 1184 -34 1114 -30 1098 -30 c 0
 1080 -30 1072 -47 1072 -62 c 0
 1072 -156 1099 -244 1099 -338 c 0
 1099 -360 1091 -401 1061 -401 c 0
 1029 -401 1023 -359 1023 -336 c 0
 1023 -245 1047 -155 1047 -64 c 0
 1047 -32 946 -27 924 -27 c 0
 842 -27 802 -23 802 -119 c 0
 802 -270 835 -421 835 -572 c 0
 835 -606 817 -649 777 -649 c 0
 737 -649 720 -606 720 -572 c 0
 720 -390 769 -211 769 -27 c 1
 518 4 191 94 123 342 c 1
 114 381 100 411 68 436 c 1
 84 457 l 1
 114 434 147 427 186 427 c 0
 318 427 456 443 588 453 c 0
 627 456 657 464 676 503 c 1
 708 486 l 1
 701 473 697 460 697 446 c 0
 697 365 813 302 988 302 c 0
 1167 302 1275 411 1304 582 c 1
 899 555 994 554 801 554 c 0
 483 554 123 626 110 918 c 0
961 1028 m 0
 778 1028 676 997 676 918 c 0
 676 835 750 791 888 791 c 0
 901 791 914 792 1295 809 c 1
 1258 942 1155 1028 961 1028 c 0
EndSplineSet
EndChar

StartChar: o
Encoding: 111 111 97
Width: 1986
VWidth: 1658
Flags: HW
LayerCount: 2
Fore
SplineSet
552 12 m 1
 233 113 76 347 76 677 c 0
 76 1217 515 1375 981 1375 c 0
 1447 1375 1885 1218 1885 677 c 0
 1885 236 1617 17 1199 -34 c 1
 1196 -39 1195 -47 1195 -56 c 0
 1195 -75 1200 -97 1200 -111 c 0
 1200 -127 1194 -162 1171 -162 c 0
 1149 -162 1144 -138 1144 -113 c 0
 1144 -91 1147 -69 1147 -57 c 0
 1147 -35 1122 -27 1104 -27 c 1
 1100 -36 1100 -47 1100 -61 c 0
 1100 -93 1105 -136 1105 -158 c 0
 1105 -187 1096 -244 1057 -244 c 0
 1019 -244 1011 -205 1011 -162 c 0
 1011 -125 1018 -85 1018 -66 c 0
 1018 -29 973 -14 943 -14 c 0
 909 -14 870 -32 870 -72 c 2
 870 -302 l 2
 870 -403 912 -495 912 -596 c 0
 912 -635 890 -683 845 -683 c 0
 798 -683 781 -631 781 -592 c 0
 781 -480 827 -374 827 -254 c 0
 827 -181 823 -7 735 -7 c 0
 720 -7 611 -7 611 3 c 2
 611 1 l 2
 611 -136 672 -267 672 -403 c 0
 672 -456 651 -526 586 -526 c 0
 525 -526 494 -463 494 -410 c 0
 494 -268 552 -132 552 12 c 1
633 676 m 0
 633 442 740 310 981 310 c 0
 1222 310 1329 442 1329 676 c 0
 1329 900 1204 1022 981 1022 c 0
 758 1022 633 900 633 676 c 0
EndSplineSet
EndChar

StartChar: one
Encoding: 49 49 103
Width: 1009
VWidth: 1658
Flags: HW
LayerCount: 2
Fore
SplineSet
191 1096 m 0
 270 1129 351 1171 424 1225 c 0
 458 1250 474 1270 461 1309 c 1
 500 1320 l 1
 513 1282 536 1276 579 1276 c 2
 743 1276 l 2
 783 1276 814 1286 843 1315 c 1
 864 1294 l 1
 835 1265 824 1235 824 1195 c 2
 824 81 l 2
 824 41 835 10 864 -19 c 1
 843 -39 l 1
 814 -10 783 0 743 0 c 2
 426 0 l 2
 386 0 355 -10 326 -39 c 1
 306 -19 l 1
 335 10 345 41 345 81 c 2
 345 765 l 2
 345 805 336 852 360 884 c 1
 378 870 l 1
 355 838 307 833 269 820 c 1
 203.254882812 802.069335938 140.140625 792.100585938 101 742 c 1
 80 759 l 1
 106 791 116 824 116 864 c 2
 116 983 l 2
 116 1024 106 1051 73 1073 c 1
 91 1101 l 1
 125 1079 154 1081 191 1096 c 0
EndSplineSet
EndChar

StartChar: p
Encoding: 112 112 105
Width: 1901
VWidth: 1658
Flags: HW
LayerCount: 2
Fore
SplineSet
1328 480 m 2
 777 480 l 2
 737 480 706 489 677 518 c 1
 656 499 l 1
 685 470 696 439 696 399 c 2
 696 81 l 2
 696 5 695 -52 694 -108 c 1
 649 -112 l 1
 640 -33 629 0 615 0 c 2
 257 0 l 2
 250 0 230 -41 230 -144 c 0
 230 -229 268 -357 268 -443 c 0
 268 -497 253 -535 203 -535 c 0
 151 -535 134 -497 134 -441 c 0
 134 -350 178 -214 178 -122 c 0
 178 -62 176 -2 176 81 c 2
 176 1255 l 2
 176 1295 167 1325 138 1354 c 1
 158 1374 l 1
 187 1345 217 1336 257 1336 c 2
 1120 1336 l 2
 1415 1336 1812 1327 1812 931 c 0
 1812 672 1697 480 1328 480 c 2
696 921 m 2
 696 862 l 2
 696 822 685 792 656 763 c 1
 677 742 l 1
 706 771 737 781 777 781 c 2
 1101 781 l 2
 1202 781 1280 784 1280 895 c 0
 1280 1001 1163 1002 1105 1002 c 2
 777 1002 l 2
 737 1002 706 1011 677 1040 c 1
 656 1021 l 1
 685 992 696 961 696 921 c 2
429 81 m 1
 474 28 l 1
 470 28 456 0 456 -68 c 0
 456 -136 482 -237 482 -305 c 0
 482 -341 471 -366 439 -366 c 0
 404 -366 393 -341 393 -304 c 0
 393 -232 430 -125 430 -52 c 0
 430 -12 429 27 429 81 c 1
EndSplineSet
EndChar

StartChar: period
Encoding: 46 46 106
Width: 665
VWidth: 1658
Flags: HW
LayerCount: 2
Fore
SplineSet
409 0 m 2
 265 0 l 2
 154 0 143 -3 143 58 c 2
 143 292 l 2
 143 353 154 349 265 349 c 2
 409 349 l 2
 520 349 531 353 531 292 c 2
 531 58 l 2
 531 -3 520 0 409 0 c 2
EndSplineSet
EndChar

StartChar: q
Encoding: 113 113 107
Width: 2019
VWidth: 1658
Flags: HW
LayerCount: 2
Fore
SplineSet
633 706 m 0
 633 473 742 342 986 342 c 0
 1230 342 1337 473 1337 706 c 0
 1337 946 1195 1053 986 1053 c 0
 777 1053 633 946 633 706 c 0
1470 -121 m 2
 1324 -22 l 2
 1296 -3 1280 12 1280 40 c 0
 1280 45 1280 51 1282 58 c 1
 1245 67 l 1
 1236 27 1213 17 1173 12 c 1
 1108 2 1047 -4 985 -4 c 0
 603 -4 79 94 79 701 c 0
 79 1209 464 1400 985 1400 c 0
 1506 1400 1888 1209 1888 701 c 0
 1888 507 1839 372 1745 270 c 0
 1717 240 1690 223 1650 219 c 1
 1651 193 l 1
 1657 194 1665 194 1671 194 c 0
 1703 194 1729 185 1757 166 c 2
 1885 80 l 2
 1916 59 1945 50 1980 49 c 0
 1984 49 1987 50 1991 50 c 1
 1993 25 l 1
 1952 22 1921 7 1891 -19 c 2
 1706 -177 l 1
 1706 -239 1730 -299 1730 -360 c 0
 1730 -389 1723 -421 1687 -421 c 0
 1652 -421 1643 -390 1643 -361 c 0
 1643 -305 1668 -251 1668 -196 c 0
 1668 -183 1665 -140 1643 -140 c 0
 1613 -140 1607 -203 1607 -223 c 0
 1607 -343 1635 -464 1635 -585 c 0
 1635 -614 1627 -644 1593 -644 c 0
 1556 -644 1545 -612 1545 -580 c 0
 1545 -518 1560 -433 1560 -350 c 0
 1560 -258 1543 -171 1470 -121 c 2
1687 -881 m 0
 1661 -881 1653 -853 1653 -832 c 0
 1653 -771 1673 -711 1687 -652 c 1
 1700 -712 1721 -772 1721 -834 c 0
 1721 -856 1713 -881 1687 -881 c 0
EndSplineSet
EndChar

StartChar: r
Encoding: 114 114 108
Width: 2066
VWidth: 1658
Flags: HW
LayerCount: 2
Fore
SplineSet
1790 -121 m 0
 1790 173 1291 215 1291 -24 c 0
 1291 -114 1286 -202 1286 -292 c 0
 1286 -402 1320 -509 1320 -619 c 0
 1320 -657 1315 -716 1264 -716 c 0
 1214 -716 1210 -659 1210 -622 c 0
 1210 -505 1244 -391 1248 -274 c 0
 1252 -186 1251 -100 1251 -12 c 0
 1251 105 1127 253 1005 505 c 1
 975 522 l 1
 956 487 927 478 890 478 c 0
 863 478 835 475 806 475 c 0
 759 475 713 482 677 517 c 1
 656 497 l 1
 659 460 659 403 659 339 c 0
 659 262 658 172 658 94 c 0
 658 29 659 -29 662 -68 c 1
 662 -108 681 -173 681 -215 c 0
 681 -238 674 -256 652 -256 c 0
 631 -256 625 -240 625 -218 c 0
 625 -183 641 -130 641 -94 c 0
 641 -33 600 4 548 4 c 0
 495 4 438 -39 438 -145 c 0
 438 -237 482 -350 482 -441 c 0
 482 -497 465 -535 413 -535 c 0
 363 -535 348 -497 348 -443 c 0
 348 -357 387 -229 387 -144 c 0
 387 -24 337 21 288 21 c 0
 245 21 203 -16 203 -68 c 0
 203 -136 230 -237 230 -305 c 0
 230 -341 218 -366 186 -366 c 0
 151 -366 140 -341 140 -304 c 0
 140 -232 178 -125 178 -52 c 1
 176 11 176 44 176 1255 c 0
 176 1293 166 1327 138 1354 c 1
 158 1374 l 1
 186 1347 219 1336 257 1336 c 2
 1153 1336 l 2
 1449 1336 1845 1326 1845 931 c 0
 1845 740 1777 549 1504 549 c 1
 1496 526 l 1
 1526 514 1566 487 1580 457 c 0
 1636 335 1685 221 1789 130 c 0
 1849 78 1912 64 1976 25 c 0
 1981 21 1986 18 1986 11 c 0
 1986 -180 2040 -322 2040 -474 c 0
 2040 -503 2031 -572 1990 -572 c 0
 1948 -572 1940 -502 1940 -473 c 0
 1940 -348 1966 -225 1966 -100 c 0
 1966 -44 1955 25 1885 25 c 0
 1836 25 1806 12 1806 -40 c 0
 1806 -138 1842 -232 1842 -326 c 0
 1842 -351 1834 -377 1804 -377 c 0
 1775 -377 1768 -351 1768 -328 c 0
 1768 -259 1790 -190 1790 -121 c 0
696 921 m 2
 696 854 l 2
 696 816 684 782 656 754 c 1
 677 734 l 1
 712 770 778 778 855 778 c 0
 935 778 1028 769 1108 769 c 0
 1226 769 1320 790 1320 893 c 0
 1320 987 1223 1004 1102 1004 c 0
 1026 1004 942 997 866 997 c 0
 784 997 713 1005 677 1040 c 1
 656 1021 l 1
 684 994 696 959 696 921 c 2
EndSplineSet
EndChar

StartChar: s
Encoding: 115 115 109
Width: 1887
VWidth: 1658
Flags: HW
LayerCount: 2
Fore
SplineSet
1786 482 m 0
 1786 114 1394 3 1066 3 c 0
 1042 3 1018 2 995 4 c 1
 936 4 941 -71 941 -103 c 0
 941 -157 968 -209 968 -261 c 0
 968 -283 959 -314 931 -314 c 0
 904 -314 891 -286 891 -263 c 0
 891 -205 916 -148 916 -89 c 0
 916 -33 916 10 861 10 c 0
 801 10 794 -46 794 -98 c 0
 794 -140 800 -169 800 -262 c 0
 800 -298 797 -328 783 -328 c 0
 764 -328 762 -306 762 -292 c 0
 762 -258 772 -225 772 -191 c 2
 772 -4 l 1
 494 9 200 65 115 338 c 0
 102 381 81 413 48 436 c 1
 63 457 l 1
 93 437 126 427 165 427 c 0
 274 427 491 442 631 448 c 0
 681 451 709 460 722 499 c 1
 767 484 l 1
 764 476 764 469 764 463 c 0
 764 436 782 416 814 392 c 0
 866 352 937 346 1018 346 c 0
 1053 346 1174 354 1174 415 c 0
 1174 451 1146 472 1113 482 c 0
 833 567 104 491 104 939 c 0
 104 1327 544 1410 896 1410 c 0
 1165 1410 1583 1388 1703 1097 c 1
 1723 1055 1749 1023 1769 1002 c 1
 1756 979 l 1
 1727 999 1695 1008 1659 1008 c 2
 1646 1008 l 1
 1506 1002 1364 993 1224 986 c 0
 1175 983 1150 975 1139 936 c 1
 1095 948 l 1
 1097 954 1098 962 1098 967 c 0
 1098 1025 988 1070 876 1070 c 0
 831 1070 708 1071 708 1004 c 0
 708 922 1046 914 1204 891 c 0
 1446 855 1786 813 1786 482 c 0
EndSplineSet
EndChar

StartChar: seven
Encoding: 55 55 111
Width: 1315
VWidth: 1658
Flags: HW
LayerCount: 2
Fore
SplineSet
160 1334 m 2
 1149 1334 l 2
 1187 1334 1221 1345 1249 1373 c 1
 1268 1353 l 1
 1240 1325 1230 1291 1230 1253 c 0
 1230 1217 1225 1171 1225 1125 c 0
 1225 1074 1245 1017 1216 953 c 1
 763 81 l 1
 755 -127 785 -331 785 -540 c 0
 785 -562 777 -614 745 -614 c 0
 709 -614 703 -546 703 -522 c 0
 703 -382 731 -245 731 -105 c 0
 731 -80 727 4 687 4 c 0
 655 4 642 -45 642 -70 c 0
 642 -140 665 -209 665 -279 c 0
 665 -303 657 -351 624 -351 c 0
 593 -351 584 -309 584 -286 c 0
 584 -220 620 -159 620 -92 c 0
 620 -25 557 -4 500 -4 c 0
 404 -4 263 -71 263 -191 c 0
 263 -254 289 -315 289 -378 c 0
 289 -404 283 -429 252 -429 c 0
 219 -429 210 -404 210 -375 c 0
 210 -306 242 -239 242 -170 c 1
 261 90 l 1
 398 364 539 637 675 911 c 1
 695 949 724 984 765 1011 c 1
 756 1031 l 1
 703 995 647 986 587 986 c 0
 448 986 348 999 209 999 c 0
 149 999 96 989 60 953 c 1
 40 974 l 1
 68 1002 79 1035 79 1073 c 0
 79 1107 84 1154 84 1201 c 0
 84 1259 76 1318 40 1353 c 1
 60 1373 l 1
 88 1346 122 1334 160 1334 c 2
615 -728 m 1
 628 -752 591 -708 591 -692 c 0
 591 -652 607 -541 616 -502 c 1
 625 -542 640 -653 640 -693 c 0
 640 -710 635 -728 615 -728 c 1
EndSplineSet
EndChar

StartChar: six
Encoding: 54 54 112
Width: 1950
VWidth: 1658
Flags: HW
LayerCount: 2
Fore
SplineSet
794 -25 m 1
 412 20 91 201 91 661 c 0
 91 1243 527 1365 1027 1365 c 0
 1313 1365 1738 1298 1829 997 c 1
 1838 958 1851 928 1883 903 c 1
 1867 881 l 1
 1837 904 1804 912 1765 912 c 0
 1633 912 1495 895 1363 886 c 1
 1324 882 1295 873 1276 836 c 1
 1243 853 l 1
 1250 866 1254 879 1254 893 c 0
 1254 974 1139 1037 964 1037 c 0
 785 1037 677 928 648 757 c 1
 1053 784 958 785 1151 785 c 0
 1477 785 1842 710 1842 402 c 0
 1842 108 1542 7 1251 -24 c 1
 1251 -208 1299 -389 1299 -571 c 0
 1299 -605 1282 -646 1242 -646 c 0
 1202 -646 1184 -605 1184 -571 c 0
 1184 -420 1217 -268 1217 -117 c 0
 1217 -21 1177 -24 1095 -24 c 0
 1073 -24 972 -29 972 -61 c 0
 972 -152 997 -242 997 -333 c 0
 997 -356 990 -399 958 -399 c 0
 928 -399 920 -359 920 -337 c 0
 920 -243 948 -154 948 -60 c 0
 948 -45 940 -28 922 -28 c 0
 906 -28 835 -32 835 -59 c 0
 835 -203 847 -347 847 -491 c 0
 847 -512 832 -536 809 -536 c 0
 787 -536 773 -516 773 -496 c 0
 773 -338 790 -203 794 -25 c 1
991 311 m 0
 1174 311 1276 342 1276 421 c 0
 1276 504 1201 547 1063 547 c 0
 1050 547 1038 547 657 530 c 1
 694 397 797 311 991 311 c 0
EndSplineSet
EndChar

StartChar: t
Encoding: 116 116 114
Width: 1667
VWidth: 1658
Flags: W
HStem: 999 335<97.9579 582.347 1069.7 1562.45>
VStem: 532 79<-428.927 -193.952> 564 20<-243.771 -143.558> 921 82<-350.965 -95.1363> 928 50<-727.985 -508.078> 957 23<-164.726 -49.9844> 1041 82<-613.951 -122.776> 1068 18<-113.103 -32.2595>
LayerCount: 2
Fore
SplineSet
173 1334 m 2xa0
 1486 1334 l 2
 1524 1334 1558 1345 1586 1373 c 1
 1606 1353 l 1
 1578 1325 1568 1291 1568 1253 c 0
 1568 1217 1563 1171 1563 1125 c 0
 1563 1067 1570 1010 1606 974 c 1
 1586 953 l 1
 1551 989 1499 999 1440 999 c 0
 1371 999 1290 985 1219 985 c 0
 1158 985 1104 995 1068 1031 c 1
 1047 1011 l 1
 1075 984 1086 949 1086 911 c 2
 1086 81 l 2xa1
 1086 -127 1123 -331 1123 -540 c 0
 1123 -562 1114 -614 1082 -614 c 0
 1046 -614 1041 -546 1041 -522 c 0x82
 1041 -382 1068 -245 1068 -105 c 0
 1068 -80 1065 4 1025 4 c 0
 993 4 980 -45 980 -70 c 0x85
 980 -140 1003 -209 1003 -279 c 0
 1003 -303 995 -351 962 -351 c 0
 931 -351 921 -309 921 -286 c 0x90
 921 -220 957 -159 957 -92 c 0
 957 -25 895 -4 838 -4 c 0
 735 -4 584 -71 584 -191 c 0xa4
 584 -254 611 -315 611 -378 c 0
 611 -404 605 -429 574 -429 c 0
 541 -429 532 -404 532 -375 c 0xc0
 532 -306 564 -239 564 -170 c 2
 564 90 l 1
 565 364 566 637 566 911 c 0
 566 949 576 984 604 1011 c 1
 584 1031 l 1
 549 995 497 986 438 986 c 0
 370 986 291 999 223 999 c 0
 163 999 110 989 74 953 c 1
 54 974 l 1
 82 1002 92 1035 92 1073 c 0
 92 1107 97 1154 97 1201 c 0
 97 1259 90 1318 54 1353 c 1
 74 1373 l 1
 102 1346 135 1334 173 1334 c 2xa0
953 -728 m 0
 933 -728 928 -708 928 -692 c 0
 928 -652 945 -541 954 -502 c 1
 963 -542 978 -653 978 -693 c 0x88
 978 -710 973 -728 953 -728 c 0
EndSplineSet
EndChar

StartChar: three
Encoding: 51 51 115
Width: 1855
VWidth: 1658
Flags: HW
LayerCount: 2
Fore
SplineSet
929 984 m 0
 843.180664062 984 691.977539062 951.653320312 709 876 c 1
 650 862 l 1
 642 902 612 909 551 909 c 2
 232 909 l 2
 191 909 157 899 125 874 c 1
 109 894 l 1
 141 919 158 949 168 989 c 0
 231 1259 617 1293 937 1293 c 0
 1170 1293 1713 1246 1713 936 c 0
 1713 823 1653 755 1602 719 c 0
 1575 700 1548 691 1508 690 c 1
 1508 672 l 1
 1548 674 1576 666 1603 649 c 0
 1666 611 1747 532 1747 382 c 0
 1747 15 1264 -35 965 -35 c 0
 655 -35 179 -24 112 358 c 0
 105 399 88 429 57 456 c 1
 74 476 l 1
 106 450 139 440 180 440 c 2
 553 440 l 2
 601 440 630 449 647 486 c 1
 685 467 l 1
 669 431 681 404 713 368 c 0
 767 307 860 290 948 290 c 0
 1016 290 1182 309 1182 403 c 0
 1182 511 1021 515 940 515 c 2
 607 515 l 2
 567 515 536 504 507 475 c 1
 487 496 l 1
 516 525 526 556 526 596 c 2
 526 754 l 2
 526 791 516 818 487 847 c 1
 506 866 l 1
 535 837 562 828 599 828 c 2
 933 828 l 2
 977 828 1146 823 1146 896 c 0
 1146 973 990 984 929 984 c 0
EndSplineSet
EndChar

StartChar: two
Encoding: 50 50 116
Width: 1914
VWidth: 1658
Flags: HW
LayerCount: 2
Fore
SplineSet
1758 253 m 2
 1758 81 l 2
 1758 41 1767 10 1796 -19 c 1
 1777 -39 l 1
 1748 -10 1717 0 1677 0 c 2
 200 0 l 2
 160 0 128 -9 99 -37 c 1
 80 -17 l 1
 109 10 122 41 126 81 c 0
 166 571 570 692 904 760 c 0
 986 776 1227 798 1227 901 c 0
 1227 972 1079 987 1018 987 c 0
 884 987 773 950 737 872 c 0
 724 844 723 824 745 790 c 1
 723 775 l 1
 701 809 682 816 651 816 c 2
 225 816 l 2
 185 816 151 806 119 781 c 1
 103 801 l 1
 135 826 153 856 162 896 c 0
 240 1229 633 1306 973 1306 c 0
 1274 1306 1774 1268 1774 855 c 0
 1774 515 1309 474 1057 438 c 0
 958 424 819 404 717 367 c 0
 669 350 620 335 580 329 c 1
 582 320 l 1
 622 327 673 332 724 332 c 0
 932 332 1472 333 1677 334 c 0
 1717 334 1748 344 1777 373 c 1
 1796 353 l 1
 1767 324 1758 293 1758 253 c 2
EndSplineSet
EndChar

StartChar: u
Encoding: 117 117 117
Width: 1887
VWidth: 1658
Flags: HW
LayerCount: 2
Fore
SplineSet
1150 -37 m 1
 1150 -224 l 2
 1150 -258 1160 -293 1160 -327 c 0
 1160 -341 1158 -361 1139 -361 c 0
 1125 -361 1122 -331 1122 -295 c 0
 1122 -202 1128 -174 1128 -132 c 0
 1128 -81 1121 -24 1061 -24 c 0
 1018 -24 1009 -65 1009 -109 c 0
 1009 -141 1014 -175 1014 -196 c 0
 1014 -255 1039 -312 1039 -370 c 0
 1039 -392 1027 -421 1000 -421 c 0
 972 -421 962 -390 962 -368 c 0
 962 -316 989 -264 989 -210 c 0
 989 -168 994 -70 935 -70 c 0
 852 -70 861 -207 861 -262 c 0
 861 -336 897 -405 897 -476 c 0
 897 -507 885 -549 847 -549 c 0
 811 -549 793 -513 793 -481 c 0
 793 -401 826 -323 826 -242 c 2
 826 -43 l 1
 443 -27 153 63 145 496 c 0
 143 589 143 680 143 773 c 0
 143 927 145 1081 145 1235 c 0
 145 1273 133 1306 106 1334 c 1
 127 1354 l 1
 154 1326 188 1316 226 1316 c 2
 580 1316 l 2
 618 1316 651 1326 679 1354 c 1
 700 1334 l 1
 673 1306 662 1273 662 1235 c 2
 664 721 l 2
 664 509 668 300 939 300 c 0
 1209 300 1215 509 1215 721 c 2
 1217 1235 l 2
 1217 1273 1207 1306 1180 1334 c 1
 1199 1354 l 1
 1227 1326 1261 1316 1299 1316 c 2
 1653 1316 l 2
 1691 1316 1726 1326 1753 1354 c 1
 1773 1334 l 1
 1739 1299 1732 1214 1732 1130 c 0
 1732 910 1741 781 1741 619 c 0
 1741 269 1679 9 1150 -37 c 1
1140 -602 m 0
 1116 -602 1108 -581 1108 -553 c 0
 1108 -505 1133 -438 1141 -438 c 0
 1145 -438 1174 -505 1174 -554 c 0
 1174 -581 1165 -602 1140 -602 c 0
EndSplineSet
EndChar

StartChar: v
Encoding: 118 118 122
Width: 1760
VWidth: 1658
Flags: HW
LayerCount: 2
Fore
SplineSet
623 32 m 2
 606 32 607 -32 607 -42 c 0
 607 -116 622 -189 622 -262 c 0
 622 -280 611 -295 592 -295 c 0
 572 -295 559 -278 559 -259 c 0
 559 -173 587 -90 587 -4 c 0
 587 51 576 105 554 155 c 2
 58 1296 l 2
 43 1332 19 1361 -13 1383 c 1
 0 1402 l 1
 32 1381 69 1371 108 1371 c 2
 457 1371 l 2
 495 1371 524 1380 545 1413 c 1
 574 1395 l 1
 563 1381 557 1363 557 1345 c 0
 557 1299 829 675 874 569 c 1
 919 675 1191 1299 1191 1345 c 0
 1191 1363 1186 1381 1175 1395 c 1
 1203 1413 l 1
 1224 1380 1253 1371 1291 1371 c 2
 1641 1371 l 2
 1680 1371 1718 1381 1750 1402 c 1
 1762 1383 l 1
 1730 1361 1706 1332 1691 1296 c 2
 1188 106 l 2
 1174 74 1175 -39 1175 -76 c 0
 1175 -225 1222 -360 1222 -499 c 0
 1222 -547 1210 -596 1152 -596 c 0
 1096 -596 1083 -547 1083 -500 c 0
 1083 -370 1133 -246 1133 -113 c 0
 1133 -94 1134 32 1107 32 c 2
 623 32 l 2
EndSplineSet
EndChar

StartChar: w
Encoding: 119 119 123
Width: 2587
VWidth: 1658
Flags: W
HStem: -22 19G<1041 1079 1489 1527 2058 2096>
VStem: 462 87<-327.723 -19.843> 490 42<-161.424 11.8838> 1044 480<1161.15 1353.63> 1507 570<20.2715 197.787>
LayerCount: 2
Fore
SplineSet
1761 607 m 1xb0
 1774 607 l 1
 1774 833 1970 1143 1970 1318 c 0
 1970 1339 1964 1359 1951 1376 c 1
 1977 1396 l 1
 2000 1364 2031 1354 2069 1354 c 2
 2436 1354 l 2
 2475 1354 2511 1365 2543 1387 c 1
 2556 1367 l 1
 2524 1345 2504 1313 2491 1276 c 0
 2441 1133 2077 128 2077 51 c 0
 2077 31 2084 12 2096 -4 c 1
 2069 -24 l 1
 2047 8 2017 19 1978 19 c 2
 1607 20 l 2
 1568 20 1538 10 1516 -22 c 1
 1489 -4 l 1
 1501 12 1507 31 1507 51 c 0
 1507 215 1290 523 1290 733 c 1
 1278 733 l 1
 1278 523 1060 211 1060 51 c 0
 1060 31 1066 12 1079 -4 c 1
 1052 -22 l 1
 1030 10 1000 20 961 20 c 2
 591 19 l 2
 569 19 532 13 532 -16 c 0xa8
 532 -98 549 -179 549 -261 c 0
 549 -289 535 -328 502 -328 c 0
 470 -328 462 -285 462 -261 c 0xc0
 462 -160 490 -61 490 40 c 0
 490 59 489 77 484 95 c 1
 78 1276 l 2
 65 1312 44 1345 12 1367 c 1
 26 1387 l 1
 58 1365 94 1354 133 1354 c 2
 500 1354 l 2
 538 1354 569 1364 592 1396 c 1
 618 1376 l 1
 605 1359 597 1339 597 1318 c 0
 597 1146 794 832 794 607 c 1
 807 607 l 1
 807 819 1044 1159 1044 1324 c 0
 1044 1344 1037 1361 1026 1377 c 1
 1052 1397 l 1
 1074 1365 1104 1354 1143 1354 c 2
 1426 1354 l 2
 1465 1354 1494 1365 1516 1397 c 1
 1543 1377 l 1
 1531 1361 1524 1344 1524 1324 c 0
 1524 1165 1757 825 1761 607 c 1xb0
EndSplineSet
EndChar

StartChar: x
Encoding: 120 120 124
Width: 1832
VWidth: 1658
Flags: HW
LayerCount: 2
Fore
SplineSet
865 306 m 2
 702 80 l 2
 688 60 679 44 679 24 c 0
 679 12 683 1 690 -13 c 1
 657 -30 l 1
 638 6 613 14 573 14 c 2
 101 14 l 2
 61 14 24 6 -13 -11 c 1
 -21 4 l 1
 15 22 46 45 72 77 c 2
 555 660 l 2
 582 692 607 706 648 706 c 1
 648 737 l 1
 607 737 583 753 558 786 c 2
 166 1288 l 2
 141 1320 112 1344 76 1362 c 1
 84 1378 l 1
 120 1360 157 1352 197 1352 c 2
 643 1350 l 2
 683 1350 708 1359 726 1395 c 1
 758 1379 l 1
 752 1365 748 1354 748 1342 c 0
 747 1322 757 1305 773 1285 c 2
 889 1135 l 2
 914 1103 925 1070 925 1030 c 1
 950 1030 l 1
 950 1070 962 1103 987 1135 c 2
 1103 1285 l 2
 1118 1305 1127 1322 1127 1342 c 0
 1127 1354 1124 1365 1118 1379 c 1
 1150 1395 l 1
 1168 1359 1193 1350 1233 1350 c 2
 1668 1352 l 2
 1708 1352 1745 1360 1782 1377 c 1
 1789 1362 l 1
 1752 1344 1723 1320 1698 1289 c 2
 1287 785 l 2
 1261 753 1236 738 1195 738 c 1
 1195 706 l 1
 1235 706 1261 691 1286 659 c 2
 1745 77 l 2
 1770 45 1800 22 1836 4 c 1
 1828 -12 l 1
 1792 6 1755 14 1715 14 c 2
 1253 14 l 2
 1204 14 1159 -5 1159 -127 c 0
 1159 -266 1201 -492 1201 -640 c 0
 1201 -708 1161 -742 1122 -742 c 0
 1086 -742 1050 -712 1050 -652 c 0
 1050 -503 1119 -259 1119 -110 c 0
 1119 -34 1120 80 1120 80 c 1
 961 306 l 2
 938 340 925 370 925 412 c 1
 900 412 l 1
 900 371 888 338 865 306 c 2
EndSplineSet
EndChar

StartChar: y
Encoding: 121 121 125
Width: 1780
VWidth: 1658
Flags: HW
LayerCount: 2
Fore
SplineSet
689 10 m 0
 642 10 647 -96 647 -125 c 0
 647 -212 686 -295 686 -382 c 0
 686 -418 676 -450 635 -450 c 0
 595 -450 585 -417 585 -382 c 0
 585 -291 627 -205 627 -114 c 2
 625 294 l 2
 625 330 630 356 669 367 c 1
 659 405 l 1
 652 403 643 401 636 401 c 0
 610 401 596 424 583 444 c 2
 76 1270 l 2
 56 1303 28 1330 -6 1350 c 1
 3 1367 l 1
 37 1348 77 1339 116 1339 c 2
 519 1341 l 2
 557 1341 584 1349 604 1384 c 1
 635 1367 l 1
 628 1354 622 1340 622 1325 c 0
 622 1205 881 973 881 802 c 1
 902 802 l 1
 902 810 l 2
 902 958 1162 1221 1162 1325 c 0
 1162 1340 1155 1354 1148 1367 c 1
 1179 1384 l 1
 1199 1349 1227 1341 1265 1341 c 2
 1644 1339 l 2
 1683 1339 1722 1348 1756 1367 c 1
 1765 1350 l 1
 1731 1330 1702 1303 1682 1270 c 2
 1170 444 l 2
 1153 416 1141 401 1117 401 c 0
 1110 401 1103 402 1094 405 c 1
 1082 368 l 1
 1121 356 1130 318 1130 268 c 0
 1130 226 1124 177 1124 129 c 0
 1124 77 1132 25 1166 -9 c 1
 1145 -29 l 1
 1117 -1 1084 10 1046 10 c 2
 812 10 l 2
 753 10 748 -106 748 -171 c 0
 748 -235 763 -295 763 -357 c 0
 763 -371 761 -392 742 -392 c 0
 722 -392 720 -370 720 -354 c 0
 720 -288 731 -226 731 -158 c 0
 731 -97 728 10 689 10 c 0
EndSplineSet
EndChar

StartChar: z
Encoding: 122 122 128
Width: 1866
VWidth: 1658
Flags: HW
LayerCount: 2
Fore
SplineSet
1642 -136 m 1
 1625 -52 1503 20 1419 20 c 0
 1326 20 1311 -88 1311 -165 c 0
 1311 -217 1316 -269 1316 -328 c 0
 1316 -396 1342 -454 1342 -528 c 0
 1342 -578 1331 -613 1287 -613 c 0
 1245 -613 1233 -580 1233 -533 c 0
 1233 -474 1274 -394 1274 -335 c 0
 1274 -224 1284 0 1175 0 c 2
 288 0 l 2
 181 0 163 -41 163 -107 c 0
 163 -180 179 -499 179 -662 c 0
 179 -729 151 -762 123 -762 c 0
 95 -762 69 -730 69 -662 c 0
 69 -508 112 -268 112 -114 c 0
 112 -55 110 1 110 81 c 2
 110 211 l 2
 110 251 103 275 66 292 c 1
 81 326 l 1
 94 321 104 317 114 317 c 0
 134 318 151 327 171 344 c 2
 871 946 l 2
 902 972 935 992 973 1006 c 1
 968 1020 l 1
 930 1006 891 999 851 999 c 2
 259 999 l 2
 219 999 188 988 159 959 c 1
 139 980 l 1
 168 1009 178 1040 178 1080 c 2
 178 1251 l 2
 178 1291 168 1322 139 1351 c 1
 159 1372 l 1
 188 1343 219 1332 259 1332 c 2
 1636 1332 l 2
 1676 1332 1706 1343 1735 1372 c 1
 1756 1351 l 1
 1727 1322 1717 1291 1717 1251 c 2
 1717 1096 l 2
 1717 1056 1725 1032 1761 1014 c 1
 1746 981 l 1
 1733 986 1722 990 1711 990 c 0
 1691 990 1674 979 1654 963 c 2
 978 395 l 2
 946 368 914 351 876 337 c 1
 880 323 l 1
 918 337 956 344 996 344 c 2
 1606 344 l 2
 1646 344 1677 353 1706 382 c 1
 1725 362 l 1
 1696 333 1687 303 1687 263 c 2
 1687 -130 l 2
 1687 -256 1747 -454 1747 -580 c 0
 1747 -656 1716 -690 1684 -690 c 0
 1650 -690 1616 -653 1616 -586 c 0
 1616 -460 1642 -258 1642 -136 c 1
EndSplineSet
EndChar

StartChar: zero
Encoding: 48 48 130
Width: 1893
VWidth: 1658
Flags: HW
LayerCount: 2
Fore
SplineSet
92 677 m 0
 92 1217 507 1375 948 1375 c 0
 1390 1375 1803 1218 1803 677 c 0
 1803 236 1554 17 1166 -34 c 1
 1163 -39 1163 -47 1163 -56 c 0
 1163 -75 1167 -97 1167 -111 c 0
 1167 -127 1161 -162 1138 -162 c 0
 1116 -162 1111 -138 1111 -113 c 0
 1111 -91 1115 -69 1115 -57 c 0
 1115 -35 1089 -27 1071 -27 c 1
 1067 -36 1067 -47 1067 -61 c 0
 1067 -93 1073 -136 1073 -158 c 0
 1073 -187 1064 -244 1025 -244 c 0
 987 -244 979 -205 979 -162 c 0
 979 -125 985 -85 985 -66 c 0
 985 -29 941 -14 911 -14 c 0
 877 -14 837 -32 837 -72 c 2
 837 -302 l 2
 837 -403 879 -495 879 -596 c 0
 879 -635 857 -683 812 -683 c 0
 765 -683 749 -631 749 -592 c 0
 749 -480 794 -374 794 -254 c 0
 794 -181 791 -7 703 -7 c 0
 329 -7 92 285 92 677 c 0
649 676 m 0
 649 442 741 310 948 310 c 0
 1155 310 1248 442 1248 676 c 0
 1248 900 1142 1022 948 1022 c 0
 754 1022 649 900 649 676 c 0
EndSplineSet
EndChar

StartChar: E_E
Encoding: 65537 -1 131
Width: 3344
VWidth: 1658
Flags: HW
LayerCount: 2
Fore
SplineSet
2159 2 m 2
 2123 2 2085 -25 2085 -63 c 2
 2085 -292 l 2
 2085 -393 2127 -486 2127 -587 c 0
 2127 -626 2105 -674 2060 -674 c 0
 2013 -674 1997 -622 1997 -583 c 0
 1997 -468 2042 -360 2042 -245 c 0
 2042 -177 2044 2 1945 2 c 0
 1841 2 1751 21 1751 -110 c 0
 1751 -195 1777 -275 1777 -360 c 0
 1777 -389 1769 -422 1734 -422 c 0
 1698 -422 1687 -390 1687 -359 c 0
 1687 -273 1725 -192 1725 -106 c 0
 1725 345 1722 797 1722 1249 c 0
 1722 1285 1710 1322 1683 1348 c 1
 1703 1369 l 1
 1730 1343 1767 1330 1803 1330 c 2
 3087 1330 l 2
 3123 1330 3160 1343 3187 1369 c 1
 3207 1348 l 1
 3163 1303 3163 1223 3163 1165 c 0
 3163 1102 3158 1024 3207 976 c 1
 3187 957 l 1
 3137 1007 3020 1008 2952 1008 c 0
 2786 1008 2621 985 2455 985 c 0
 2387 985 2270 986 2220 1036 c 1
 2200 1016 l 1
 2227 990 2239 953 2239 917 c 0
 2239 880 2228 842 2200 815 c 1
 2220 796 l 1
 2268 846 2358 846 2422 846 c 0
 2562 846 2702 823 2842 823 c 0
 2908 823 2997 823 3047 873 c 1
 3068 853 l 1
 3023 808 3024 726 3024 668 c 0
 3024 604 3020 529 3068 479 c 1
 3047 458 l 1
 3000 507 2907 508 2843 508 c 0
 2703 508 2565 486 2425 486 c 0
 2361 486 2269 488 2220 536 c 1
 2201 516 l 1
 2233 493 2243 453 2243 415 c 0
 2243 373 2234 338 2201 310 c 1
 2220 290 l 1
 2268 338 2361 339 2425 339 c 2
 3134 337 l 2
 3170 337 3207 349 3233 376 c 1
 3253 356 l 1
 3209 311 3209 229 3209 171 c 0
 3209 107 3205 33 3253 -17 c 1
 3233 -37 l 1
 3206 -11 3170 2 3134 2 c 2
 2159 2 l 2
762 338 m 2
 1578 337 l 2
 1615 337 1651 349 1677 376 c 1
 1697 356 l 1
 1646 262 1641 93 1641 -17 c 0
 1641 -103 1678 -255 1678 -347 c 0
 1678 -392 1656 -417 1634 -417 c 0
 1612 -417 1589 -391 1589 -338 c 0
 1589 -273 1605 -187 1605 -117 c 0
 1605 5 1557 60 1490 60 c 0
 1397 60 1371 -18 1371 -119 c 0
 1371 -245 1412 -404 1412 -486 c 0
 1412 -529 1387 -551 1362 -551 c 0
 1338 -551 1314 -530 1314 -490 c 0
 1314 -404 1332 -275 1332 -171 c 0
 1332 -73 1316 4 1257 4 c 0
 1235 4 1211 2 1181 2 c 2
 395 2 l 2
 238 2 216 -61 216 -258 c 0
 216 -407 262 -552 262 -700 c 0
 262 -751 247 -807 186 -807 c 0
 121 -807 104 -751 104 -697 c 0
 104 -546 170 -403 170 -252 c 0
 170 -140 165 -29 165 83 c 2
 165 1249 l 2
 165 1286 154 1322 127 1348 c 1
 147 1369 l 1
 174 1343 210 1330 247 1330 c 2
 1531 1330 l 2
 1568 1330 1604 1342 1631 1369 c 1
 1651 1348 l 1
 1603 1300 1607 1199 1607 1131 c 0
 1607 1078 1611 1014 1651 976 c 1
 1631 957 l 1
 1582 1007 1461 1008 1396 1008 c 0
 1230 1008 1065 985 899 985 c 0
 834 985 714 986 665 1036 c 1
 644 1016 l 1
 671 990 683 954 683 917 c 0
 683 879 672 842 644 815 c 1
 665 796 l 1
 711 844 806 846 867 846 c 0
 1007 846 1146 823 1286 823 c 0
 1349 823 1443 825 1491 873 c 1
 1512 853 l 1
 1472 813 1468 733 1468 669 c 0
 1468 608 1464 529 1512 479 c 1
 1491 458 l 1
 1445 506 1349 508 1288 508 c 0
 1148 508 1009 486 869 486 c 0
 807 486 712 489 665 536 c 1
 645 516 l 1
 680 480 687 422 687 366 c 0
 687 338 685 311 685 288 c 0
 685 248 668 208 668 168 c 0
 668 149 673 132 695 132 c 0
 715 132 721 148 721 166 c 0
 721 207 705 249 705 290 c 2
 705 301 l 1
 717 322 737 338 762 338 c 2
EndSplineSet
LCarets2: 1 0 
Ligature2: "'liga'" E E
EndChar

StartChar: paragraph
Encoding: 182 182 132
Width: 1891
VWidth: 1658
Flags: HW
LayerCount: 2
Fore
SplineSet
1115 480 m 2
 565 480 l 2
 196 480 80 672 80 931 c 0
 80 1327 477 1336 772 1336 c 2
 1634 1336 l 2
 1674 1336 1705 1345 1734 1374 c 1
 1755 1354 l 1
 1726 1325 1715 1295 1715 1255 c 2
 1715 81 l 2
 1715 -2 1714 -62 1714 -122 c 0
 1714 -214 1757 -350 1757 -441 c 0
 1757 -497 1740 -535 1688 -535 c 0
 1638 -535 1623 -497 1623 -443 c 0
 1623 -357 1662 -229 1662 -144 c 0
 1662 -41 1660 1170 1659 1170 c 2
 1461 1170 l 1
 1461 -52 l 2
 1461 -125 1498 -232 1498 -304 c 0
 1498 -341 1487 -366 1452 -366 c 0
 1420 -366 1409 -341 1409 -305 c 0
 1409 -237 1435 -136 1435 -68 c 0
 1435 -37 1434 -15 1430 0 c 1
 1277 0 l 2
 1268 0 1242 -36 1242 -123 c 0
 1242 -209 1286 -341 1286 -427 c 0
 1286 -478 1271 -514 1222 -514 c 0
 1172 -514 1157 -478 1157 -425 c 0
 1157 -339 1197 -208 1197 -122 c 0
 1197 51.6669921875 1197 225.333007812 1197 399 c 0
 1197 439 1206 470 1235 499 c 1
 1215 518 l 1
 1186 489 1155 480 1115 480 c 2
EndSplineSet
EndChar

StartChar: copyright
Encoding: 169 169 133
Width: 2076
VWidth: 1658
Flags: HW
LayerCount: 2
Fore
SplineSet
1727 411 m 0
 1662 138 1308 71 1066 68 c 1
 688 68 325 147 325 628 c 0
 325 1058 680 1179 1049 1179 c 0
 1298 1179 1649 1134 1709 841 c 0
 1715 809 1725 785 1751 765 c 1
 1738 748 l 1
 1716 764 1690 772 1663 772 c 2
 1655 772 l 1
 1350 753 l 1
 1320 750 1294 743 1281 714 c 1
 1255 726 l 1
 1259 736 1264 747 1264 758 c 0
 1264 875 1093 904 1008 904 c 0
 846 904 759 777 759 626 c 0
 759 449 859 328 1041 328 c 0
 1123 328 1272 400 1272 495 c 0
 1272 506 1268 516 1264 526 c 1
 1290 539 l 1
 1304 510 1328 503 1359 500 c 0
 1466 493 1578 480 1686 480 c 0
 1713 480 1737 488 1758 504 c 1
 1771 487 l 1
 1744 467 1735 443 1727 411 c 0
204 612 m 0
 204 149 578 -224 1040 -224 c 0
 1503 -224 1878 149 1878 612 c 0
 1878 1074 1503 1450 1040 1450 c 0
 578 1450 204 1074 204 612 c 0
643 -241 m 1
 318 -92 92 230 92 612 c 0
 92 1135 517 1560 1040 1560 c 0
 1563 1560 1988 1135 1988 612 c 0
 1988 236 1769 -90 1450 -243 c 1
 1389 -258 1328 -285 1271 -293 c 1
 1271 -477 1319 -657 1319 -839 c 0
 1319 -873 1302 -915 1262 -915 c 0
 1222 -915 1204 -873 1204 -839 c 0
 1204 -688 1237 -536 1237 -385 c 0
 1237 -289 1197 -293 1115 -293 c 0
 1093 -293 992 -298 992 -330 c 0
 992 -421 1016 -511 1016 -602 c 0
 1016 -625 1010 -668 978 -668 c 0
 948 -668 940 -627 940 -605 c 0
 940 -511 967 -422 967 -328 c 0
 967 -313 959 -296 941 -296 c 0
 925 -296 855 -301 855 -328 c 0
 855 -472 866 -616 866 -760 c 0
 866 -781 851 -805 828 -805 c 0
 806 -805 793 -785 793 -765 c 0
 793 -607 809 -449 812 -291 c 1
 751 -282 696 -258 643 -241 c 1
EndSplineSet
EndChar

StartChar: bracketleft
Encoding: 91 91 134
Width: 1128
VWidth: 1658
Flags: HW
LayerCount: 2
Fore
SplineSet
181 -174 m 2
 181 1418 l 2
 181 1476 174 1535 138 1570 c 1
 158 1590 l 1
 186 1563 219 1552 257 1552 c 2
 974 1552 l 2
 1012 1552 1046 1562 1074 1590 c 1
 1094 1570 l 1
 1066 1542 1055 1509 1055 1471 c 0
 1055 1435 1050 1388 1050 1342 c 0
 1050 1284 1058 1227 1094 1191 c 1
 1074 1170 l 1
 1039 1206 986 1216 927 1216 c 0
 896 1216 868 1202 836 1202 c 0
 775 1202 721 1212 685 1248 c 1
 665 1228 l 1
 693 1201 704 1167 704 1129 c 2
 704 116 l 2
 704 78 693 43 665 16 c 1
 685 -4 l 1
 721 32 775 42 836 42 c 0
 868 42 896 29 927 29 c 0
 986 29 1039 38 1074 74 c 1
 1094 53 l 1
 1058 17 1050 -40 1050 -98 c 0
 1050 -144 1055 -190 1055 -226 c 0
 1055 -264 1066 -298 1094 -326 c 1
 1074 -346 l 1
 1046 -318 1012 -307 974 -307 c 2
 257 -307 l 2
 219 -307 186 -319 158 -346 c 1
 138 -326 l 1
 174 -291 181 -232 181 -174 c 2
EndSplineSet
EndChar

StartChar: bracketright
Encoding: 93 93 135
Width: 1131
VWidth: 1658
Flags: HW
LayerCount: 2
Fore
SplineSet
952 1418 m 2
 952 -174 l 2
 952 -232 959 -291 995 -326 c 1
 975 -346 l 1
 947 -319 913 -307 875 -307 c 2
 159 -307 l 2
 121 -307 87 -318 59 -346 c 1
 39 -326 l 1
 67 -298 78 -264 78 -226 c 0
 78 -190 83 -144 83 -98 c 0
 83 -40 75 17 39 53 c 1
 59 74 l 1
 94 38 147 29 206 29 c 0
 237 29 265 42 297 42 c 0
 358 42 412 32 448 -4 c 1
 469 16 l 1
 441 43 429 78 429 116 c 2
 429 1129 l 2
 429 1167 441 1201 469 1228 c 1
 448 1248 l 1
 412 1212 358 1202 297 1202 c 0
 265 1202 237 1216 206 1216 c 0
 147 1216 94 1206 59 1170 c 1
 39 1191 l 1
 75 1227 83 1284 83 1342 c 0
 83 1388 78 1435 78 1471 c 0
 78 1509 67 1542 39 1570 c 1
 59 1590 l 1
 87 1562 121 1552 159 1552 c 2
 875 1552 l 2
 913 1552 947 1563 975 1590 c 1
 995 1570 l 1
 959 1535 952 1476 952 1418 c 2
EndSplineSet
EndChar

StartChar: comma
Encoding: 44 44 137
Width: 725
VWidth: 1658
Flags: HW
LayerCount: 2
Fore
SplineSet
380.026367188 0 m 1
 219.026367188 0 l 2
 138.026367188 0 138.026367188 0 138.026367188 81 c 2
 138.026367188 203 l 2
 138.026367188 313 135.026367188 325 193.026367188 325 c 2
 469.026367188 325 l 2
 579.026367188 325 591.026367188 329 591.026367188 271 c 0
 591.026367188 254 590.026367188 215 590.026367188 81 c 0
 590.026367188 -73 494.026367188 -232 444.026367188 -302 c 1
 293.026367188 -290 l 1
 359.026367188 -155 380.026367188 0 380.026367188 0 c 1
EndSplineSet
EndChar

StartChar: semicolon
Encoding: 59 59 138
Width: 779
VWidth: 1658
Flags: HW
LayerCount: 2
Fore
SplineSet
403.026367188 0 m 1
 242.026367188 0 l 2
 161.026367188 0 161.026367188 0 161.026367188 81 c 2
 161.026367188 203 l 2
 161.026367188 313 158.026367188 325 216.026367188 325 c 2
 492.026367188 325 l 2
 602.026367188 325 615.026367188 329 615.026367188 271 c 0
 615.026367188 254 614.026367188 215 614.026367188 81 c 0
 614.026367188 -73 516.026367188 -232 466.026367188 -302 c 1
 316.026367188 -290 l 1
 382.026367188 -155 403.026367188 0 403.026367188 0 c 1
493.026367188 677 m 2
 284.026367188 677 l 2
 173.026367188 677 162.026367188 673 162.026367188 734 c 2
 162.026367188 968 l 2
 162.026367188 1029 173.026367188 1026 284.026367188 1026 c 2
 493.026367188 1026 l 2
 604.026367188 1026 616.026367188 1029 616.026367188 968 c 2
 616.026367188 734 l 2
 616.026367188 673 604.026367188 677 493.026367188 677 c 2
EndSplineSet
EndChar

StartChar: cent
Encoding: 162 162 139
Width: 1958
VWidth: 1658
Flags: HW
LayerCount: 2
Fore
SplineSet
886 982 m 1
 720 958 631 827 631 676 c 0
 631 503 720 381 886 345 c 1
 886 982 l 1
886 -275 m 1
 886 -4 l 1
 395 -4 82 217 82 679 c 0
 82 1150 462 1308 886 1332 c 1
 885 1557 l 1
 917 1544 948 1538 980 1538 c 0
 1012 1538 1043 1544 1075 1557 c 1
 1076 1333 l 1
 1381 1323 1759 1260 1829 971 c 1
 1837 931 1851 903 1883 877 c 1
 1866 855 l 1
 1834 878 1800 886 1762 886 c 1
 1377 861 l 1
 1339 857 1307 848 1290 812 c 1
 1257 828 l 1
 1263 841 1268 853 1268 867 c 0
 1268 926 1171 956 1076 971 c 1
 1076 350 l 1
 1172 370 1278 426 1278 487 c 0
 1278 501 1274 513 1268 526 c 1
 1300 544 l 1
 1319 508 1348 496 1387 493 c 0
 1522 484 1664 467 1799 467 c 0
 1833 467 1864 479 1891 499 c 1
 1908 477 l 1
 1874 452 1864 421 1853 382 c 0
 1784 127 1413 18 1076 4 c 1
 1076 -275 l 1
 1044 -262 1013 -256 981 -256 c 0
 949 -256 918 -262 886 -275 c 1
EndSplineSet
EndChar

StartChar: Euro
Encoding: 8364 8364 140
Width: 2121
VWidth: 1658
Flags: HW
LayerCount: 2
Fore
SplineSet
872 -24 m 1
 544 21 330 185 262 469 c 1
 198 469 l 2
 150 469 104 467 69 463 c 1
 69 615 l 1
 109 605 172 602 240 602 c 2
 241 602 l 1
 239 627 239 652 239 679 c 0
 239 699 239 718 240 738 c 1
 198 738 l 2
 150 738 104 736 69 732 c 1
 69 884 l 1
 109 874 172 871 240 871 c 2
 261 871 l 1
 355 1259 747 1375 1153 1375 c 0
 1468 1375 1910 1318 1986 947 c 0
 1994 907 2008 878 2040 852 c 1
 2022 830 l 1
 1990 853 1956 861 1918 861 c 1
 1533 837 l 2
 1495 834 1463 825 1446 788 c 1
 1413 804 l 1
 1419 817 1424 828 1424 842 c 0
 1424 989 1209 1027 1102 1027 c 0
 974 1027 883 965 833 871 c 1
 939 871 l 2
 1007 871 1064 874 1104 884 c 1
 1104 732 l 1
 1069 736 1029 738 981 738 c 2
 792 738 l 1
 788 718 788 697 788 676 c 0
 788 650 789 625 793 602 c 1
 939 602 l 2
 1007 602 1064 605 1104 615 c 1
 1104 463 l 1
 1069 467 1029 469 981 469 c 2
 834 469 l 1
 890 365 995 302 1144 302 c 0
 1247 302 1435 391 1435 511 c 0
 1435 525 1430 538 1424 551 c 1
 1456 568 l 1
 1475 532 1505 521 1544 518 c 0
 1679 509 1820 491 1955 491 c 0
 1989 491 2021 502 2048 522 c 1
 2064 501 l 1
 2028 476 2018 446 2009 407 c 0
 1938 113 1591 10 1331 -27 c 1
 1331 -211 1380 -390 1380 -572 c 0
 1380 -606 1362 -649 1322 -649 c 0
 1282 -649 1265 -606 1265 -572 c 0
 1265 -421 1298 -270 1298 -119 c 0
 1298 -23 1258 -27 1176 -27 c 0
 1154 -27 1052 -32 1052 -64 c 0
 1052 -155 1076 -245 1076 -336 c 0
 1076 -359 1071 -401 1039 -401 c 0
 1009 -401 1000 -360 1000 -338 c 0
 1000 -244 1028 -156 1028 -62 c 0
 1028 -47 1020 -30 1002 -30 c 0
 986 -30 915 -34 915 -61 c 0
 915 -205 926 -350 926 -494 c 0
 926 -515 911 -538 888 -538 c 0
 866 -538 852 -519 852 -499 c 0
 852 -341 869 -182 872 -24 c 1
EndSplineSet
EndChar

StartChar: hyphen
Encoding: 45 45 141
Width: 1127
VWidth: 1658
Flags: HW
LayerCount: 2
Fore
SplineSet
858 559 m 2
 290 559 l 2
 242 559 196 557 161 553 c 1
 161 884 l 1
 201 874 264 871 332 871 c 2
 815 871 l 2
 883 871 941 874 981 884 c 1
 981 553 l 1
 946 557 906 559 858 559 c 2
EndSplineSet
EndChar

StartChar: minus
Encoding: 8722 8722 142
Width: 1127
VWidth: 1658
Flags: HW
LayerCount: 2
Fore
SplineSet
858 559 m 2
 290 559 l 2
 242 559 196 557 161 553 c 1
 161 884 l 1
 201 874 264 871 332 871 c 2
 815 871 l 2
 883 871 941 874 981 884 c 1
 981 553 l 1
 946 557 906 559 858 559 c 2
EndSplineSet
EndChar

StartChar: AE
Encoding: 198 198 143
Width: 2820
VWidth: 1658
Flags: HW
LayerCount: 2
Fore
SplineSet
1713 338 m 1
 2607 337 l 2
 2644 337 2680 349 2706 376 c 1
 2727 356 l 1
 2676 262 2670 93 2670 -17 c 0
 2670 -103 2708 -255 2708 -347 c 0
 2708 -392 2686 -417 2664 -417 c 0
 2642 -417 2619 -391 2619 -338 c 0
 2619 -273 2634 -187 2634 -117 c 0
 2634 5 2586 60 2519 60 c 0
 2426 60 2401 -18 2401 -119 c 0
 2401 -245 2442 -404 2442 -486 c 0
 2442 -529 2416 -551 2391 -551 c 0
 2367 -551 2343 -530 2343 -490 c 0
 2343 -404 2361 -275 2361 -171 c 0
 2361 -73 2346 4 2287 4 c 0
 2265 4 2240 2 2210 2 c 2
 1442 2 l 1
 1437 0 l 1
 1437 -29 l 2
 1437 -49 1423 -58 1410 -58 c 0
 1396 -58 1383 -49 1383 -29 c 2
 1383 0 l 1
 1264 -13 1245 -80 1245 -258 c 0
 1245 -407 1291 -552 1291 -700 c 0
 1291 -751 1276 -807 1215 -807 c 0
 1150 -807 1134 -751 1134 -697 c 0
 1134 -546 1200 -403 1200 -252 c 0
 1200 -140 1195 -29 1195 83 c 2
 1195 153 l 1
 1166 152 1141 152 1109 152 c 2
 697 152 l 2
 657 152 635 162 625 194 c 1
 591 176 l 1
 594 169 595 161 595 154 c 0
 595 128 582 104 562 77 c 1
 560 76 l 1
 538 47 527 23 527 -1 c 0
 527 -8 528 -16 531 -23 c 1
 498 -42 l 1
 488 -10 466 0 426 0 c 2
 64 0 l 1
 61 -19 59 -41 56 -64 c 1
 57 -115 58 -173 58 -223 c 0
 58 -279 32 -310 7 -310 c 0
 -15 -310 -38 -285 -38 -230 c 0
 -38 -120 -11 -10 14 21 c 2
 1034 1257 l 2
 1058 1287 1073 1310 1073 1338 c 0
 1073 1343 1072 1351 1070 1357 c 1
 1106 1375 l 1
 1115 1342 1138 1332 1178 1332 c 2
 1638 1332 l 1
 2560 1330 l 2
 2597 1330 2633 1342 2660 1369 c 1
 2680 1348 l 1
 2631 1299 2637 1198 2637 1131 c 0
 2637 1076 2640 1013 2680 976 c 1
 2660 957 l 1
 2611 1007 2490 1008 2425 1008 c 0
 2259 1008 2094 985 1928 985 c 0
 1863 985 1743 986 1694 1036 c 1
 1674 1016 l 1
 1701 990 1713 954 1713 917 c 2
 1713 822 l 1
 1714 822 l 2
 1854 822 1994 823 2134 823 c 0
 2197 823 2292 825 2340 873 c 1
 2360 853 l 1
 2320 817 2316 749 2316 693 c 0
 2316 639 2312 570 2360 527 c 1
 2340 507 l 1
 2294 555 2197 557 2136 557 c 0
 2003 557 1847 556 1713 556 c 1
 1713 338 l 1
917 429 m 2
 1109 429 l 2
 1145 429 1173 429 1195 428 c 1
 1195 903 l 1
 1181 878 1167 854 1148 830 c 2
 895 506 l 2
 876 483 863 462 840 448 c 1
 844 428 l 1
 869 429 891 429 917 429 c 2
33 -598 m 1
 32 -620 20 -631 6 -631 c 0
 -8 -631 -23 -619 -23 -596 c 0
 -23 -543 -7 -475 6 -423 c 1
 18 -477 33 -544 33 -598 c 1
EndSplineSet
EndChar

StartChar: ring
Encoding: 730 730 145
Width: 920
VWidth: 1658
Flags: HW
LayerCount: 2
Fore
SplineSet
272 1734 m 0
 272 1627.92094862 335.724137931 1521 464 1521 c 0
 592.16017316 1521 655 1627.92094862 655 1734 c 0
 655 1840.07905138 592.16017316 1947 464 1947 c 0
 335.724137931 1947 272 1840.07905138 272 1734 c 0
93 1734 m 4
 93 1918 214.268698061 2103 464 2103 c 0
 713.75 2103 834 1918 834 1734 c 0
 834 1550 713.75 1364 464 1364 c 0
 214.268698061 1364 93 1550 93 1734 c 4
EndSplineSet
EndChar

StartChar: registered
Encoding: 174 174 146
Width: 2076
VWidth: 1658
Flags: HW
LayerCount: 2
Fore
SplineSet
1240 158 m 1
 1240 158 1161 360 1082 528 c 1
 838 528 l 1
 838 158 l 1
 508 158 l 1
 508 158 507 234 507 1059 c 0
 507 1085 499 1109 480 1127 c 1
 495 1141 l 1
 514 1122 536 1114 562 1114 c 2
 1173 1114 l 2
 1375 1114 1645 1109 1645 839 c 0
 1645 709 1598 579 1412 579 c 1
 1406 563 l 1
 1426 555 1454 536 1464 515 c 0
 1502 431 1606 256 1606 256 c 1
 1658 158 l 1
 1240 158 l 1
861 832 m 2
 861 786 l 2
 861 760 854 737 835 717 c 1
 848 704 l 1
 871 728 918 734 970 734 c 0
 1024 734 1088 728 1143 728 c 0
 1223 728 1288 743 1288 813 c 0
 1288 877 1221 888 1139 888 c 0
 1087 888 1028 884 977 884 c 0
 921 884 872 890 848 914 c 1
 835 900 l 1
 854 881 861 858 861 832 c 2
204 612 m 0
 204 149 578 -224 1040 -224 c 0
 1503 -224 1878 149 1878 612 c 0
 1878 1074 1503 1450 1040 1450 c 0
 578 1450 204 1074 204 612 c 0
643 -241 m 1
 318 -92 92 230 92 612 c 0
 92 1135 517 1560 1040 1560 c 0
 1563 1560 1988 1135 1988 612 c 0
 1988 236 1769 -90 1450 -243 c 1
 1389 -258 1328 -285 1271 -293 c 1
 1271 -477 1319 -657 1319 -839 c 0
 1319 -873 1302 -915 1262 -915 c 0
 1222 -915 1204 -873 1204 -839 c 0
 1204 -688 1237 -536 1237 -385 c 0
 1237 -289 1197 -293 1115 -293 c 0
 1093 -293 992 -298 992 -330 c 0
 992 -421 1016 -511 1016 -602 c 0
 1016 -625 1010 -668 978 -668 c 0
 948 -668 940 -627 940 -605 c 0
 940 -511 967 -422 967 -328 c 0
 967 -313 959 -296 941 -296 c 0
 925 -296 855 -301 855 -328 c 0
 855 -472 866 -616 866 -760 c 0
 866 -781 851 -805 828 -805 c 0
 806 -805 793 -785 793 -765 c 0
 793 -607 809 -449 812 -291 c 1
 751 -282 696 -258 643 -241 c 1
EndSplineSet
EndChar

StartChar: trademark
Encoding: 8482 8482 147
Width: 2299
VWidth: 1658
Flags: HW
LayerCount: 2
Fore
SplineSet
591 681 m 5
 296 681 l 5
 297 851 296 1101 296 1278 c 5
 162 1278 l 6
 119 1278 79 1275 56 1250 c 5
 44 1262 l 5
 60 1279 66 1299 66 1321 c 4
 66 1341 69 1369 69 1397 c 4
 69 1432 64 1466 44 1487 c 5
 56 1500 l 5
 72 1484 91 1476 112 1476 c 6
 766 1476 l 6
 787 1476 807 1483 823 1500 c 5
 835 1487 l 5
 819 1470 812 1450 812 1428 c 4
 812 1407 810 1379 810 1352 c 4
 810 1318 815 1283 835 1262 c 5
 823 1250 l 5
 803 1271 774 1277 740 1277 c 4
 714 1277 685 1276 657 1276 c 4
 643 1276 628 1276 615 1277 c 6
 591 1278 l 5
 591 681 l 5
2138 681 m 5
 1856 681 l 5
 1856 1192 l 6
 1856 1216 1864 1240 1881 1264 c 5
 1849 1264 l 5
 1826 1127 1707 822 1675 681 c 5
 1434 681 l 5
 1402 823 1282 1113 1260 1263 c 5
 1228 1263 l 5
 1245 1239 1253 1216 1253 1192 c 6
 1253 681 l 5
 972 681 l 5
 972 1388 l 6
 972 1434 960 1473 932 1506 c 5
 943 1518 l 5
 975 1489 1011 1475 1054 1475 c 6
 1343 1475 l 6
 1386 1475 1426 1488 1449 1520 c 5
 1464 1509 l 5
 1447 1482 1435 1454 1435 1419 c 4
 1435 1332 1550 1195 1551 1081 c 5
 1559 1081 l 5
 1560 1196 1674 1331 1674 1418 c 4
 1674 1453 1662 1482 1645 1509 c 5
 1660 1520 l 5
 1683 1488 1723 1475 1766 1475 c 6
 2056 1475 l 6
 2099 1475 2135 1489 2167 1518 c 5
 2178 1506 l 5
 2150 1473 2138 1434 2138 1388 c 6
 2138 681 l 5
EndSplineSet
EndChar

StartChar: plus
Encoding: 43 43 148
Width: 1066
VWidth: 1658
Flags: HW
LayerCount: 2
Fore
SplineSet
697 1029 m 2
 697 871 l 1
 807 871 l 2
 875 871 934 874 974 884 c 1
 974 553 l 1
 939 557 897 559 849 559 c 2
 697 559 l 1
 697 412 l 2
 697 364 700 319 704 284 c 1
 372 284 l 1
 382 324 386 386 386 454 c 2
 386 559 l 1
 233 559 l 2
 185 559 139 557 104 553 c 1
 104 884 l 1
 144 874 207 871 275 871 c 2
 386 871 l 1
 386 986 l 2
 386 1054 382 1113 372 1153 c 1
 704 1153 l 1
 700 1118 697 1077 697 1029 c 2
EndSplineSet
EndChar

StartChar: bar
Encoding: 124 124 149
Width: 637
VWidth: 1658
Flags: HW
LayerCount: 2
Fore
SplineSet
473 -1 m 1
 159 -1 l 1
 172 39 179 102 183 170 c 1
 183 1166 l 1
 179 1234 176 1292 165 1332 c 1
 480 1332 l 1
 467 1292 459 1234 455 1166 c 1
 455 170 l 1
 459 102 462 39 473 -1 c 1
EndSplineSet
EndChar

StartChar: slash
Encoding: 47 47 150
Width: 801
VWidth: 1658
Flags: HW
LayerCount: 2
Fore
SplineSet
373 -1 m 1
 18 -1 l 1
 42 39 67 102 90 170 c 1
 389 1166 l 1
 404 1234 417 1292 418 1332 c 1
 774 1332 l 1
 750 1292 725 1234 702 1166 c 1
 404 170 l 1
 387 102 375 39 373 -1 c 1
EndSplineSet
EndChar

StartChar: sterling
Encoding: 163 163 152
Width: 1949
VWidth: 1658
Flags: HW
LayerCount: 2
Fore
SplineSet
255 335 m 0
 283 335 304 321 320 306 c 1
 339 327 l 1
 311 355 301 388 301 426 c 2
 301 521 l 1
 231 521 l 2
 183 521 138 509 103 505 c 1
 103 739 l 1
 143 729 206 725 274 725 c 2
 302 725 l 1
 322 1199 658 1375 1056 1375 c 0
 1552 1375 1776 1143 1819 952 c 1
 1831 912 1850 883 1883 860 c 1
 1868 839 l 1
 1835 858 1802 870 1761 870 c 2
 1371 866 l 1
 1329 864 1303 854 1285 818 c 1
 1252 834 l 1
 1261 847 1260 858 1260 870 c 0
 1260 977 1162 1033 1064 1033 c 0
 900 1033 832 891 822 725 c 1
 953 725 l 2
 1021 725 1080 728 1120 739 c 1
 1120 505 l 1
 1085 509 1044 521 996 521 c 2
 821 521 l 1
 821 426 l 2
 821 388 810 355 782 327 c 1
 802 306 l 1
 841 345 924 357 1025 357 c 0
 1192 357 1405 333 1572 333 c 0
 1672 333 1754 344 1794 384 c 1
 1815 364 l 1
 1787 337 1776 302 1776 264 c 0
 1776 228 1771 181 1771 134 c 0
 1771 76 1779 17 1815 -19 c 1
 1794 -39 l 1
 1767 -11 1733 0 1695 0 c 2
 1403 0 l 1
 1404 -14 1404 -25 1404 -37 c 0
 1404 -72 1398 -93 1376 -93 c 0
 1353 -93 1348 -69 1348 -30 c 0
 1348 -21 1348 -11 1349 0 c 1
 187 0 l 2
 149 0 114 -11 87 -39 c 1
 67 -19 l 1
 103 17 110 76 110 134 c 0
 110 181 105 228 105 264 c 0
 105 302 95 337 67 364 c 1
 87 384 l 1
 121 350 179 335 255 335 c 0
1371 -485 m 0
 1344 -485 1338 -458 1338 -436 c 0
 1338 -383 1360 -315 1372 -263 c 1
 1385 -317 1405 -384 1405 -438 c 0
 1405 -460 1398 -485 1371 -485 c 0
EndSplineSet
EndChar

StartChar: backslash
Encoding: 92 92 153
Width: 801
VWidth: 1658
Flags: HW
LayerCount: 2
Fore
SplineSet
792 -1 m 1
 436 -1 l 1
 434 39 422 102 405 170 c 1
 106 1166 l 1
 83 1234 59 1292 35 1332 c 1
 391 1332 l 1
 392 1292 405 1234 420 1166 c 1
 719 170 l 1
 742 102 768 39 792 -1 c 1
EndSplineSet
EndChar

StartChar: yen
Encoding: 165 165 154
Width: 1743
VWidth: 1658
Flags: HW
LayerCount: 2
Fore
SplineSet
1492 288 m 2
 1128 288 l 1
 1127 -114 l 2
 1127 -205 1169 -291 1169 -382 c 0
 1169 -417 1158 -450 1118 -450 c 0
 1077 -450 1067 -418 1067 -382 c 0
 1067 -295 1107 -212 1107 -125 c 0
 1107 -96 1111 10 1064 10 c 0
 1025 10 1023 -97 1023 -158 c 0
 1023 -226 1034 -288 1034 -354 c 0
 1034 -370 1031 -392 1011 -392 c 0
 992 -392 991 -371 991 -357 c 0
 991 -295 1005 -235 1005 -171 c 0
 1005 -106 1001 10 942 10 c 2
 707 10 l 2
 669 10 636 -1 608 -29 c 1
 587 -9 l 1
 621 25 630 77 630 129 c 0
 630 177 623 226 623 268 c 2
 623 288 l 1
 271 288 l 2
 245 288 222 287 203 284 c 1
 203 462 l 1
 224 457 257 454 294 454 c 2
 577 454 l 1
 522 543 l 1
 271 543 l 2
 245 543 222 542 203 539 c 1
 203 716 l 1
 224 711 257 709 294 709 c 2
 419 709 l 1
 72 1270 l 2
 52 1303 22 1330 -12 1350 c 1
 -2 1367 l 1
 32 1348 70 1339 109 1339 c 2
 488 1341 l 2
 526 1341 555 1349 575 1384 c 1
 605 1367 l 1
 598 1354 593 1340 593 1325 c 0
 593 1221 852 958 852 810 c 2
 852 802 l 1
 873 802 l 1
 873 973 1131 1205 1131 1325 c 0
 1131 1340 1125 1354 1118 1367 c 1
 1149 1384 l 1
 1169 1349 1197 1341 1235 1341 c 2
 1639 1339 l 2
 1678 1339 1716 1348 1750 1367 c 1
 1759 1350 l 1
 1725 1330 1697 1303 1677 1270 c 2
 1333 709 l 1
 1469 709 l 2
 1506 709 1537 711 1558 716 c 1
 1558 539 l 1
 1539 542 1518 543 1492 543 c 2
 1232 543 l 1
 1177 454 l 1
 1469 454 l 2
 1506 454 1537 457 1558 462 c 1
 1558 284 l 1
 1539 287 1518 288 1492 288 c 2
EndSplineSet
EndChar

StartChar: Oslash
Encoding: 216 216 155
Width: 2016
VWidth: 1658
Flags: HW
LayerCount: 2
Back
SplineSet
245 -234 m 1
 76 -67 l 1
 116 -45 169 -1 224 46 c 1
 1716 1457 l 1
 1769 1503 1803 1554 1823 1588 c 1
 1992 1421 l 1
 1952 1399 1903 1357 1848 1310 c 1
 355 -101 l 1
 301 -146 266 -200 245 -234 c 1
570 12 m 1
 251 113 95 347 95 677 c 0
 95 1217 534 1375 1000 1375 c 0
 1466 1375 1903 1218 1903 677 c 0
 1903 236 1636 17 1218 -34 c 1
 1215 -39 1214 -47 1214 -56 c 0
 1214 -75 1218 -97 1218 -111 c 0
 1218 -127 1213 -162 1190 -162 c 0
 1168 -162 1163 -138 1163 -113 c 0
 1163 -91 1166 -69 1166 -57 c 0
 1166 -35 1141 -27 1123 -27 c 1
 1119 -36 1118 -47 1118 -61 c 0
 1118 -93 1124 -136 1124 -158 c 0
 1124 -187 1115 -244 1076 -244 c 0
 1038 -244 1030 -205 1030 -162 c 0
 1030 -125 1037 -85 1037 -66 c 0
 1037 -29 992 -14 962 -14 c 0
 928 -14 889 -32 889 -72 c 2
 889 -302 l 2
 889 -403 930 -495 930 -596 c 0
 930 -635 909 -683 864 -683 c 0
 817 -683 800 -631 800 -592 c 0
 800 -480 846 -374 846 -254 c 0
 846 -181 842 -7 754 -7 c 0
 739 -7 630 -7 630 3 c 2
 630 1 l 2
 630 -136 691 -267 691 -403 c 0
 691 -456 670 -526 605 -526 c 0
 544 -526 513 -463 513 -410 c 0
 513 -268 570 -132 570 12 c 1
651 676 m 0
 651 442 759 310 1000 310 c 0
 1241 310 1348 442 1348 676 c 0
 1348 900 1223 1022 1000 1022 c 0
 777 1022 651 900 651 676 c 0
EndSplineSet
Fore
SplineSet
245 -234 m 1
 76 -67 l 1
 116 -45 169 -1 224 46 c 1
 323.675025917 140.263714188 l 1
 170.440323903 264.455756117 95 447.515470703 95 677 c 0
 95 1217 534 1375 1000 1375 c 0
 1190.6628807 1375 1376.47110535 1348.71789658 1529.47988306 1280.6059752 c 1
 1716 1457 l 1
 1769 1503 1803 1554 1823 1588 c 1
 1992 1421 l 1
 1952 1399 1903 1357 1848 1310 c 1
 1702.11966867 1172.13185029 l 1
 1825.97628839 1063.57184039 1903 904.127001727 1903 677 c 0
 1903 236 1636 17 1218 -34 c 1
 1215 -39 1214 -47 1214 -56 c 0
 1214 -75 1218 -97 1218 -111 c 0
 1218 -127 1213 -162 1190 -162 c 0
 1168 -162 1163 -138 1163 -113 c 0
 1163 -91 1166 -69 1166 -57 c 0
 1166 -35 1141 -27 1123 -27 c 1
 1119 -36 1118 -47 1118 -61 c 0
 1118 -93 1124 -136 1124 -158 c 0
 1124 -187 1115 -244 1076 -244 c 0
 1038 -244 1030 -205 1030 -162 c 0
 1030 -125 1037 -85 1037 -66 c 0
 1037 -29 992 -14 962 -14 c 0
 928 -14 889 -32 889 -72 c 2
 889 -302 l 2
 889 -403 930 -495 930 -596 c 0
 930 -635 909 -683 864 -683 c 0
 817 -683 800 -631 800 -592 c 0
 800 -480 846 -374 846 -254 c 0
 846 -181 842 -7 754 -7 c 0
 739 -7 630 -7 630 3 c 2
 630 1 l 2
 630 -136 691 -267 691 -403 c 0
 691 -456 670 -526 605 -526 c 0
 544 -526 513 -463 513 -410 c 0
 513 -268 570 -132 570 12 c 1
 546.074559642 19.5751394237 523.066028036 27.8984313874 500.971451893 36.954265654 c 1
 355 -101 l 1
 301 -146 266 -200 245 -234 c 1
824.006510346 342.24727803 m 1
 871.998803143 320.98930452 930.463123158 310 1000 310 c 0
 1241 310 1348 442 1348 676 c 0
 1348 729.115578083 1340.97157846 776.495964187 1327.27472123 817.874502115 c 1
 824.006510346 342.24727803 l 1
685.523329886 482.467438652 m 1
 1204.81020543 973.562466395 l 1
 1150.66892784 1005.52327169 1081.95216627 1022 1000 1022 c 0
 777 1022 651 900 651 676 c 0
 651 600.549299039 662.228418689 535.703215729 685.523329886 482.467438652 c 1
EndSplineSet
EndChar

StartChar: multiply
Encoding: 215 215 156
Width: 994
VWidth: 1658
Flags: HW
LayerCount: 2
Fore
SplineSet
380 1049 m 2
 492 938 l 1
 569 1016 l 2
 618 1065 656 1108 678 1143 c 1
 912 908 l 1
 883 887 853 859 819 825 c 2
 712 717 l 1
 816 614 l 2
 850 580 883 548 911 527 c 1
 677 293 l 1
 655 327 614 374 565 424 c 2
 492 498 l 1
 384 390 l 2
 350 356 318 322 297 294 c 1
 63 528 l 1
 97 549 144 590 194 640 c 2
 271 717 l 1
 189 799 l 2
 139 848 96 886 62 908 c 1
 297 1142 l 1
 318 1113 346 1083 380 1049 c 2
EndSplineSet
EndChar

StartChar: ae
Encoding: 230 230 157
Width: 2820
VWidth: 1658
Flags: HW
LayerCount: 2
Fore
SplineSet
1713 338 m 1
 2607 337 l 2
 2644 337 2680 349 2706 376 c 1
 2727 356 l 1
 2676 262 2670 93 2670 -17 c 0
 2670 -103 2708 -255 2708 -347 c 0
 2708 -392 2686 -417 2664 -417 c 0
 2642 -417 2619 -391 2619 -338 c 0
 2619 -273 2634 -187 2634 -117 c 0
 2634 5 2586 60 2519 60 c 0
 2426 60 2401 -18 2401 -119 c 0
 2401 -245 2442 -404 2442 -486 c 0
 2442 -529 2416 -551 2391 -551 c 0
 2367 -551 2343 -530 2343 -490 c 0
 2343 -404 2361 -275 2361 -171 c 0
 2361 -73 2346 4 2287 4 c 0
 2265 4 2240 2 2210 2 c 2
 1442 2 l 1
 1437 0 l 1
 1437 -29 l 2
 1437 -49 1423 -58 1410 -58 c 0
 1396 -58 1383 -49 1383 -29 c 2
 1383 0 l 1
 1264 -13 1245 -80 1245 -258 c 0
 1245 -407 1291 -552 1291 -700 c 0
 1291 -751 1276 -807 1215 -807 c 0
 1150 -807 1134 -751 1134 -697 c 0
 1134 -546 1200 -403 1200 -252 c 0
 1200 -140 1195 -29 1195 83 c 2
 1195 153 l 1
 1166 152 1141 152 1109 152 c 2
 697 152 l 2
 657 152 635 162 625 194 c 1
 591 176 l 1
 594 169 595 161 595 154 c 0
 595 128 582 104 562 77 c 1
 560 76 l 1
 538 47 527 23 527 -1 c 0
 527 -8 528 -16 531 -23 c 1
 498 -42 l 1
 488 -10 466 0 426 0 c 2
 64 0 l 1
 61 -19 59 -41 56 -64 c 1
 57 -115 58 -173 58 -223 c 0
 58 -279 32 -310 7 -310 c 0
 -15 -310 -38 -285 -38 -230 c 0
 -38 -120 -11 -10 14 21 c 2
 1034 1257 l 2
 1058 1287 1073 1310 1073 1338 c 0
 1073 1343 1072 1351 1070 1357 c 1
 1106 1375 l 1
 1115 1342 1138 1332 1178 1332 c 2
 1638 1332 l 1
 2560 1330 l 2
 2597 1330 2633 1342 2660 1369 c 1
 2680 1348 l 1
 2631 1299 2637 1198 2637 1131 c 0
 2637 1076 2640 1013 2680 976 c 1
 2660 957 l 1
 2611 1007 2490 1008 2425 1008 c 0
 2259 1008 2094 985 1928 985 c 0
 1863 985 1743 986 1694 1036 c 1
 1674 1016 l 1
 1701 990 1713 954 1713 917 c 2
 1713 822 l 1
 1714 822 l 2
 1854 822 1994 823 2134 823 c 0
 2197 823 2292 825 2340 873 c 1
 2360 853 l 1
 2320 817 2316 749 2316 693 c 0
 2316 639 2312 570 2360 527 c 1
 2340 507 l 1
 2294 555 2197 557 2136 557 c 0
 2003 557 1847 556 1713 556 c 1
 1713 338 l 1
917 429 m 2
 1109 429 l 2
 1145 429 1173 429 1195 428 c 1
 1195 903 l 1
 1181 878 1167 854 1148 830 c 2
 895 506 l 2
 876 483 863 462 840 448 c 1
 844 428 l 1
 869 429 891 429 917 429 c 2
33 -598 m 1
 32 -620 20 -631 6 -631 c 0
 -8 -631 -23 -619 -23 -596 c 0
 -23 -543 -7 -475 6 -423 c 1
 18 -477 33 -544 33 -598 c 1
EndSplineSet
EndChar

StartChar: Eth
Encoding: 208 208 159
Width: 2013
VWidth: 1658
Flags: HW
LayerCount: 2
Fore
SplineSet
755 -105 m 0
 755 28 560 42 441 42 c 0
 370 42 344 15 344 -76 c 0
 344 -180 381 -289 381 -392 c 0
 381 -424 371 -454 334 -454 c 0
 300 -454 291 -425 291 -396 c 0
 291 -275 319 -155 319 -35 c 0
 319 -15 313 50 283 50 c 0
 261 50 258 6 258 -7 c 0
 258 -62 283 -117 283 -173 c 0
 283 -202 274 -232 239 -232 c 0
 203 -232 197 -201 197 -172 c 0
 197 -111 219 -50 219 12 c 0
 219 192 219 372 219 552 c 1
 197 552 l 2
 149 552 103 543 68 539 c 1
 68 820 l 1
 104 811 158 807 219 806 c 1
 219 1251 l 2
 219 1289 208 1324 180 1351 c 1
 200 1372 l 1
 228 1345 262 1332 300 1332 c 2
 1126 1332 l 2
 1554 1332 1907 1171 1907 693 c 0
 1907 28 1510 0 1004 0 c 2
 859 0 l 2
 775 0 775 -103 775 -120 c 0
 775 -164 791 -204 791 -248 c 0
 791 -266 787 -286 765 -286 c 0
 742 -286 734 -267 734 -247 c 0
 734 -199 755 -153 755 -105 c 0
765 552 m 2
 734 552 l 1
 734 482 735 411 736 342 c 1
 963 342 l 2
 1237 342 1371 395 1371 698 c 0
 1371 1132 833 921 716 1036 c 1
 696 1016 l 1
 724 989 734 954 734 916 c 2
 734 806 l 1
 797 806 851 810 888 820 c 1
 888 539 l 1
 853 543 813 552 765 552 c 2
765 -647 m 0
 739 -647 731 -622 731 -600 c 0
 731 -538 751 -478 764 -418 c 1
 778 -477 797 -537 797 -598 c 0
 797 -619 791 -647 765 -647 c 0
EndSplineSet
EndChar

StartChar: germandbls
Encoding: 223 223 160
Width: 1982
VWidth: 1658
Flags: HW
LayerCount: 2
Fore
SplineSet
1212 503 m 2
 1076 503 l 2
 1011 503 891 502 842 452 c 1
 822 472 l 1
 862 513 866 577 866 635 c 0
 866 703 870 805 822 853 c 1
 842 873 l 1
 869 846 904 834 941 834 c 2
 1083 834 l 2
 1150 834 1252 840 1252 929 c 0
 1252 982 1173 995 1133 995 c 2
 769 994 l 2
 733 994 697 1008 672 1032 c 1
 654 1012 l 1
 679 987 691 953 691 918 c 2
 691 -47 l 2
 691 -114 720 -211 720 -278 c 0
 720 -321 709 -351 669 -351 c 0
 629 -351 616 -322 616 -279 c 0
 616 -212 647 -113 647 -45 c 0
 647 40 578 73 465 73 c 0
 362 73 305 43 305 -24 c 0
 305 -79 327 -129 327 -183 c 0
 327 -212 320 -244 284 -244 c 0
 249 -244 242 -213 242 -184 c 0
 242 -128 266 -74 266 -19 c 0
 266 -6 264 38 242 38 c 0
 212 38 205 -26 205 -46 c 0
 205 -166 234 -287 234 -408 c 0
 234 -437 225 -466 191 -466 c 0
 154 -466 144 -434 144 -402 c 0
 144 -300 176 -199 176 -97 c 2
 177 1251 l 2
 177 1287 165 1325 138 1351 c 1
 158 1372 l 1
 185 1346 222 1332 258 1332 c 2
 1207 1332 l 2
 1448 1332 1804 1314 1804 1027 c 0
 1804 919 1747 788 1625 778 c 1
 1627 758 l 1
 1632 759 1638 759 1643 759 c 0
 1799 759 1887 606 1887 417 c 0
 1887 95 1586 -1 1343 -1 c 0
 1328 -1 1311 -1 1297 0 c 1
 1024 0 l 2
 959 0 838 -1 789 -51 c 1
 769 -31 l 1
 809 10 813 79 813 137 c 0
 813 205 817 306 769 354 c 1
 789 374 l 1
 816 347 852 336 889 336 c 2
 1165 336 l 2
 1180 336 1196 335 1212 335 c 0
 1270 335 1327 342 1327 419 c 0
 1327 481 1264 503 1212 503 c 2
327 -844 m 0
 301 -844 294 -816 294 -795 c 0
 294 -734 314 -675 328 -616 c 1
 341 -676 362 -735 362 -797 c 0
 362 -819 353 -844 327 -844 c 0
EndSplineSet
EndChar

StartChar: eth
Encoding: 240 240 161
Width: 2013
VWidth: 1658
Flags: HW
LayerCount: 2
Fore
SplineSet
755 -105 m 0
 755 28 560 42 441 42 c 0
 370 42 344 15 344 -76 c 0
 344 -180 381 -289 381 -392 c 0
 381 -424 371 -454 334 -454 c 0
 300 -454 291 -425 291 -396 c 0
 291 -275 319 -155 319 -35 c 0
 319 -15 313 50 283 50 c 0
 261 50 258 6 258 -7 c 0
 258 -62 283 -117 283 -173 c 0
 283 -202 274 -232 239 -232 c 0
 203 -232 197 -201 197 -172 c 0
 197 -111 219 -50 219 12 c 0
 219 192 219 372 219 552 c 1
 197 552 l 2
 149 552 103 543 68 539 c 1
 68 820 l 1
 104 811 158 807 219 806 c 1
 219 1251 l 2
 219 1289 208 1324 180 1351 c 1
 200 1372 l 1
 228 1345 262 1332 300 1332 c 2
 1126 1332 l 2
 1554 1332 1907 1171 1907 693 c 0
 1907 28 1510 0 1004 0 c 2
 859 0 l 2
 775 0 775 -103 775 -120 c 0
 775 -164 791 -204 791 -248 c 0
 791 -266 787 -286 765 -286 c 0
 742 -286 734 -267 734 -247 c 0
 734 -199 755 -153 755 -105 c 0
765 552 m 2
 734 552 l 1
 734 482 735 411 736 342 c 1
 963 342 l 2
 1237 342 1371 395 1371 698 c 0
 1371 1132 833 921 716 1036 c 1
 696 1016 l 1
 724 989 734 954 734 916 c 2
 734 806 l 1
 797 806 851 810 888 820 c 1
 888 539 l 1
 853 543 813 552 765 552 c 2
765 -647 m 0
 739 -647 731 -622 731 -600 c 0
 731 -538 751 -478 764 -418 c 1
 778 -477 797 -537 797 -598 c 0
 797 -619 791 -647 765 -647 c 0
EndSplineSet
EndChar

StartChar: ellipsis
Encoding: 8230 8230 162
Width: 1840
VWidth: 1658
Flags: HW
LayerCount: 2
Fore
SplineSet
406 0 m 2
 263 0 l 2
 152 0 140 -3 140 58 c 2
 140 251 l 2
 140 312 152 309 263 309 c 2
 406 309 l 2
 517 309 528 312 528 251 c 2
 528 58 l 2
 528 -3 517 0 406 0 c 2
996 0 m 2
 853 0 l 2
 742 0 731 -3 731 58 c 2
 731 251 l 2
 731 312 742 309 853 309 c 2
 996 309 l 2
 1107 309 1119 312 1119 251 c 2
 1119 58 l 2
 1119 -3 1107 0 996 0 c 2
1587 0 m 2
 1443 0 l 2
 1332 0 1321 -3 1321 58 c 2
 1321 251 l 2
 1321 312 1332 309 1443 309 c 2
 1587 309 l 2
 1698 309 1709 312 1709 251 c 2
 1709 58 l 2
 1709 -3 1698 0 1587 0 c 2
EndSplineSet
EndChar

StartChar: quotesingle
Encoding: 39 39 163
Width: 520
VWidth: 1658
Flags: HW
LayerCount: 2
Fore
SplineSet
263 1403 m 0
 382 1403 395 1370 395 1346 c 1
 361 866 l 2
 358 830 312 811 266 811 c 0
 219 811 172 830 169 867 c 2
 135 1346 l 1
 135 1371 143 1403 263 1403 c 0
EndSplineSet
EndChar

StartChar: underscore
Encoding: 95 95 164
Width: 1034
VWidth: 1658
Flags: HW
LayerCount: 2
Fore
SplineSet
807 -325 m 2
 239 -325 l 2
 191 -325 145 -327 110 -331 c 1
 110 0 l 1
 150 -10 213 -13 281 -13 c 2
 765 -13 l 2
 833 -13 891 -10 931 0 c 1
 931 -331 l 1
 896 -327 855 -325 807 -325 c 2
EndSplineSet
EndChar

StartChar: colon
Encoding: 58 58 165
Width: 790
VWidth: 1658
Flags: HW
LayerCount: 2
Fore
SplineSet
502 677 m 2
 292 677 l 2
 181 677 170 673 170 734 c 2
 170 968 l 2
 170 1029 181 1026 292 1026 c 2
 502 1026 l 2
 613 1026 624 1029 624 968 c 2
 624 734 l 2
 624 673 613 677 502 677 c 2
502 1 m 2
 292 1 l 2
 181 1 170 -3 170 58 c 2
 170 292 l 2
 170 353 181 350 292 350 c 2
 502 350 l 2
 613 350 624 353 624 292 c 2
 624 58 l 2
 624 -3 613 1 502 1 c 2
EndSplineSet
EndChar

StartChar: Thorn
Encoding: 222 222 166
Width: 1903
VWidth: 1658
Flags: HW
LayerCount: 2
Fore
SplineSet
175 1138 m 1
 176 1138 l 1
 176 1251 l 2
 176 1288 165 1325 138 1351 c 1
 157 1372 l 1
 184 1346 220 1332 257 1332 c 2
 619 1332 l 2
 656 1332 692 1345 719 1372 c 1
 739 1351 l 1
 712 1324 700 1288 700 1251 c 2
 700 1139 l 1
 1119 1141 l 2
 1414 1142 1811 1132 1811 736 c 0
 1811 477 1696 285 1327 285 c 2
 776 285 l 2
 736 285 705 294 676 324 c 1
 656 304 l 1
 685 275 695 244 695 204 c 2
 695 81 l 2
 695 5 694 -52 693 -108 c 1
 649 -112 l 1
 640 -33 628 0 614 0 c 2
 462 0 l 1
 458 -15 455 -37 455 -68 c 0
 455 -136 481 -237 481 -305 c 0
 481 -341 470 -366 438 -366 c 0
 403 -366 392 -341 392 -304 c 0
 392 -232 429 -125 429 -52 c 2
 429 0 l 1
 256 0 l 2
 249 0 229 -41 229 -144 c 0
 229 -229 267 -357 267 -443 c 0
 267 -497 252 -535 202 -535 c 0
 150 -535 133 -497 133 -441 c 0
 133 -350 177 -214 177 -122 c 0
 177 -62 175 -2 175 81 c 2
 175 1138 l 1
695 726 m 2
 695 668 l 2
 695 628 685 598 656 569 c 1
 676 548 l 1
 705 577 736 587 776 587 c 2
 1100 587 l 2
 1201 587 1279 589 1279 700 c 0
 1279 806 1162 807 1104 807 c 2
 776 807 l 2
 736 807 705 817 676 846 c 1
 656 826 l 1
 685 797 695 766 695 726 c 2
EndSplineSet
EndChar

StartChar: mu
Encoding: 181 181 167
Width: 1941
VWidth: 1658
Flags: HW
LayerCount: 2
Fore
SplineSet
556 -418 m 2
 265 -418 l 2
 225 -418 195 -427 166 -456 c 1
 146 -436 l 1
 175 -407 185 -377 185 -337 c 2
 185 537 l 1
 183 615 183 695 183 773 c 0
 183 927 185 1081 185 1235 c 0
 185 1273 173 1306 146 1334 c 1
 167 1354 l 1
 194 1326 228 1316 266 1316 c 2
 620 1316 l 2
 658 1316 692 1326 720 1354 c 1
 740 1334 l 1
 713 1306 702 1273 702 1235 c 2
 704 721 l 2
 704 509 708 300 979 300 c 0
 1249 300 1255 509 1255 721 c 2
 1257 1235 l 2
 1257 1273 1246 1306 1219 1334 c 1
 1239 1354 l 1
 1267 1326 1301 1316 1339 1316 c 2
 1693 1316 l 2
 1731 1316 1766 1326 1793 1354 c 1
 1813 1334 l 1
 1779 1299 1772 1214 1772 1130 c 0
 1772 910 1782 781 1782 619 c 0
 1782 269 1719 9 1190 -37 c 1
 1190 -224 l 2
 1190 -258 1200 -293 1200 -327 c 0
 1200 -341 1198 -361 1179 -361 c 0
 1165 -361 1162 -331 1162 -295 c 0
 1162 -202 1168 -174 1168 -132 c 0
 1168 -81 1162 -24 1102 -24 c 0
 1059 -24 1049 -65 1049 -109 c 0
 1049 -141 1054 -175 1054 -196 c 0
 1054 -255 1079 -312 1079 -370 c 0
 1079 -392 1066 -421 1039 -421 c 0
 1011 -421 1003 -390 1003 -368 c 0
 1003 -316 1029 -264 1029 -210 c 0
 1029 -168 1034 -70 975 -70 c 0
 892 -70 901 -207 901 -262 c 0
 901 -336 938 -405 938 -476 c 0
 938 -507 925 -549 887 -549 c 0
 851 -549 833 -513 833 -481 c 0
 833 -401 866 -323 866 -242 c 2
 866 -43 l 1
 784 -36 707 -12 637 20 c 1
 637 -337 l 2
 637 -377 647 -407 676 -436 c 1
 655 -456 l 1
 626 -427 596 -418 556 -418 c 2
1181 -602 m 0
 1157 -602 1147 -581 1147 -553 c 0
 1147 -505 1174 -438 1182 -438 c 0
 1186 -438 1215 -505 1215 -554 c 0
 1215 -581 1206 -602 1181 -602 c 0
EndSplineSet
EndChar

StartChar: exclam
Encoding: 33 33 168
Width: 711
VWidth: 1658
Flags: HW
LayerCount: 2
Fore
SplineSet
381 500 m 2
 341 500 l 2
 301 500 271 490 242 461 c 1
 221 482 l 1
 250 511 268 540 260 580 c 2
 131 1252 l 2
 124 1292 121 1323 92 1352 c 1
 113 1372 l 1
 142 1343 172 1333 212 1333 c 2
 503 1333 l 2
 543 1333 573 1343 602 1372 c 1
 623 1352 l 1
 594 1323 591 1292 584 1252 c 2
 462 580 l 2
 455 540 472 511 501 482 c 1
 481 461 l 1
 452 490 421 500 381 500 c 2
429 0 m 2
 286 0 l 2
 175 0 164 -3 164 58 c 2
 164 292 l 2
 164 353 175 349 286 349 c 2
 429 349 l 2
 540 349 552 353 552 292 c 2
 552 58 l 2
 552 -2 540 0 429 0 c 2
EndSplineSet
EndChar

StartChar: asciitilde
Encoding: 126 126 169
Width: 1355
VWidth: 1658
Flags: HW
LayerCount: 2
Fore
SplineSet
434 1554 m 0
 628 1554 782 1438 858 1438 c 0
 893 1438 912 1460 912 1528 c 1
 1259 1526 l 1
 1260 1501 1261 1476 1261 1454 c 0
 1261 1156 1143 1073 985 1073 c 0
 730 1073 585 1195 518 1195 c 0
 488 1195 474 1170 474 1094 c 1
 127 1097 l 1
 124 1126 124 1153 124 1180 c 0
 124 1471 261 1554 434 1554 c 0
EndSplineSet
EndChar

StartChar: lslash
Encoding: 322 322 172
Width: 1805
VWidth: 1658
Flags: HW
LayerCount: 2
Fore
SplineSet
1003.79980469 739.599609375 m 6
 281.799804688 592.599609375 l 6
 234.799804688 582.599609375 189.799804688 571.599609375 156.799804688 559.599609375 c 5
 91.7998046875 884.599609375 l 5
 131.799804688 882.599609375 193.799804688 892.599609375 261.799804688 906.599609375 c 6
 901.799804688 1037.59960938 l 6
 969.799804688 1051.59960938 1025.79980469 1065.59960938 1062.79980469 1082.59960938 c 5
 1127.79980469 757.599609375 l 5
 1092.79980469 754.599609375 1050.79980469 748.599609375 1003.79980469 739.599609375 c 6
807 306 m 1
 846 345 929 357 1030 357 c 0
 1176 357 1357 333 1503 333 c 0
 1604 333 1686 344 1726 384 c 1
 1746 364 l 1
 1718 337 1708 302 1708 264 c 0
 1708 228 1703 181 1703 134 c 0
 1703 76 1710 17 1746 -19 c 1
 1726 -39 l 1
 1699 -11 1665 0 1627 0 c 2
 1335 0 l 1
 1336 -14 1336 -25 1336 -37 c 0
 1336 -72 1330 -93 1308 -93 c 0
 1285 -93 1280 -69 1280 -30 c 0
 1280 -21 1280 -11 1281 0 c 1
 386 0 l 2
 349 0 327 -187 327 -209 c 0
 327 -345 376 -478 376 -614 c 0
 376 -654 365 -697 316 -697 c 0
 264 -697 252 -655 252 -611 c 0
 252 -471 306 -334 306 -194 c 2
 304 1251 l 2
 304 1289 294 1324 266 1351 c 1
 286 1372 l 1
 314 1345 348 1332 386 1332 c 2
 745 1332 l 2
 783 1332 817 1344 844 1372 c 1
 864 1351 l 1
 836 1324 826 1289 826 1251 c 2
 826 426 l 2
 826 388 815 355 787 327 c 1
 807 306 l 1
1307 -485 m 0
 1280 -485 1275 -458 1275 -436 c 0
 1275 -383 1295 -315 1308 -263 c 1
 1321 -317 1341 -384 1341 -438 c 0
 1341 -460 1334 -485 1307 -485 c 0
EndSplineSet
EndChar

StartChar: Lslash
Encoding: 321 321 173
Width: 1805
VWidth: 1658
Flags: HW
LayerCount: 2
Fore
SplineSet
985.799804688 703.599609375 m 6
 263.799804688 556.599609375 l 6
 216.799804688 546.599609375 171.799804688 535.599609375 138.799804688 523.599609375 c 5
 73.7998046875 848.599609375 l 5
 113.799804688 846.599609375 175.799804688 856.599609375 243.799804688 870.599609375 c 6
 883.799804688 1001.59960938 l 6
 951.799804688 1015.59960938 1007.79980469 1029.59960938 1044.79980469 1046.59960938 c 5
 1109.79980469 721.599609375 l 5
 1074.79980469 718.599609375 1032.79980469 712.599609375 985.799804688 703.599609375 c 6
807 306 m 1
 846 345 929 357 1030 357 c 0
 1176 357 1357 333 1503 333 c 0
 1604 333 1686 344 1726 384 c 1
 1746 364 l 1
 1718 337 1708 302 1708 264 c 0
 1708 228 1703 181 1703 134 c 0
 1703 76 1710 17 1746 -19 c 1
 1726 -39 l 1
 1699 -11 1665 0 1627 0 c 2
 1335 0 l 1
 1336 -14 1336 -25 1336 -37 c 0
 1336 -72 1330 -93 1308 -93 c 0
 1285 -93 1280 -69 1280 -30 c 0
 1280 -21 1280 -11 1281 0 c 1
 386 0 l 2
 349 0 327 -187 327 -209 c 0
 327 -345 376 -478 376 -614 c 0
 376 -654 365 -697 316 -697 c 0
 264 -697 252 -655 252 -611 c 0
 252 -471 306 -334 306 -194 c 2
 304 1251 l 2
 304 1289 294 1324 266 1351 c 1
 286 1372 l 1
 314 1345 348 1332 386 1332 c 2
 745 1332 l 2
 783 1332 817 1344 844 1372 c 1
 864 1351 l 1
 836 1324 826 1289 826 1251 c 2
 826 426 l 2
 826 388 815 355 787 327 c 1
 807 306 l 1
1307 -485 m 0
 1280 -485 1275 -458 1275 -436 c 0
 1275 -383 1295 -315 1308 -263 c 1
 1321 -317 1341 -384 1341 -438 c 0
 1341 -460 1334 -485 1307 -485 c 0
EndSplineSet
EndChar

StartChar: quotedbl
Encoding: 34 34 174
Width: 925
VWidth: 1658
Flags: HW
LayerCount: 2
Fore
SplineSet
263 1403 m 0
 382 1403 395 1370 395 1346 c 1
 361 866 l 2
 358 830 312 811 266 811 c 0
 219 811 172 830 169 867 c 2
 135 1346 l 1
 135 1371 143 1403 263 1403 c 0
667 1403 m 0
 786 1403 800 1370 800 1346 c 1
 765 866 l 2
 762 830 716 811 670 811 c 0
 623 811 576 830 573 867 c 2
 539 1346 l 1
 539 1371 547 1403 667 1403 c 0
EndSplineSet
EndChar

StartChar: percent
Encoding: 37 37 175
Width: 2562
VWidth: 1658
Flags: HW
LayerCount: 2
Fore
SplineSet
80 979 m 0
 80 1285 316 1375 566 1375 c 0
 817 1375 1051 1286 1051 979 c 0
 1051 663 823 575 557 575 c 0
 285 575 80 706 80 979 c 0
1174 -1 m 1
 819 -1 l 1
 848 39 884 101 914 170 c 2
 1346 1166 l 2
 1375 1234 1392 1292 1397 1332 c 1
 1753 1332 l 1
 1724 1292 1689 1235 1659 1166 c 2
 1228 170 l 2
 1199 102 1180 39 1174 -1 c 1
395 978 m 0
 395 845 449 771 566 771 c 0
 683 771 736 845 736 978 c 0
 736 1105 676 1175 566 1175 c 0
 456 1175 395 1105 395 978 c 0
1541 360 m 0
 1541 666 1777 757 2027 757 c 0
 2278 757 2512 667 2512 360 c 0
 2512 44 2284 -44 2018 -44 c 0
 1746 -44 1541 87 1541 360 c 0
1857 360 m 0
 1857 227 1910 152 2027 152 c 0
 2144 152 2197 227 2197 360 c 0
 2197 487 2137 556 2027 556 c 0
 1917 556 1857 487 1857 360 c 0
EndSplineSet
EndChar

StartChar: periodcentered
Encoding: 183 183 176
Width: 692
VWidth: 1658
Flags: HW
LayerCount: 2
Fore
SplineSet
426 528 m 2
 283 528 l 2
 172 528 160 525 160 586 c 2
 160 820 l 2
 160 881 172 878 283 878 c 2
 426 878 l 2
 537 878 548 881 548 820 c 2
 548 586 l 2
 548 525 537 528 426 528 c 2
EndSplineSet
EndChar

StartChar: quoteright
Encoding: 8217 8217 177
Width: 694
VWidth: 1658
Flags: HW
LayerCount: 2
Fore
SplineSet
352.026367188 1008 m 1
 191.026367188 1008 l 2
 110.026367188 1008 110.026367188 1008 110.026367188 1089 c 2
 110.026367188 1211 l 2
 110.026367188 1321 107.026367188 1333 165.026367188 1333 c 2
 441.026367188 1333 l 2
 551.026367188 1333 564.026367188 1337 564.026367188 1279 c 0
 564.026367188 1262 563.026367188 1223 563.026367188 1089 c 0
 563.026367188 935 465.026367188 776 415.026367188 706 c 1
 266.026367188 718 l 1
 332.026367188 853 352.026367188 1008 352.026367188 1008 c 1
EndSplineSet
EndChar

StartChar: quoteleft
Encoding: 8216 8216 178
Width: 717
VWidth: 1658
Flags: HW
LayerCount: 2
Fore
SplineSet
355 1043 m 1
 517 1043 l 2
 598 1043 597 1043 597 962 c 2
 597 840 l 2
 597 730 600 718 542 718 c 2
 265 718 l 2
 155 718 144 715 144 773 c 2
 144 962 l 2
 144 1116 241 1276 291 1346 c 1
 442 1333 l 1
 376 1198 355 1043 355 1043 c 1
EndSplineSet
EndChar

StartChar: quotedblleft
Encoding: 8220 8220 179
Width: 1292
VWidth: 1658
Flags: HW
LayerCount: 2
Fore
SplineSet
355 1043 m 1
 517 1043 l 2
 598 1043 597 1043 597 962 c 2
 597 840 l 2
 597 730 600 718 542 718 c 2
 265 718 l 2
 155 718 144 715 144 773 c 2
 144 962 l 2
 144 1116 241 1276 291 1346 c 1
 442 1333 l 1
 376 1198 355 1043 355 1043 c 1
930 1043 m 1
 1091 1043 l 2
 1172 1043 1172 1043 1172 962 c 2
 1172 840 l 2
 1172 730 1175 718 1117 718 c 2
 841 718 l 2
 731 718 718 715 718 773 c 0
 718 790 719 828 719 962 c 0
 719 1116 817 1276 867 1346 c 1
 1017 1333 l 1
 951 1198 930 1043 930 1043 c 1
EndSplineSet
EndChar

StartChar: quotedblright
Encoding: 8221 8221 180
Width: 1272
VWidth: 1658
Flags: HW
LayerCount: 2
Fore
SplineSet
352.026367188 1009 m 1
 191.026367188 1009 l 2
 110.026367188 1009 110.026367188 1009 110.026367188 1090 c 2
 110.026367188 1212 l 2
 110.026367188 1322 107.026367188 1334 165.026367188 1334 c 2
 441.026367188 1334 l 2
 551.026367188 1334 564.026367188 1338 564.026367188 1280 c 0
 564.026367188 1263 563.026367188 1224 563.026367188 1090 c 0
 563.026367188 936 465.026367188 777 415.026367188 707 c 1
 266.026367188 719 l 1
 332.026367188 854 352.026367188 1009 352.026367188 1009 c 1
931.026367188 1009 m 1
 769.026367188 1009 l 2
 688.026367188 1009 688.026367188 1009 688.026367188 1090 c 2
 688.026367188 1212 l 2
 688.026367188 1322 686.026367188 1334 744.026367188 1334 c 2
 1020.02636719 1334 l 2
 1130.02636719 1334 1141.02636719 1338 1141.02636719 1280 c 2
 1141.02636719 1090 l 2
 1141.02636719 936 1044.02636719 777 994.026367188 707 c 1
 844.026367188 719 l 1
 910.026367188 854 931.026367188 1009 931.026367188 1009 c 1
EndSplineSet
EndChar

StartChar: quotedblbase
Encoding: 8222 8222 181
Width: 1272
VWidth: 1658
Flags: HW
LayerCount: 2
Fore
SplineSet
352.026367188 1009 m 1
 191.026367188 1009 l 2
 110.026367188 1009 110.026367188 1009 110.026367188 1090 c 2
 110.026367188 1212 l 2
 110.026367188 1322 107.026367188 1334 165.026367188 1334 c 2
 441.026367188 1334 l 2
 551.026367188 1334 564.026367188 1338 564.026367188 1280 c 0
 564.026367188 1263 563.026367188 1224 563.026367188 1090 c 0
 563.026367188 936 465.026367188 777 415.026367188 707 c 1
 266.026367188 719 l 1
 332.026367188 854 352.026367188 1009 352.026367188 1009 c 1
931.026367188 1009 m 1
 769.026367188 1009 l 2
 688.026367188 1009 688.026367188 1009 688.026367188 1090 c 2
 688.026367188 1212 l 2
 688.026367188 1322 686.026367188 1334 744.026367188 1334 c 2
 1020.02636719 1334 l 2
 1130.02636719 1334 1141.02636719 1338 1141.02636719 1280 c 2
 1141.02636719 1090 l 2
 1141.02636719 936 1044.02636719 777 994.026367188 707 c 1
 844.026367188 719 l 1
 910.026367188 854 931.026367188 1009 931.026367188 1009 c 1
EndSplineSet
EndChar

StartChar: quotesinglbase
Encoding: 8218 8218 182
Width: 694
VWidth: 1658
Flags: HW
LayerCount: 2
Fore
SplineSet
352.026367188 1008 m 1
 191.026367188 1008 l 2
 110.026367188 1008 110.026367188 1008 110.026367188 1089 c 2
 110.026367188 1211 l 2
 110.026367188 1321 107.026367188 1333 165.026367188 1333 c 2
 441.026367188 1333 l 2
 551.026367188 1333 564.026367188 1337 564.026367188 1279 c 0
 564.026367188 1262 563.026367188 1223 563.026367188 1089 c 0
 563.026367188 935 465.026367188 776 415.026367188 706 c 1
 266.026367188 718 l 1
 332.026367188 853 352.026367188 1008 352.026367188 1008 c 1
EndSplineSet
EndChar

StartChar: parenright
Encoding: 41 41 183
Width: 1230
VWidth: 1658
Flags: HW
LayerCount: 2
Fore
SplineSet
577 693 m 0
 577 1120 443 1183 83 1183 c 1
 82 1525 l 1
 725 1525 1114 1496 1114 693 c 0
 1114 -110 725 -138 82 -138 c 1
 83 204 l 1
 443 204 577 266 577 693 c 0
EndSplineSet
EndChar

StartChar: parenleft
Encoding: 40 40 184
Width: 1219
VWidth: 1658
Flags: HW
LayerCount: 2
Fore
SplineSet
653 693 m 0
 653 266 787 204 1147 204 c 1
 1149 -138 l 1
 506 -138 118 -110 118 693 c 0
 118 1496 506 1525 1149 1525 c 1
 1147 1183 l 1
 787 1183 653 1120 653 693 c 0
EndSplineSet
EndChar

StartChar: section
Encoding: 167 167 185
Width: 1493
VWidth: 1658
Flags: HW
LayerCount: 2
Fore
SplineSet
1351 687 m 0
 1351 606 1315 545 1261 500 c 1
 1320 448 1358 377 1358 271 c 0
 1358 -5 1030 -17 796 -17 c 0
 550 -17 300 -13 201 198 c 1
 184 231 162 255 131 274 c 1
 141 291 l 1
 173 272 205 267 242 267 c 1
 508 277 l 2
 548 279 569 285 575 320 c 1
 614 312 l 1
 611 306 610 299 610 294 c 0
 610 222 687 174 766 174 c 0
 812 174 917 175 917 247 c 0
 917 378 140 276 140 659 c 0
 140 739 175 800 230 845 c 1
 171 886 133 944 133 1026 c 0
 133 1335 461 1346 695 1346 c 0
 941 1346 1190 1341 1289 1147 c 0
 1306 1114 1329 1092 1360 1072 c 1
 1350 1055 l 1
 1318 1074 1286 1078 1249 1078 c 1
 983 1068 l 2
 943 1066 921 1061 915 1026 c 1
 876 1033 l 1
 879 1040 881 1046 881 1051 c 0
 881 1113 804 1156 725 1156 c 0
 679 1156 573 1153 573 1049 c 0
 573 932 1351 1026 1351 687 c 0
885 677 m 0
 885 703.213867188 799.3515625 724 718 724 c 0
 686 724 606 718 606 668 c 0
 606 642 662 632 744 622 c 1
 773 622 l 2
 805 622 885 627 885 677 c 0
EndSplineSet
EndChar

StartChar: hungarumlaut
Encoding: 733 733 186
Width: 1281
VWidth: 1658
Flags: HW
LayerCount: 2
Fore
SplineSet
651.419921875 1342 m 2
 291.419921875 1033 l 2
 241.419921875 991 231.419921875 972 227.419921875 968 c 1
 221.419921875 964 221.419921875 989 163.419921875 1029 c 1
 122.68359375 1061.00683594 69.419921875 1087 69.419921875 1087 c 1
 65.419921875 1091 90.419921875 1097 126.419921875 1154 c 2
 396.419921875 1571 l 2
 430.419921875 1623 430.419921875 1651 434.419921875 1654 c 0
 438.419921875 1656 448.419921875 1632 500.419921875 1585 c 2
 653.419921875 1449 l 2
 699.419921875 1408 725.419921875 1402 727.419921875 1398 c 0
 731.419921875 1393 706.419921875 1389 651.419921875 1342 c 2
1198.41992188 1342 m 2
 837.419921875 1033 l 2
 787.419921875 991 777.419921875 972 773.419921875 968 c 1
 767.419921875 964 767.419921875 989 709.419921875 1029 c 1
 669.682617188 1062.62402344 616.419921875 1087 616.419921875 1087 c 1
 612.419921875 1091 637.419921875 1097 673.419921875 1154 c 2
 942.419921875 1571 l 2
 976.419921875 1623 977.419921875 1651 981.419921875 1654 c 0
 985.419921875 1656 994.419921875 1632 1046.41992188 1585 c 2
 1200.41992188 1449 l 2
 1246.41992188 1408 1272.41992188 1402 1274.41992188 1398 c 0
 1278.41992188 1393 1253.41992188 1389 1198.41992188 1342 c 2
EndSplineSet
EndChar

StartChar: dotaccent
Encoding: 729 729 187
Width: 708
VWidth: 1658
Flags: HW
LayerCount: 2
Fore
SplineSet
428 1436 m 2
 285 1436 l 2
 174 1436 163 1432 163 1493 c 2
 163 1727 l 2
 163 1788 174 1785 285 1785 c 2
 428 1785 l 2
 539 1785 551 1788 551 1727 c 2
 551 1493 l 2
 551 1432 539 1436 428 1436 c 2
EndSplineSet
EndChar

StartChar: exclamdown
Encoding: 161 161 188
Width: 710
VWidth: 1658
Flags: HW
LayerCount: 2
Fore
SplineSet
284 1372 m 2
 428 1372 l 2
 539 1372 550 1374 550 1314 c 2
 550 1080 l 2
 550 1019 539 1022 428 1022 c 2
 284 1022 l 2
 173 1022 162 1019 162 1080 c 2
 162 1314 l 2
 162 1375 173 1372 284 1372 c 2
340 871 m 2
 379 871 l 2
 419 871 449 882 478 911 c 1
 499 890 l 1
 470 861 453 830 460 790 c 2
 582 119 l 2
 589 79 591 49 620 20 c 1
 600 -1 l 1
 571 28 541 38 501 38 c 2
 210 38 l 2
 170 38 139 28 110 -1 c 1
 89 20 l 1
 118 49 122 79 129 119 c 2
 258 790 l 2
 266 830 248 861 219 890 c 1
 240 911 l 1
 269 882 300 871 340 871 c 2
EndSplineSet
EndChar

StartChar: brokenbar
Encoding: 166 166 189
Width: 735
VWidth: 1658
Flags: HW
LayerCount: 2
Fore
SplineSet
472 -49 m 2
 263 -49 l 2
 204 -49 179 -57 172 -57 c 0
 169 -57 168 -56 168 -54 c 0
 168 -48 182 -26 182 32 c 2
 182 556 l 2
 182 614 168 638 168 644 c 0
 168 646 169 645 172 645 c 0
 179 645 203 637 263 637 c 2
 472 637 l 2
 532 637 556 645 563 645 c 0
 566 645 566 646 566 644 c 0
 566 638 554 615 554 556 c 2
 554 32 l 2
 554 -28 562 -51 562 -58 c 0
 562 -61 561 -61 559 -61 c 0
 553 -61 530 -49 472 -49 c 2
472 850 m 2
 263 850 l 2
 201 850 180 830 176 830 c 0
 175 830 175 830 175 832 c 0
 175 838 182 865 182 931 c 2
 182 1454 l 2
 182 1512 168 1536 168 1542 c 0
 168 1544 169 1544 172 1544 c 0
 179 1544 203 1535 263 1535 c 2
 472 1535 l 2
 532 1535 556 1544 563 1544 c 0
 566 1544 566 1545 566 1543 c 0
 566 1537 554 1513 554 1454 c 2
 554 931 l 2
 554 872 566 850 566 844 c 0
 566 842 566 842 563 842 c 0
 556 842 531 850 472 850 c 2
EndSplineSet
EndChar

StartChar: thorn
Encoding: 254 254 190
Width: 1903
VWidth: 1658
Flags: HW
LayerCount: 2
Fore
SplineSet
175 1138 m 1
 176 1138 l 1
 176 1251 l 2
 176 1288 165 1325 138 1351 c 1
 157 1372 l 1
 184 1346 220 1332 257 1332 c 2
 619 1332 l 2
 656 1332 692 1345 719 1372 c 1
 739 1351 l 1
 712 1324 700 1288 700 1251 c 2
 700 1139 l 1
 1119 1141 l 2
 1414 1142 1811 1132 1811 736 c 0
 1811 477 1696 285 1327 285 c 2
 776 285 l 2
 736 285 705 294 676 324 c 1
 656 304 l 1
 685 275 695 244 695 204 c 2
 695 81 l 2
 695 5 694 -52 693 -108 c 1
 649 -112 l 1
 640 -33 628 0 614 0 c 2
 462 0 l 1
 458 -15 455 -37 455 -68 c 0
 455 -136 481 -237 481 -305 c 0
 481 -341 470 -366 438 -366 c 0
 403 -366 392 -341 392 -304 c 0
 392 -232 429 -125 429 -52 c 2
 429 0 l 1
 256 0 l 2
 249 0 229 -41 229 -144 c 0
 229 -229 267 -357 267 -443 c 0
 267 -497 252 -535 202 -535 c 0
 150 -535 133 -497 133 -441 c 0
 133 -350 177 -214 177 -122 c 0
 177 -62 175 -2 175 81 c 2
 175 1138 l 1
695 726 m 2
 695 668 l 2
 695 628 685 598 656 569 c 1
 676 548 l 1
 705 577 736 587 776 587 c 2
 1100 587 l 2
 1201 587 1279 589 1279 700 c 0
 1279 806 1162 807 1104 807 c 2
 776 807 l 2
 736 807 705 817 676 846 c 1
 656 826 l 1
 685 797 695 766 695 726 c 2
EndSplineSet
EndChar

StartChar: asterisk
Encoding: 42 42 191
Width: 1165
VWidth: 1658
Flags: HW
LayerCount: 2
Fore
SplineSet
495 672 m 1
 318 547 l 1
 278 516 236 484 209 453 c 1
 92 615 l 1
 153 650 181 669 213 691 c 2
 399 823 l 1
 213 955 l 2
 173 983 140 995 91 1028 c 1
 209 1193 l 1
 237 1161 282 1125 318 1098 c 1
 381 1053 429 1018 495 972 c 1
 495 1190 l 2
 495 1242 490 1291 480 1333 c 1
 682 1333 l 1
 678 1290 672 1242 672 1191 c 2
 672 970 l 1
 730 1012 791 1056 849 1098 c 0
 885 1124 932 1163 957 1192 c 1
 1073 1029 l 1
 1017 997 988 978 953 953 c 2
 767 822 l 1
 953 689 l 2
 989 663 1022 645 1075 615 c 1
 957 450 l 1
 876 535 770 603 672 671 c 1
 672 452 l 2
 672 402 678 354 682 310 c 1
 480 310 l 1
 490 352 495 401 495 453 c 2
 495 672 l 1
EndSplineSet
EndChar

StartChar: breve
Encoding: 728 728 192
Width: 921
VWidth: 1658
Flags: HW
LayerCount: 2
Fore
SplineSet
624 1711 m 1
 844 1711 l 1
 837.667590028 1521.68299712 713.130193906 1344 463 1344 c 0
 218.111111111 1344 93.5555555556 1524.85590778 83 1711 c 5
 302 1711 l 1
 307.575757576 1634.04347826 361.242424242 1561 463 1561 c 0
 566.151515152 1561 619.818181818 1632.73913043 624 1711 c 1
EndSplineSet
EndChar

StartChar: endash
Encoding: 8211 8211 193
Width: 1127
VWidth: 1658
Flags: HW
LayerCount: 2
Fore
SplineSet
858 559 m 2
 290 559 l 2
 242 559 196 557 161 553 c 1
 161 884 l 1
 201 874 264 871 332 871 c 2
 815 871 l 2
 883 871 941 874 981 884 c 1
 981 553 l 1
 946 557 906 559 858 559 c 2
EndSplineSet
EndChar

StartChar: emdash
Encoding: 8212 8212 194
Width: 1532
VWidth: 1658
Flags: HW
LayerCount: 2
Fore
SplineSet
1263 559 m 2
 290 559 l 2
 242 559 196 557 161 553 c 1
 161 884 l 1
 201 874 264 871 332 871 c 2
 1221 871 l 2
 1289 871 1346 874 1386 884 c 1
 1386 553 l 1
 1351 557 1311 559 1263 559 c 2
EndSplineSet
EndChar

StartChar: fraction
Encoding: 8260 8260 195
Width: 801
VWidth: 1658
Flags: HW
LayerCount: 2
Fore
SplineSet
373 -1 m 1
 18 -1 l 1
 42 39 67 102 90 170 c 1
 389 1166 l 1
 404 1234 417 1292 418 1332 c 1
 774 1332 l 1
 750 1292 725 1234 702 1166 c 1
 404 170 l 1
 387 102 375 39 373 -1 c 1
EndSplineSet
EndChar

StartChar: question
Encoding: 63 63 196
Width: 1559
VWidth: 1658
Flags: HW
LayerCount: 2
Fore
SplineSet
740 434 m 1
 741 403 755 378 778 354 c 1
 757 334 l 1
 728 363 699 373 659 373 c 2
 361 373 l 2
 321 373 290 364 261 336 c 1
 242 356 l 1
 272 382 285 414 287 454 c 1
 312 786 560 869 783 905 c 1
 908 934 935 980 935 1030 c 0
 935 1083 884 1133 775 1133 c 0
 708 1133 653 1106 631 1050 c 0
 626 1037 623 1028 623 1016 c 0
 623 1002 627 987 640 968 c 1
 618 953 l 1
 596 987 576 994 545 994 c 2
 119 994 l 2
 79 994 45 984 13 959 c 1
 -2 979 l 1
 30 1004 46 1035 56 1075 c 1
 120 1382 445 1452 730 1452 c 0
 1014 1452 1490 1414 1490 1001 c 0
 1490 662 1127 631 935 584 c 0
 902 576 740 562 740 434 c 1
583 -181 m 2
 440 -181 l 2
 329 -181 317 -184 317 -123 c 2
 317 111 l 2
 317 172 329 168 440 168 c 2
 583 168 l 2
 694 168 705 172 705 111 c 2
 705 -123 l 2
 705 -184 694 -181 583 -181 c 2
EndSplineSet
EndChar

StartChar: questiondown
Encoding: 191 191 197
Width: 1501
VWidth: 1658
Flags: HW
LayerCount: 2
Fore
SplineSet
784 836 m 1
 784 708 623 694 590 686 c 0
 398 639 33 609 33 270 c 0
 33 -143 510 -182 794 -182 c 0
 1079 -182 1403 -112 1467 195 c 1
 1477 235 1494 266 1526 291 c 1
 1510 310 l 1
 1478 285 1444 275 1404 275 c 2
 979 275 l 2
 948 275 929 283 907 317 c 1
 884 302 l 1
 897 283 901 269 901 255 c 0
 901 243 897 233 892 220 c 0
 870 164 816 137 749 137 c 0
 640 137 589 186 589 239 c 0
 589 289 616 335 741 364 c 1
 964 400 1212 484 1237 816 c 1
 1239 856 1252 888 1282 914 c 1
 1264 935 l 1
 1235 907 1202 897 1162 897 c 2
 866 897 l 2
 826 897 795 907 766 936 c 1
 745 916 l 1
 768 892 783 867 784 836 c 1
941 1451 m 2
 1085 1451 l 2
 1196 1451 1206 1454 1206 1393 c 2
 1206 1159 l 2
 1206 1098 1196 1102 1085 1102 c 2
 941 1102 l 2
 830 1102 818 1098 818 1159 c 2
 818 1393 l 2
 818 1454 830 1451 941 1451 c 2
EndSplineSet
EndChar

StartChar: at
Encoding: 64 64 198
Width: 2148
VWidth: 1658
Flags: HW
LayerCount: 2
Fore
SplineSet
1134 537 m 0
 1012 537 853 524 853 423 c 0
 853 344 946 330 1014 330 c 0
 1109 330 1221 356 1260 450 c 0
 1277 490 1300 519 1329 538 c 1
 1317 561 l 1
 1291 544 1257 535 1218 535 c 0
 1194 535 1166 537 1134 537 c 0
2061 570 m 0
 2061 265 1867 126 1676 126 c 0
 1511 126 1354 193 1287 321 c 1
 1271 323 l 1
 1254 203 1107 126 853 126 c 0
 668 126 422 183 422 425 c 0
 422 677 839 696 1071 696 c 0
 1183 696 1254 697 1308 657 c 1
 1320 672 l 1
 1291 693 1273 720 1260 755 c 0
 1241 804 1189 815 1070 815 c 0
 960 815 830 800 730 774 c 0
 697 765 679 751 665 719 c 1
 642 729 l 1
 646 742 648 752 648 764 c 0
 648 779 642 798 632 814 c 0
 595 875 566 941 506 964 c 1
 514 985 l 1
 531 979 549 974 566 974 c 0
 579 974 594 976 609 980 c 0
 744 1019 950 1040 1081 1040 c 0
 1263 1040 1671 1051 1671 715 c 2
 1671 530 l 2
 1671 388 1692 320 1718 320 c 0
 1797 320 1876 407 1876 570 c 0
 1876 1125 1490 1373 1100 1373 c 0
 694 1373 280 1088 280 554 c 0
 280 93 668 -196 1087 -196 c 0
 1278 -196 1474 -136 1644 -6 c 1
 1757 -153 l 1
 1550 -304 1314 -374 1086 -374 c 0
 569 -374 95 -16 95 554 c 0
 95 1207 601 1552 1100 1552 c 0
 1582 1552 2061 1247 2061 570 c 0
EndSplineSet
EndChar

StartChar: ordfeminine
Encoding: 170 170 199
Width: 1742
VWidth: 1658
Flags: HW
LayerCount: 2
Fore
SplineSet
1552 323 m 2
 1552 257.24609375 1594.95800781 218.479492188 1654 248 c 1
 1667 223 l 1
 1631 205 1623 186 1623 154 c 2
 1623 81 l 2
 1623 41 1634 10 1663 -19 c 1
 1642 -39 l 1
 1613 -10 1582 0 1542 0 c 2
 1452 0 l 2
 1320 0 1182 -11 1120 101 c 0
 1104 129 1098 156 1102 196 c 1
 1082 198 l 1
 1078 158 1066 133 1044 110 c 0
 963 22 838 -33 596 -33 c 0
 377 -33 90 33 90 317 c 0
 90 612 577 635 849 635 c 0
 913 635 973 632 1015 629 c 0
 1058 625 1095 614 1127 590 c 1
 1141 608 l 1
 1108 632 1086 664 1071 704 c 0
 1050 761 988 776 848 776 c 0
 721 776 567 756 450 725 c 0
 412 715 389 699 374 662 c 1
 345 675 l 1
 359 712 356 740 336 773 c 0
 316 805 292 844 272 876 c 1
 251 912 225 936 188 950 c 1
 197 973 l 1
 234 959 269 956 308 968 c 0
 466 1013 708 1037 861 1037 c 0
 1075 1037 1552 1049 1552 657 c 2
 1552 323 l 2
922 450 m 0
 780 450 596 433 596 315 c 0
 596 221 705 207 783 207 c 0
 895 207 1025 237 1071 346 c 0
 1091 394 1120 429 1154 451 c 1
 1137 476 l 1
 1103 454 1060 444 1008 447 c 0
 983 449 953 450 922 450 c 0
EndSplineSet
EndChar

StartChar: equal
Encoding: 61 61 200
Width: 1147
VWidth: 1658
Flags: HW
LayerCount: 2
Fore
SplineSet
860 774 m 2
 292 774 l 2
 244 774 199 774 164 768 c 1
 164 1002 l 1
 204 992 267 989 335 989 c 2
 818 989 l 2
 886 989 945 992 985 1002 c 1
 985 768 l 1
 950 772 908 774 860 774 c 2
860 370 m 2
 292 370 l 2
 244 370 199 370 164 364 c 1
 164 598 l 1
 204 588 267 585 335 585 c 2
 818 585 l 2
 886 585 945 588 985 598 c 1
 985 364 l 1
 950 368 908 370 860 370 c 2
EndSplineSet
EndChar

StartChar: bullet
Encoding: 8226 8226 201
Width: 830
VWidth: 1000
Flags: HW
LayerCount: 2
Fore
SplineSet
292 624 m 0
 257 624 244 609 244 579 c 0
 244 521 263 495 323 495 c 0
 365 495 380 527 380 576 c 0
 380 606 327 624 292 624 c 0
204 491 m 0
 204 495 200 508 192 527 c 0
 166 582 146 631 146 707 c 0
 146 867 290 946 452 946 c 0
 611 946 742 856 742 698 c 0
 742 672 739 650 733 632 c 128
 724 602 688 534 688 504 c 0
 688 493 698 457 698 446 c 0
 698 414 681 408 653 402 c 0
 604 390 581 371 562 322 c 1
 552 325 l 1
 539 354 l 1
 418 351 357 348 332 316 c 1
 320 322 l 1
 315 376 296 389 248 397 c 1
 213 400 196 405 196 443 c 0
 196 447 204 484 204 491 c 0
577 252 m 1
 585 301 584 329 610 346 c 1
 610 307 604 294 600 235 c 1
 565 180 521 137 439 137 c 0
 356 137 319 178 279 235 c 1
 279 334 l 1
 318 250 l 1
 403 222 550 242 577 252 c 1
588 624 m 0
 553 624 500 606 500 576 c 0
 500 527 515 495 557 495 c 0
 617 495 636 521 636 579 c 0
 636 609 623 624 588 624 c 0
496 464 m 0
 496 473 492 486 483 502 c 0
 467 513 454 524 443 537 c 1
 436 523 391 481 391 465 c 0
 391 448 401 434 417 434 c 0
 449 434 450 438 476 438 c 0
 487 438 496 453 496 464 c 0
EndSplineSet
EndChar

StartChar: divide
Encoding: 247 247 202
Width: 1029
VWidth: 1658
Flags: HW
LayerCount: 2
Fore
SplineSet
592 78 m 2
 448 78 l 2
 337 78 326 75 326 136 c 2
 326 370 l 2
 326 431 337 428 448 428 c 2
 592 428 l 2
 703 428 714 431 714 370 c 2
 714 136 l 2
 714 75 703 78 592 78 c 2
842 575 m 2
 193 575 l 2
 145 575 99 573 64 569 c 1
 64 819 l 1
 104 809 167 806 235 806 c 2
 800 806 l 2
 868 806 925 809 965 819 c 1
 965 569 l 1
 930 573 890 575 842 575 c 2
592 925 m 2
 448 925 l 2
 337 925 326 922 326 983 c 2
 326 1217 l 2
 326 1278 337 1274 448 1274 c 2
 592 1274 l 2
 703 1274 714 1278 714 1217 c 2
 714 983 l 2
 714 922 703 925 592 925 c 2
EndSplineSet
EndChar

StartChar: logicalnot
Encoding: 172 172 203
Width: 1119
VWidth: 1658
Flags: HW
LayerCount: 2
Fore
SplineSet
956 871 m 1
 956 345 l 2
 956 297 959 251 963 216 c 1
 794 216 l 1
 804 256 807 319 807 387 c 2
 807 559 l 1
 264 559 l 2
 216 559 171 557 136 553 c 1
 136 884 l 1
 176 874 401 871 469 871 c 0
 687 871 762 870 833 870 c 0
 869 870 904 871 956 871 c 1
EndSplineSet
EndChar

StartChar: Uogonek
Encoding: 370 370 209
Width: 1887
VWidth: 1658
Flags: HW
LayerCount: 2
Fore
SplineSet
935 -70 m 0
 555.893096887 -71.7193056831 154.753917936 -31.9308082997 145 496 c 0
 143 589 143 680 143 773 c 0
 143 927 145 1081 145 1235 c 0
 145 1273 133 1306 106 1334 c 1
 127 1354 l 1
 154 1326 188 1316 226 1316 c 2
 580 1316 l 2
 618 1316 651 1326 679 1354 c 1
 700 1334 l 1
 673 1306 662 1273 662 1235 c 2
 664 721 l 2
 664 509 668 300 939 300 c 0
 1209 300 1215 509 1215 721 c 2
 1217 1235 l 2
 1217 1273 1207 1306 1180 1334 c 1
 1199 1354 l 1
 1227 1326 1261 1316 1299 1316 c 2
 1653 1316 l 2
 1691 1316 1726 1326 1753 1354 c 1
 1773 1334 l 1
 1739 1299 1732 1214 1732 1130 c 0
 1732 910 1741 781 1741 619 c 0
 1741 125.199881941 1376 -68 935 -70 c 0
EndSplineSet
Refer: 236 731 N 1 0 0 1 454 5 2
EndChar

StartChar: uni00AD
Encoding: 173 173 211
Width: 1127
VWidth: 1658
Flags: HW
LayerCount: 2
Fore
SplineSet
858 559 m 2
 290 559 l 2
 242 559 196 557 161 553 c 1
 161 884 l 1
 201 874 264 871 332 871 c 2
 815 871 l 2
 883 871 941 874 981 884 c 1
 981 553 l 1
 946 557 906 559 858 559 c 2
EndSplineSet
EndChar

StartChar: dotaccentcmb
Encoding: 775 775 212
Width: 692
VWidth: 1658
Flags: HW
LayerCount: 2
Fore
SplineSet
426 528 m 2
 283 528 l 2
 172 528 160 525 160 586 c 2
 160 820 l 2
 160 881 172 878 283 878 c 2
 426 878 l 2
 537 878 548 881 548 820 c 2
 548 586 l 2
 548 525 537 528 426 528 c 2
EndSplineSet
EndChar

StartChar: commaaccent
Encoding: 63171 63171 213
Width: 725
VWidth: 1658
Flags: HW
LayerCount: 2
Fore
SplineSet
380.026367188 0 m 1
 219.026367188 0 l 2
 138.026367188 0 138.026367188 0 138.026367188 81 c 2
 138.026367188 203 l 2
 138.026367188 313 135.026367188 325 193.026367188 325 c 2
 469.026367188 325 l 2
 579.026367188 325 591.026367188 329 591.026367188 271 c 0
 591.026367188 254 590.026367188 215 590.026367188 81 c 0
 590.026367188 -73 494.026367188 -232 444.026367188 -302 c 1
 293.026367188 -290 l 1
 359.026367188 -155 380.026367188 0 380.026367188 0 c 1
EndSplineSet
EndChar

StartChar: dotlessj
Encoding: 567 567 214
Width: 1650
VWidth: 1658
Flags: HW
LayerCount: 2
Fore
SplineSet
1196 22 m 1
 1195 22 l 1
 1195 -195 l 2
 1195 -264 1228 -331 1228 -400 c 0
 1228 -429 1217 -454 1185 -454 c 0
 1154 -454 1148 -428 1148 -403 c 0
 1148 -340 1174 -279 1174 -216 c 0
 1174 -95 1026 -29 922 -29 c 0
 872 -29 850 -72 850 -117 c 0
 850 -211 886 -298 886 -392 c 0
 886 -415 876 -457 846 -457 c 0
 813 -457 804 -410 804 -385 c 0
 804 -288 828 -192 828 -95 c 0
 828 -48 774 -21 734 -21 c 0
 694 -21 690 -101 690 -130 c 0
 690 -183 710 -235 710 -288 c 0
 710 -308 703 -364 674 -364 c 0
 646 -364 644 -307 644 -290 c 0
 644 -228 672 -169 672 -107 c 0
 672 -62 654 -42 608 -36 c 0
 -100 68 136 490 22 587 c 1
 31 597 l 1
 45 584 63 570 83 570 c 0
 205 570 352 606 474 622 c 0
 512 626 545 643 569 673 c 1
 591 656 l 1
 570 630 559 599 559 566 c 0
 559 436 609 297 760 297 c 0
 908 297 983 390 983 532 c 2
 984 1251 l 2
 984 1289 974 1324 946 1351 c 1
 966 1372 l 1
 994 1344 1028 1332 1066 1332 c 2
 1414 1332 l 2
 1452 1332 1487 1344 1514 1372 c 1
 1534 1351 l 1
 1506 1324 1495 1289 1495 1251 c 2
 1495 473 l 2
 1495 259 1394 104 1196 22 c 1
1192 -814 m 0
 1172 -814 1167 -794 1167 -778 c 0
 1167 -717 1178 -647 1192 -587 c 1
 1206 -646 1217 -716 1217 -777 c 0
 1217 -792 1212 -814 1192 -814 c 0
EndSplineSet
EndChar

StartChar: uni0326
Encoding: 806 806 215
Width: 725
VWidth: 1658
Flags: HW
LayerCount: 2
Fore
SplineSet
380.026367188 0 m 1
 219.026367188 0 l 2
 138.026367188 0 138.026367188 0 138.026367188 81 c 2
 138.026367188 203 l 2
 138.026367188 313 135.026367188 325 193.026367188 325 c 2
 469.026367188 325 l 2
 579.026367188 325 591.026367188 329 591.026367188 271 c 0
 591.026367188 254 590.026367188 215 590.026367188 81 c 0
 590.026367188 -73 494.026367188 -232 444.026367188 -302 c 1
 293.026367188 -290 l 1
 359.026367188 -155 380.026367188 0 380.026367188 0 c 1
EndSplineSet
EndChar

StartChar: IJ
Encoding: 306 306 216
Width: 2484
VWidth: 1658
Flags: HW
LayerCount: 2
Fore
SplineSet
649 -273 m 0
 649 -107 643 50 434 50 c 0
 296 50 211 -68 211 -198 c 0
 211 -275 241 -348 241 -425 c 0
 241 -459 232 -497 191 -497 c 0
 150 -497 139 -462 139 -427 c 0
 139 -348 170 -271 170 -192 c 0
 170 -103 177 -13 177 76 c 2
 177 1251 l 2
 177 1288 165 1325 138 1351 c 1
 158 1372 l 1
 185 1346 221 1332 258 1332 c 2
 620 1332 l 2
 657 1332 693 1345 720 1372 c 1
 740 1351 l 1
 713 1324 701 1288 701 1251 c 2
 701 81 l 2
 701 -44 676 -169 683 -295 c 1
 682 -295 l 1
 701 -380 719 -470 719 -556 c 0
 719 -578 718 -635 686 -635 c 0
 638 -635 638 -573 638 -539 c 0
 638 -450 649 -362 649 -273 c 0
2031 22 m 1
 2030 22 l 1
 2030 -195 l 2
 2030 -264 2063 -331 2063 -400 c 0
 2063 -429 2052 -454 2020 -454 c 0
 1989 -454 1983 -428 1983 -403 c 0
 1983 -340 2010 -279 2010 -216 c 0
 2010 -95 1861 -29 1757 -29 c 0
 1707 -29 1686 -72 1686 -117 c 0
 1686 -211 1722 -298 1722 -392 c 0
 1722 -415 1711 -457 1681 -457 c 0
 1648 -457 1640 -410 1640 -385 c 0
 1640 -288 1663 -192 1663 -95 c 0
 1663 -48 1609 -21 1569 -21 c 0
 1529 -21 1525 -101 1525 -130 c 0
 1525 -183 1545 -235 1545 -288 c 0
 1545 -308 1538 -364 1509 -364 c 0
 1481 -364 1479 -307 1479 -290 c 0
 1479 -228 1507 -169 1507 -107 c 0
 1507 -62 1489 -42 1443 -36 c 0
 735 68 972 490 858 587 c 1
 867 597 l 1
 881 584 898 570 918 570 c 0
 1040 570 1187 606 1309 622 c 0
 1347 626 1380 643 1404 673 c 1
 1426 656 l 1
 1405 630 1394 599 1394 566 c 0
 1394 436 1445 297 1596 297 c 0
 1744 297 1818 390 1818 532 c 2
 1820 1251 l 2
 1820 1289 1809 1324 1781 1351 c 1
 1801 1372 l 1
 1829 1344 1863 1332 1901 1332 c 2
 2249 1332 l 2
 2287 1332 2322 1344 2349 1372 c 1
 2369 1351 l 1
 2341 1324 2330 1289 2330 1251 c 2
 2330 473 l 2
 2330 259 2229 104 2031 22 c 1
2028 -814 m 0
 2008 -814 2002 -794 2002 -778 c 0
 2002 -717 2013 -647 2027 -587 c 1
 2041 -646 2052 -716 2052 -777 c 0
 2052 -792 2048 -814 2028 -814 c 0
EndSplineSet
EndChar

StartChar: Ldotaccent
Encoding: 319 319 224
Width: 1672
VWidth: 1658
Flags: HW
LayerCount: 2
Fore
SplineSet
1446.79980469 744.599609375 m 6
 1303.79980469 744.599609375 l 6
 1192.79980469 744.599609375 1180.79980469 741.599609375 1180.79980469 802.599609375 c 6
 1180.79980469 1036.59960938 l 6
 1180.79980469 1097.59960938 1192.79980469 1094.59960938 1303.79980469 1094.59960938 c 6
 1446.79980469 1094.59960938 l 6
 1557.79980469 1094.59960938 1568.79980469 1097.59960938 1568.79980469 1036.59960938 c 6
 1568.79980469 802.599609375 l 6
 1568.79980469 741.599609375 1557.79980469 744.599609375 1446.79980469 744.599609375 c 6
673 306 m 1xaa
 712 345 795 357 896 357 c 0xca
 1042 357 1224 333 1370 333 c 0
 1471 333 1552 344 1592 384 c 1
 1613 364 l 1
 1585 337 1573 302 1573 264 c 0
 1573 228 1569 181 1569 134 c 0
 1569 76 1577 17 1613 -19 c 1
 1592 -39 l 1
 1565 -11 1530 0 1492 0 c 2xaa
 1201 0 l 1
 1202 -14 1202 -25 1202 -37 c 0
 1202 -72 1196 -93 1174 -93 c 0
 1151 -93 1146 -69 1146 -30 c 0
 1146 -21 1146 -11 1147 0 c 1xca
 252 0 l 2
 215 0 193 -187 193 -209 c 0xa6
 193 -345 241 -478 241 -614 c 0
 241 -654 231 -697 182 -697 c 0
 130 -697 118 -655 118 -611 c 0xb2
 118 -471 172 -334 172 -194 c 2xa6
 171 1251 l 2
 171 1289 159 1324 131 1351 c 1
 152 1372 l 1
 180 1345 214 1332 252 1332 c 2
 610 1332 l 2
 648 1332 683 1344 710 1372 c 1
 731 1351 l 1
 703 1324 691 1289 691 1251 c 2
 691 426 l 2
 691 388 680 355 652 327 c 1
 673 306 l 1xaa
1174 -485 m 0
 1147 -485 1140 -458 1140 -436 c 0
 1140 -383 1161 -315 1174 -263 c 1
 1187 -317 1208 -384 1208 -438 c 0
 1208 -460 1201 -485 1174 -485 c 0
EndSplineSet
EndChar

StartChar: kgreenlandic
Encoding: 312 312 229
Width: 1978
VWidth: 1658
Flags: HW
LayerCount: 2
Fore
SplineSet
754 915 m 2
 1131 1276 l 2
 1160 1304 1170 1326 1156 1364 c 1
 1191 1377 l 1
 1206 1340 1230 1332 1270 1332 c 2
 1772 1332 l 2
 1812 1332 1850 1340 1888 1354 c 1
 1893 1340 l 1
 1855 1326 1822 1306 1792 1279 c 2
 1386 926 l 2
 1356 899 1327 888 1287 893 c 1
 1283 862 l 1
 1323 858 1349 839 1371 806 c 2
 1889 67 l 2
 1911 34 1939 8 1975 -11 c 1
 1966 -27 l 1
 1930 -8 1894 0 1854 0 c 2
 1371 0 l 2
 1331 0 1306 -9 1287 -45 c 1
 1255 -28 l 1
 1275 8 1267 34 1245 68 c 2
 959 490 l 2
 937 524 928 556 933 596 c 1
 906 599 l 1
 901 559 883 532 851 506 c 1
 759 427 l 1
 727 401 704 392 667 409 c 1
 651 376 l 1
 687 358 696 334 696 294 c 2
 696 81 l 2
 696 41 706 10 735 -19 c 1
 715 -39 l 1
 686 -10 655 0 615 0 c 2
 268 0 l 2
 228 0 197 -10 168 -39 c 1
 148 -19 l 1
 177 10 187 41 187 81 c 2
 187 1251 l 2
 187 1291 177 1322 148 1351 c 1
 168 1372 l 1
 197 1343 228 1332 268 1332 c 2
 615 1332 l 2
 655 1332 686 1343 715 1372 c 1
 735 1351 l 1
 706 1322 696 1291 696 1251 c 2
 696 940 l 2
 696 900 688 862 672 825 c 1
 687 819 l 1
 703 856 725 887 754 915 c 2
EndSplineSet
EndChar

StartChar: ij
Encoding: 307 307 232
Width: 2484
VWidth: 1658
Flags: HW
LayerCount: 2
Fore
SplineSet
649 -273 m 0
 649 -107 643 50 434 50 c 0
 296 50 211 -68 211 -198 c 0
 211 -275 241 -348 241 -425 c 0
 241 -459 232 -497 191 -497 c 0
 150 -497 139 -462 139 -427 c 0
 139 -348 170 -271 170 -192 c 0
 170 -103 177 -13 177 76 c 2
 177 1251 l 2
 177 1288 165 1325 138 1351 c 1
 158 1372 l 1
 185 1346 221 1332 258 1332 c 2
 620 1332 l 2
 657 1332 693 1345 720 1372 c 1
 740 1351 l 1
 713 1324 701 1288 701 1251 c 2
 701 81 l 2
 701 -44 676 -169 683 -295 c 1
 682 -295 l 1
 701 -380 719 -470 719 -556 c 0
 719 -578 718 -635 686 -635 c 0
 638 -635 638 -573 638 -539 c 0
 638 -450 649 -362 649 -273 c 0
2031 22 m 1
 2030 22 l 1
 2030 -195 l 2
 2030 -264 2063 -331 2063 -400 c 0
 2063 -429 2052 -454 2020 -454 c 0
 1989 -454 1983 -428 1983 -403 c 0
 1983 -340 2010 -279 2010 -216 c 0
 2010 -95 1861 -29 1757 -29 c 0
 1707 -29 1686 -72 1686 -117 c 0
 1686 -211 1722 -298 1722 -392 c 0
 1722 -415 1711 -457 1681 -457 c 0
 1648 -457 1640 -410 1640 -385 c 0
 1640 -288 1663 -192 1663 -95 c 0
 1663 -48 1609 -21 1569 -21 c 0
 1529 -21 1525 -101 1525 -130 c 0
 1525 -183 1545 -235 1545 -288 c 0
 1545 -308 1538 -364 1509 -364 c 0
 1481 -364 1479 -307 1479 -290 c 0
 1479 -228 1507 -169 1507 -107 c 0
 1507 -62 1489 -42 1443 -36 c 0
 735 68 972 490 858 587 c 1
 867 597 l 1
 881 584 898 570 918 570 c 0
 1040 570 1187 606 1309 622 c 0
 1347 626 1380 643 1404 673 c 1
 1426 656 l 1
 1405 630 1394 599 1394 566 c 0
 1394 436 1445 297 1596 297 c 0
 1744 297 1818 390 1818 532 c 2
 1820 1251 l 2
 1820 1289 1809 1324 1781 1351 c 1
 1801 1372 l 1
 1829 1344 1863 1332 1901 1332 c 2
 2249 1332 l 2
 2287 1332 2322 1344 2349 1372 c 1
 2369 1351 l 1
 2341 1324 2330 1289 2330 1251 c 2
 2330 473 l 2
 2330 259 2229 104 2031 22 c 1
2028 -814 m 0
 2008 -814 2002 -794 2002 -778 c 0
 2002 -717 2013 -647 2027 -587 c 1
 2041 -646 2052 -716 2052 -777 c 0
 2052 -792 2048 -814 2028 -814 c 0
EndSplineSet
EndChar

StartChar: hbar
Encoding: 295 295 234
Width: 1960
VWidth: 1658
Flags: HW
LayerCount: 2
Fore
SplineSet
1699 0 m 2
 1346 0 l 2
 1308 0 1274 -11 1246 -39 c 1
 1226 -19 l 1
 1254 9 1264 43 1264 81 c 2
 1262 417 l 2
 1262 455 1273 488 1300 516 c 1
 1280 536 l 1
 1252 508 1218 498 1180 498 c 2
 770 498 l 2
 732 498 698 509 670 536 c 1
 650 516 l 1
 653 481 652 388 652 274 c 2
 652 -177 l 2
 652 -358 698 -512 698 -693 c 0
 698 -759 671 -790 642 -790 c 0
 614 -790 586 -759 586 -697 c 0
 586 -671 626 -361 626 -180 c 0
 626 -35 479 39 359 39 c 0
 267 39 187 -5 187 -91 c 0
 187 -208 226 -326 226 -443 c 0
 226 -479 211 -522 168 -522 c 0
 131 -522 103 -490 103 -454 c 0
 103 -321 168 -215 168 -81 c 2
 168 1251 l 2
 168 1289 158 1324 130 1351 c 1
 149 1372 l 1
 177 1345 211 1332 249 1332 c 2
 608 1332 l 2
 646 1332 679 1344 707 1372 c 1
 728 1351 l 1
 692 1315 682 1262 682 1201 c 0
 682 1127 697 1044 697 971 c 0
 697 910 686 857 650 821 c 1
 670 800 l 1
 698 828 732 839 770 839 c 2
 1184 839 l 2
 1222 839 1256 828 1283 800 c 1
 1304 821 l 1
 1268 858 1257 913 1257 974 c 0
 1257 1047 1273 1130 1273 1202 c 0
 1273 1263 1262 1315 1226 1351 c 1
 1246 1372 l 1
 1274 1345 1308 1332 1346 1332 c 2
 1699 1332 l 2
 1737 1332 1771 1344 1799 1372 c 1
 1819 1351 l 1
 1791 1323 1780 1289 1780 1251 c 2
 1780 81 l 2
 1780 43 1792 9 1819 -19 c 1
 1799 -39 l 1
 1771 -11 1737 0 1699 0 c 2
1284.79980469 918.599609375 m 2
 716.799804688 918.599609375 l 2
 668.799804688 918.599609375 623.799804688 916.599609375 588.799804688 912.599609375 c 1
 588.799804688 1243.59960938 l 1
 628.799804688 1233.59960938 690.799804688 1230.59960938 758.799804688 1230.59960938 c 2
 1242.79980469 1230.59960938 l 2
 1310.79980469 1230.59960938 1368.79980469 1233.59960938 1408.79980469 1243.59960938 c 1
 1408.79980469 912.599609375 l 1
 1373.79980469 916.599609375 1332.79980469 918.599609375 1284.79980469 918.599609375 c 2
EndSplineSet
EndChar

StartChar: uni0311
Encoding: 785 785 235
Width: 977
VWidth: 1658
Flags: HW
LayerCount: 2
Fore
SplineSet
875 1364 m 1
 644 1364 l 1
 640.086956522 1442.26086957 590.52173913 1514 494 1514 c 0
 398.344827586 1514 347.24137931 1440.95652174 342 1364 c 1
 113 1364 l 1
 123.55401662 1550.14409222 249.146814404 1731 494 1731 c 4
 744.130193906 1731 868.667590028 1553.31700288 875 1364 c 1
EndSplineSet
EndChar

StartChar: ogonek
Encoding: 731 731 236
Width: 595
VWidth: 1658
Flags: W
HStem: -503 147<283.885 485.805> -77 77<390.412 488>
VStem: 66 210<-345.855 -159.973>
LayerCount: 2
Fore
SplineSet
488 0 m 1
 488 -77 l 1
 284 -128 276 -225 276 -266 c 0
 276 -334 313 -356 363 -356 c 0
 399 -356 441 -345 482 -331 c 1
 503 -462 l 1
 443 -484 364 -503 289 -503 c 0
 172 -503 66 -454 66 -285 c 0
 66 -127 167 -35 488 0 c 1
EndSplineSet
EndChar

StartChar: guilsinglleft
Encoding: 8249 8249 237
Width: 968
VWidth: 1658
Flags: HW
LayerCount: 2
Fore
SplineSet
100.444335938 491 m 1
 99.4443359375 496 100.444335938 838 100.444335938 843 c 0
 100.444335938 862 116.444335938 873 130.444335938 882 c 2
 734.444335938 1252 l 2
 758.444335938 1266 779.444335938 1287 793.444335938 1312 c 1
 805.444335938 1305 l 1
 791.444335938 1281 785.444335938 1252 785.444335938 1223 c 2
 786.444335938 929 l 2
 786.444335938 901 793.444335938 881 818.444335938 867 c 1
 805.444335938 844 l 1
 795.444335938 848 786.444335938 853 774.444335938 853 c 0
 687.444335938 853 517.444335938 665 392.444335938 665 c 1
 392.444335938 650 l 1
 397.444335938 650 l 2
 506.444335938 650 698.444335938 460 774.444335938 460 c 0
 786.444335938 460 795.444335938 465 805.444335938 470 c 1
 818.444335938 447 l 1
 793.444335938 433 786.444335938 413 786.444335938 384 c 2
 785.444335938 108 l 2
 785.444335938 79 791.444335938 51 805.444335938 26 c 1
 793.444335938 19 l 1
 779.444335938 44 758.444335938 65 734.444335938 79 c 2
 130.444335938 454 l 2
 110.444335938 467 100.444335938 473 100.444335938 491 c 1
EndSplineSet
EndChar

StartChar: guilsinglright
Encoding: 8250 8250 238
Width: 953
VWidth: 1658
Flags: HW
LayerCount: 2
Fore
SplineSet
867 491 m 1
 867 473 856 467 836 454 c 2
 233 79 l 2
 209 65 189 44 175 19 c 1
 162 26 l 1
 176 51 183 79 183 108 c 2
 181 384 l 2
 181 413 174 433 149 447 c 1
 162 470 l 1
 172 465 181 460 193 460 c 0
 269 460 460 650 569 650 c 2
 574 650 l 1
 574 665 l 1
 449 665 280 853 193 853 c 0
 181 853 172 848 162 844 c 1
 149 867 l 1
 174 881 181 901 181 929 c 2
 183 1223 l 2
 183 1252 176 1281 162 1305 c 1
 175 1312 l 1
 189 1287 209 1266 233 1252 c 2
 836 882 l 2
 850 873 867 862 867 843 c 0
 867 838 868 496 867 491 c 1
EndSplineSet
EndChar

StartChar: braceleft
Encoding: 123 123 241
Width: 1090
VWidth: 1658
Flags: HW
LayerCount: 2
Fore
SplineSet
229 231 m 0
 229 429 185 462 66 462 c 1
 65 666 l 1
 184 666 230 698 230 896 c 0
 230 1452 404 1534 709 1534 c 0
 816 1534 939 1525 1076 1525 c 1
 1074 1183 l 1
 844 1183 766 1141 766 896 c 0
 766 661 682 603 500 563 c 1
 681 524 767 476 766 231 c 0
 765 -14 843 -55 1073 -55 c 1
 1075 -397 l 1
 938 -397 815 -407 708 -407 c 0
 403 -407 229 -325 229 231 c 0
EndSplineSet
EndChar

StartChar: braceright
Encoding: 125 125 242
Width: 1101
VWidth: 1658
Flags: HW
LayerCount: 2
Fore
SplineSet
877 231 m 0
 877 -325 703 -407 398 -407 c 0
 291 -407 168 -397 31 -397 c 1
 32 -55 l 1
 262 -55 341 -14 340 231 c 0
 339 476 425 524 606 563 c 1
 424 603 339 661 339 896 c 0
 339 1141 262 1183 32 1183 c 1
 31 1525 l 1
 168 1525 290 1534 397 1534 c 0
 702 1534 876 1452 876 896 c 0
 876 698 921 666 1040 666 c 1
 1040 462 l 1
 921 462 877 429 877 231 c 0
EndSplineSet
EndChar

StartChar: ordmasculine
Encoding: 186 186 243
Width: 1751
VWidth: 1658
Flags: HW
LayerCount: 2
Fore
SplineSet
1645 503 m 1
 1645 65 1274 -32 882 -32 c 0
 489 -32 119 65 119 503 c 0
 119 942 490 1037 882 1037 c 0
 1274 1037 1620 942 1645 503 c 1
1153 500 m 0
 1153 669 1042 763 882 763 c 0
 721 763 612 669 612 500 c 0
 612 332 707 238 882 238 c 0
 1057 238 1153 332 1153 500 c 0
EndSplineSet
EndChar

StartChar: degree
Encoding: 176 176 244
Width: 920
VWidth: 1658
Flags: HW
LayerCount: 2
Fore
SplineSet
232 1734 m 0
 232 1608 309 1481 464 1481 c 0
 619 1481 695 1608 695 1734 c 0
 695 1860 619 1987 464 1987 c 0
 309 1987 232 1860 232 1734 c 0
103 1734 m 0
 103 1918 221 2103 464 2103 c 0
 707 2103 824 1918 824 1734 c 0
 824 1550 707 1364 464 1364 c 0
 221 1364 103 1550 103 1734 c 0
EndSplineSet
EndChar

StartChar: macron
Encoding: 175 175 245
Width: 1127
VWidth: 1658
Flags: HW
LayerCount: 2
Fore
SplineSet
858 559 m 2
 290 559 l 2
 242 559 196 557 161 553 c 1
 161 884 l 1
 201 874 264 871 332 871 c 2
 815 871 l 2
 883 871 941 874 981 884 c 1
 981 553 l 1
 946 557 906 559 858 559 c 2
EndSplineSet
EndChar

StartChar: asciicircum
Encoding: 94 94 246
Width: 1399
VWidth: 1658
Flags: HW
LayerCount: 2
Fore
SplineSet
530 1023 m 1
 535 1024 877 1023 882 1023 c 0
 901 1023 911 1006 920 992 c 2
 1290 389 l 2
 1304 365 1326 344 1351 330 c 1
 1344 318 l 1
 1320 332 1291 338 1262 338 c 2
 967 337 l 2
 939 337 919 330 905 305 c 1
 883 318 l 1
 887 328 892 337 892 349 c 0
 892 436 704 606 704 731 c 1
 688 731 l 1
 688 725 l 2
 688 616 498 425 498 349 c 0
 498 337 503 328 508 318 c 1
 486 305 l 1
 472 330 452 337 423 337 c 2
 146 338 l 2
 117 338 90 332 65 318 c 1
 57 330 l 1
 82 344 104 365 118 389 c 2
 492 992 l 2
 505 1012 512 1023 530 1023 c 1
EndSplineSet
EndChar

StartChar: numbersign
Encoding: 35 35 247
Width: 1768
VWidth: 1658
Flags: HW
LayerCount: 2
Fore
SplineSet
1389 247 m 2
 1262 247 l 1
 1222 89 l 2
 1204 21 1194 -42 1191 -82 c 1
 836 -82 l 1
 860 -42 886 21 909 89 c 1
 949 247 l 1
 558 247 l 1
 516 89 l 2
 498 21 489 -42 486 -82 c 1
 130 -82 l 1
 154 -42 180 21 203 89 c 1
 244 247 l 1
 219 247 l 2
 171 247 126 243 91 239 c 1
 91 571 l 1
 131 561 194 558 262 558 c 2
 324 558 l 1
 394 827 l 1
 380 827 l 2
 332 827 287 825 252 821 c 1
 252 1152 l 1
 292 1142 355 1138 423 1138 c 2
 474 1138 l 1
 502 1247 l 1
 517 1315 531 1373 532 1413 c 1
 887 1413 l 1
 863 1373 839 1315 816 1247 c 1
 787 1138 l 1
 1180 1138 l 1
 1207 1247 l 1
 1222 1315 1236 1373 1237 1413 c 1
 1593 1413 l 1
 1569 1373 1544 1315 1521 1247 c 1
 1493 1138 l 1
 1508 1138 l 2
 1576 1138 1635 1142 1675 1152 c 1
 1675 821 l 1
 1640 825 1598 827 1550 827 c 2
 1413 827 l 1
 1343 558 l 1
 1347 558 l 2
 1415 558 1473 561 1513 571 c 1
 1513 239 l 1
 1478 243 1437 247 1389 247 c 2
707 827 m 1
 638 558 l 1
 1029 558 l 1
 1099 827 l 1
 707 827 l 1
EndSplineSet
EndChar

StartChar: less
Encoding: 60 60 248
Width: 968
VWidth: 1658
Flags: HW
LayerCount: 2
Fore
SplineSet
100.444335938 491 m 1
 99.4443359375 496 100.444335938 838 100.444335938 843 c 0
 100.444335938 862 116.444335938 873 130.444335938 882 c 2
 734.444335938 1252 l 2
 758.444335938 1266 779.444335938 1287 793.444335938 1312 c 1
 805.444335938 1305 l 1
 791.444335938 1281 785.444335938 1252 785.444335938 1223 c 2
 786.444335938 929 l 2
 786.444335938 901 793.444335938 881 818.444335938 867 c 1
 805.444335938 844 l 1
 795.444335938 848 786.444335938 853 774.444335938 853 c 0
 687.444335938 853 517.444335938 665 392.444335938 665 c 1
 392.444335938 650 l 1
 397.444335938 650 l 2
 506.444335938 650 698.444335938 460 774.444335938 460 c 0
 786.444335938 460 795.444335938 465 805.444335938 470 c 1
 818.444335938 447 l 1
 793.444335938 433 786.444335938 413 786.444335938 384 c 2
 785.444335938 108 l 2
 785.444335938 79 791.444335938 51 805.444335938 26 c 1
 793.444335938 19 l 1
 779.444335938 44 758.444335938 65 734.444335938 79 c 2
 130.444335938 454 l 2
 110.444335938 467 100.444335938 473 100.444335938 491 c 1
EndSplineSet
EndChar

StartChar: greater
Encoding: 62 62 249
Width: 953
VWidth: 1658
Flags: HW
LayerCount: 2
Fore
SplineSet
867 491 m 1
 867 473 856 467 836 454 c 2
 233 79 l 2
 209 65 189 44 175 19 c 1
 162 26 l 1
 176 51 183 79 183 108 c 2
 181 384 l 2
 181 413 174 433 149 447 c 1
 162 470 l 1
 172 465 181 460 193 460 c 0
 269 460 460 650 569 650 c 2
 574 650 l 1
 574 665 l 1
 449 665 280 853 193 853 c 0
 181 853 172 848 162 844 c 1
 149 867 l 1
 174 881 181 901 181 929 c 2
 183 1223 l 2
 183 1252 176 1281 162 1305 c 1
 175 1312 l 1
 189 1287 209 1266 233 1252 c 2
 836 882 l 2
 850 873 867 862 867 843 c 0
 867 838 868 496 867 491 c 1
EndSplineSet
EndChar

StartChar: currency
Encoding: 164 164 250
Width: 1252
VWidth: 1658
Flags: HW
LayerCount: 2
Fore
SplineSet
265 819 m 0
 265 896 286 975 329 1040 c 1
 239 1129 l 1
 188 1176 139 1213 102 1232 c 1
 204 1336 l 1
 224 1300 266 1253 313 1202 c 1
 399 1115 l 1
 457 1160 532 1188 626 1188 c 0
 720 1188 795 1159 853 1114 c 1
 944 1205 l 1
 989 1257 1029 1300 1049 1336 c 1
 1152 1232 l 1
 1115 1212 1070 1177 1018 1131 c 1
 923 1038 l 1
 965 974 987 896 987 819 c 0
 987 740 966 660 921 595 c 1
 1018 499 l 1
 1070 453 1115 418 1152 398 c 1
 1049 294 l 1
 1029 330 989 373 944 425 c 1
 849 519 l 1
 792 476 719 450 626 450 c 0
 534 450 460 475 404 518 c 1
 313 428 l 1
 266 377 224 330 204 294 c 1
 102 398 l 1
 139 417 188 454 239 501 c 1
 331 594 l 1
 286 659 265 739 265 819 c 0
394 819 m 0
 394 693 471 566 626 566 c 0
 781 566 858 693 858 819 c 0
 858 945 781 1072 626 1072 c 0
 471 1072 394 945 394 819 c 0
EndSplineSet
EndChar

StartChar: plusminus
Encoding: 177 177 251
Width: 1104
VWidth: 1658
Flags: HW
LayerCount: 2
Fore
SplineSet
717 1029 m 2
 717 871 l 1
 827 871 l 2
 895 871 953 874 993 884 c 1
 993 553 l 1
 958 557 917 559 869 559 c 2
 717 559 l 1
 717 412 l 2
 717 364 719 319 723 284 c 1
 392 284 l 1
 402 324 405 386 405 454 c 2
 405 559 l 1
 253 559 l 2
 205 559 159 557 124 553 c 1
 124 884 l 1
 164 874 227 871 295 871 c 2
 405 871 l 1
 405 986 l 2
 405 1054 402 1113 392 1153 c 1
 723 1153 l 1
 719 1118 717 1077 717 1029 c 2
841 -3 m 2
 273 -3 l 2
 225 -3 179 -5 144 -9 c 1
 144 160 l 1
 184 150 246 148 314 148 c 2
 798 148 l 2
 866 148 924 150 964 160 c 1
 964 -9 l 1
 929 -5 889 -3 841 -3 c 2
EndSplineSet
EndChar

StartChar: scedilla
Encoding: 351 351 314
Width: 1887
VWidth: 0
Flags: HW
LayerCount: 2
Fore
SplineSet
1786 482 m 4
 1786 114 1394 3 1066 3 c 4
 745.604473754 3 238.621755334 -59.0439906611 115 338 c 4
 102 381 81 413 48 436 c 5
 63 457 l 5
 93 437 126 427 165 427 c 4
 274 427 491 442 631 448 c 4
 681 451 709 460 722 499 c 5
 767 484 l 5
 764 476 764 469 764 463 c 4
 764 436 782 416 814 392 c 4
 866 352 937 346 1018 346 c 4
 1053 346 1174 354 1174 415 c 4
 1174 451 1146 472 1113 482 c 4
 833 567 104 491 104 939 c 4
 104 1327 544 1410 896 1410 c 4
 1165 1410 1583 1388 1703 1097 c 5
 1723 1055 1749 1023 1769 1002 c 5
 1756 979 l 5
 1727 999 1695 1008 1659 1008 c 6
 1646 1008 l 5
 1506 1002 1364 993 1224 986 c 4
 1175 983 1150 975 1139 936 c 5
 1095 948 l 5
 1097 954 1098 962 1098 967 c 4
 1098 1025 988 1070 876 1070 c 4
 831 1070 708 1071 708 1004 c 4
 708 922 1046 914 1204 891 c 4
 1446 855 1786 813 1786 482 c 4
866.299804688 -130.299804688 m 5
 866.299804688 19.7001953125 l 5
 1050.29980469 19.7001953125 l 5
 1024.29980469 -46.2998046875 l 5
 1186.29980469 -71.2998046875 1289.29980469 -135.299804688 1289.29980469 -265.299804688 c 4
 1289.29980469 -432.299804688 1169.29980469 -483.299804688 1036.29980469 -483.299804688 c 4
 953.299804688 -483.299804688 863.299804688 -464.299804688 794.299804688 -442.299804688 c 5
 815.299804688 -311.299804688 l 5
 815.299804688 -311.299804688 907.299804688 -344.299804688 964.299804688 -344.299804688 c 4
 1062.29980469 -344.299804688 1078.29980469 -282.299804688 1078.29980469 -246.299804688 c 4
 1078.29980469 -214.299804688 1053.29980469 -129.299804688 905.299804688 -129.299804688 c 4
 892.299804688 -129.299804688 880.299804688 -129.299804688 866.299804688 -130.299804688 c 5
EndSplineSet
EndChar

StartChar: Tcommaaccent
Encoding: 354 354 315
Width: 1667
VWidth: 0
Flags: HW
LayerCount: 2
Fore
SplineSet
173 1334 m 2
 1486 1334 l 2
 1524 1334 1558 1345 1586 1373 c 1
 1606 1353 l 1
 1578 1325 1568 1291 1568 1253 c 0
 1568 1217 1563 1171 1563 1125 c 0
 1563 1067 1570 1010 1606 974 c 1
 1586 953 l 1
 1551 989 1499 999 1440 999 c 0
 1371 999 1290 985 1219 985 c 0
 1158 985 1104 995 1068 1031 c 1
 1047 1011 l 1
 1075 984 1086 949 1086 911 c 2
 1086 1 l 2
 564 0 l 1
 564 90 l 1
 565 364 566 637 566 911 c 0
 566 949 576 984 604 1011 c 1
 584 1031 l 1
 549 995 497 986 438 986 c 0
 370 986 291 999 223 999 c 0
 163 999 110 989 74 953 c 1
 54 974 l 1
 82 1002 92 1035 92 1073 c 0
 92 1107 97 1154 97 1201 c 0
 97 1259 90 1318 54 1353 c 1
 74 1373 l 1
 102 1346 135 1334 173 1334 c 2
923 -798 m 4
 903 -798 898 -778 898 -762 c 4
 898 -722 915 -611 924 -572 c 5
 933 -612 948 -723 948 -763 c 4
 948 -780 943 -798 923 -798 c 4
EndSplineSet
Refer: 14 184 N 1 0 0 1 550 -1 2
EndChar

